<svg width="63" height="62" viewBox="0 0 63 62" fill="none" xmlns="http://www.w3.org/2000/svg">
<path d="M1.22144 3.46973H60.8852V43.5871H1.22144V3.46973Z" fill="url(#paint0_linear_164_9041)"/>
<path d="M59.6638 4.68943V42.3694H2.43747V4.68943H59.6638ZM62.1013 2.25195H0V44.8068H62.1013V2.25195Z" fill="url(#paint1_linear_164_9041)"/>
<path d="M49.1123 39.1528C48.4654 37.978 49.2882 36.7826 50.6959 35.3025C52.9263 32.953 55.3535 27.5036 53.0971 21.9714C53.1126 21.9404 52.6521 21.0089 52.6676 20.9778L51.7412 20.9312C51.4463 20.8898 41.2565 20.8691 31.0564 20.8691C20.8562 20.8691 10.6664 20.8898 10.3715 20.9312C10.3715 20.9312 9.00005 21.9404 9.0104 21.9714C6.75923 27.5036 9.18118 32.9478 11.4117 35.3025C12.8141 36.7826 13.6369 37.978 12.9952 39.1528C12.369 40.2965 10.506 40.4621 10.506 40.4621C10.506 40.4621 10.9355 41.6317 11.9706 42.263C12.928 42.8478 14.1079 42.9824 14.9204 43.0031C14.9204 43.0031 18.1031 47.4071 26.4246 47.4071H31.0564H35.6881C44.0096 47.4071 47.1923 43.0031 47.1923 43.0031C48.0048 42.9824 49.1847 42.8478 50.1421 42.263C51.1772 41.6317 51.6067 40.4621 51.6067 40.4621C51.6067 40.4621 49.7385 40.2965 49.1123 39.1528Z" fill="#312D2D"/>
<path d="M31.0459 47.3986V42.5133L45.8312 41.3438L47.1767 42.9998C47.1767 42.9998 43.994 47.4038 35.6724 47.4038L31.0459 47.3986Z" fill="url(#paint2_radial_164_9041)"/>
<path d="M47.1453 40.8626C44.9303 37.4988 49.8415 36.2412 49.8415 36.2412L49.8467 36.2464C48.9928 37.3073 48.6046 38.2336 49.1066 39.1496C49.7328 40.2933 51.5959 40.4589 51.5959 40.4589C51.5959 40.4589 49.0549 42.7153 47.1453 40.8626Z" fill="url(#paint3_radial_164_9041)"/>
<path d="M53.1063 21.9699C55.3057 27.3262 52.9924 32.8428 50.824 35.1716C50.5291 35.4925 49.2663 36.7293 48.9765 37.7178C48.9765 37.7178 44.0395 30.8297 42.5646 26.7828C42.2696 25.9651 41.9953 25.1268 41.9591 24.2573C41.9332 23.6053 42.0315 22.829 42.4093 22.2753C42.8699 21.5973 52.8423 21.3955 52.8423 21.3955C52.8423 21.4007 53.1063 21.9699 53.1063 21.9699Z" fill="url(#paint4_radial_164_9041)"/>
<path d="M9.00492 21.97C6.81067 27.3262 9.12394 32.8429 11.2871 35.1665C11.5873 35.4874 12.8448 36.7242 13.1346 37.7127C13.1346 37.7127 18.0717 30.8246 19.5466 26.7777C19.8468 25.96 20.1159 25.1216 20.1521 24.2522C20.178 23.6002 20.0796 22.8239 19.7019 22.2701C19.2413 21.5922 18.7031 21.7733 17.9216 21.7733C16.4312 21.7733 9.90538 21.3904 9.39822 21.3904C9.4034 21.4007 9.00492 21.97 9.00492 21.97Z" fill="url(#paint5_radial_164_9041)"/>
<path d="M31.0656 47.3986V42.5133L16.2803 41.3438L14.9348 42.9998C14.9348 42.9998 18.1175 47.4038 26.4391 47.4038L31.0656 47.3986Z" fill="url(#paint6_radial_164_9041)"/>
<path d="M14.9665 40.8626C17.1814 37.4988 12.2702 36.2412 12.2702 36.2412L12.2651 36.2464C13.1189 37.3073 13.5071 38.2336 13.0051 39.1496C12.3789 40.2933 10.5159 40.4589 10.5159 40.4589C10.5159 40.4589 13.0568 42.7153 14.9665 40.8626Z" fill="url(#paint7_radial_164_9041)"/>
<path d="M57.1853 60.3183C57.1853 52.3124 44.0716 48.1257 31.1235 48.1257H31.051C18.0408 48.1413 4.91675 51.9139 4.91675 60.3183V62.0002H57.1853V60.3183Z" fill="url(#paint8_linear_164_9041)"/>
<path d="M31.0499 45.6106H26.351V50.7753L31.0396 52.007L35.7489 50.7753V45.6106H31.0499Z" fill="#EDC391"/>
<path d="M4.14026 60.316V61.9979H4.91652H5.69279H19.6086H20.3849H21.1612L21.8495 48.0044C12.172 49.4327 4.14026 53.2778 4.14026 60.316Z" fill="url(#paint9_linear_164_9041)"/>
<path d="M40.2513 48.0044L40.9345 61.9979H41.7107H42.487H56.408H57.1843H57.9606V60.316C57.9606 53.2778 49.9288 49.4327 40.2513 48.0044Z" fill="url(#paint10_linear_164_9041)"/>
<path d="M25.8901 45.4995L31.06 52.134L22.6556 55.5703L21.4084 48.0457L25.8901 45.4995Z" fill="#66C0E8"/>
<path d="M36.2107 45.4995L31.0408 52.134L39.4451 55.5703L40.6923 48.0457L36.2107 45.4995Z" fill="#66C0E8"/>
<path d="M23.226 46.9899C23.226 46.9899 22.636 48.3975 22.222 50.0949C21.3992 53.4691 21.3474 58.2716 21.3474 58.2716C21.3474 58.2716 17.7818 57.0606 16.6691 54.1056C15.3547 50.6124 17.5748 48.6925 17.5748 48.6925C17.5748 48.6925 18.0405 48.4958 19.9967 47.4194C21.9529 46.343 23.226 46.9899 23.226 46.9899Z" fill="#AF5214"/>
<path d="M38.8751 46.9899C38.8751 46.9899 39.4651 48.3975 39.8791 50.0949C40.7019 53.4691 40.7537 58.2716 40.7537 58.2716C40.7537 58.2716 44.3193 57.0606 45.432 54.1056C46.7465 50.6124 44.5263 48.6925 44.5263 48.6925C44.5263 48.6925 44.0606 48.4958 42.1044 47.4194C40.1482 46.343 38.8751 46.9899 38.8751 46.9899Z" fill="#AF5214"/>
<path d="M45.0858 23.926H41.2718H20.6179H16.8039C13.7558 23.926 11.2614 26.586 11.2614 29.8308C11.2614 33.0756 13.7558 35.7356 16.8039 35.7356H20.6179H41.2718H45.0858C48.134 35.7356 50.6284 33.0756 50.6284 29.8308C50.6284 26.586 48.134 23.926 45.0858 23.926Z" fill="#EDC391"/>
<path d="M30.9417 3.55469C21.937 3.55469 13.5947 13.1856 13.5947 27.0497C13.5947 40.8361 22.1906 47.6518 30.9417 47.6518C39.6928 47.6518 48.2886 40.831 48.2886 27.0445C48.2886 13.1856 39.9515 3.55469 30.9417 3.55469Z" fill="#F9DDBD"/>
<path d="M22.7602 30.9021C24.1692 30.9021 25.3115 29.7205 25.3115 28.2628C25.3115 26.8052 24.1692 25.6235 22.7602 25.6235C21.3511 25.6235 20.2089 26.8052 20.2089 28.2628C20.2089 29.7205 21.3511 30.9021 22.7602 30.9021Z" fill="#312D2D"/>
<path d="M38.8803 30.9021C40.2894 30.9021 41.4316 29.7205 41.4316 28.2628C41.4316 26.8052 40.2894 25.6235 38.8803 25.6235C37.4712 25.6235 36.329 26.8052 36.329 28.2628C36.329 29.7205 37.4712 30.9021 38.8803 30.9021Z" fill="#312D2D"/>
<path d="M26.585 23.6109C26.1037 22.9744 24.9962 22.0532 22.8434 22.0532C20.6905 22.0532 19.5779 22.9796 19.1018 23.6109C18.8896 23.8904 18.9414 24.2164 19.0914 24.4131C19.226 24.5942 19.6296 24.765 20.0747 24.6149C20.5198 24.4648 21.3892 24.0146 22.8434 24.0042C24.2976 24.0146 25.167 24.4648 25.6121 24.6149C26.0571 24.765 26.4608 24.5994 26.5953 24.4131C26.7402 24.2164 26.7972 23.8904 26.585 23.6109Z" fill="#454140"/>
<path d="M42.6226 23.6109C42.1413 22.9744 41.0338 22.0532 38.881 22.0532C36.7281 22.0532 35.6155 22.9796 35.1394 23.6109C34.9272 23.8904 34.979 24.2164 35.129 24.4131C35.2636 24.5942 35.6672 24.765 36.1123 24.6149C36.5574 24.4648 37.4268 24.0146 38.881 24.0042C40.3352 24.0146 41.2046 24.4648 41.6497 24.6149C42.0947 24.765 42.4984 24.5994 42.6329 24.4131C42.783 24.2164 42.8348 23.8904 42.6226 23.6109Z" fill="#454140"/>
<path d="M32.9393 33.0477C32.8824 33.027 32.8306 33.0115 32.7737 33.0063H29.1097C29.0528 33.0115 28.9959 33.027 28.9441 33.0477C28.6129 33.1823 28.4318 33.5239 28.587 33.8913C28.7423 34.2587 29.472 35.2834 30.9417 35.2834C32.4114 35.2834 33.1411 34.2535 33.2964 33.8913C33.4568 33.5239 33.2705 33.1823 32.9393 33.0477Z" fill="#DBA689"/>
<path d="M35.3564 37.2315C33.7108 38.2095 28.3028 38.2095 26.6571 37.2315C25.71 36.6674 24.7423 37.5316 25.1356 38.3907C25.5237 39.2342 28.4684 41.1956 31.0197 41.1956C33.571 41.1956 36.4794 39.2342 36.8676 38.3907C37.2609 37.5316 36.3035 36.6674 35.3564 37.2315Z" fill="#444444"/>
<path d="M46.4884 25.2207C46.4522 24.6048 46.4263 24.5427 45.6138 24.284C44.9773 24.0822 41.4996 23.7975 38.881 23.9424C38.6947 23.9528 38.5136 23.9631 38.3428 23.9786C35.9674 24.1805 33.1159 25.1379 30.9734 25.1896C30.0626 25.2103 26.3107 24.2271 23.6558 24.02C23.485 24.0097 23.3143 23.9942 23.1383 23.989C20.5145 23.8544 17.0213 24.1598 16.3848 24.3668C15.5723 24.6307 15.5464 24.6928 15.5154 25.3086C15.4792 25.9245 15.5827 26.4472 16.0639 26.6076C16.7212 26.825 16.7264 27.6426 17.1662 29.9921C17.5647 32.1346 18.5221 33.8269 22.6363 34.1219C22.8123 34.1322 22.9779 34.1426 23.1435 34.1426C26.7816 34.1943 28.034 31.7982 28.448 31.0013C29.2191 29.5212 28.9758 27.4822 31.0148 27.477C33.0486 27.4718 32.8572 29.4746 33.6386 30.9495C34.0578 31.7413 35.2791 34.1477 38.8862 34.096C39.0621 34.096 39.2432 34.0856 39.4295 34.0701C43.5386 33.7492 44.4908 32.0518 44.8738 29.9093C45.2981 27.5546 45.3033 26.7318 45.9554 26.5145C46.4263 26.3592 46.5298 25.8365 46.4884 25.2207ZM25.5033 33.1075C24.872 33.4025 24.0284 33.5526 23.1383 33.5526C21.2805 33.5474 19.2208 32.8954 18.4755 31.5809C17.4198 29.7075 17.1455 25.9193 18.4911 25.1275C19.081 24.7808 21.0734 24.5427 23.1331 24.6307C25.2705 24.7239 27.4802 25.1689 28.2772 26.2143C29.5968 27.9376 27.5009 32.1657 25.5033 33.1075ZM43.5645 31.5033C42.8244 32.8281 40.7492 33.4957 38.881 33.5008C38.0012 33.506 37.168 33.3611 36.547 33.0713C34.5442 32.1398 32.4225 27.9273 33.7266 26.1936C34.5184 25.1379 36.7385 24.6825 38.881 24.579C40.9355 24.4806 42.9227 24.7083 43.5075 25.0499C44.8582 25.8365 44.6098 29.6247 43.5645 31.5033Z" fill="#212121" stroke="#212121" stroke-width="0.430928" stroke-miterlimit="10"/>
<path opacity="0.67" d="M50.545 60.7642L50.84 59.6257L50.8452 59.5998L51.844 55.6667L48.2731 54.642L30.2017 49.4514C30.1758 49.4462 30.1551 49.4462 30.1344 49.4359C28.4577 48.996 26.7292 49.9689 26.2479 51.6457L23.2722 62.001H50.1931L50.545 60.7642Z" fill="url(#paint11_linear_164_9041)"/>
<path d="M52.6568 55.7265C52.8068 55.2038 52.5067 54.6604 51.984 54.5155L31.9615 48.7712C30.2641 48.2847 28.489 49.268 28.0026 50.9654L24.8406 61.9987H50.861L52.6568 55.7265Z" fill="#424242"/>
<path d="M52.31 60.0912C52.4912 59.4598 52.1134 58.7974 51.4717 58.6163L29.9846 52.4579C27.6403 51.7852 27.2315 53.6741 26.5742 55.9666L24.8406 62.0008H51.7615L52.31 60.0912Z" fill="url(#paint12_linear_164_9041)"/>
<path d="M30.6677 48.6675C29.4412 48.8279 28.37 49.6922 28.0077 50.9549L24.8406 61.9986H26.8433L30.6677 48.6675Z" fill="url(#paint13_linear_164_9041)"/>
<path opacity="0.2" d="M31.2212 50.3908C31.3144 50.3908 31.4179 50.4011 31.5265 50.427L50.8038 55.9644L50.6434 56.5233C44.5419 54.8207 32.8979 51.5448 30.4915 50.7479C30.6157 50.5771 30.8589 50.3908 31.2212 50.3908ZM31.2212 48.6675C28.8821 48.6675 27.7125 51.55 29.6066 52.259C31.6921 53.0353 51.8233 58.6347 51.8233 58.6347L52.641 55.7781C52.8014 55.2295 52.5426 54.6706 52.0665 54.5361L31.9664 48.7606C31.7077 48.6985 31.4593 48.6675 31.2212 48.6675Z" fill="#424242"/>
<path d="M51.4257 55.8512L30.8288 49.9413C30.2699 49.7808 29.6593 50.1793 29.4729 50.8262L29.4419 50.9401C29.2556 51.587 29.5609 52.2494 30.1198 52.4098L50.7168 58.3198C50.7168 58.3198 50.5408 57.8902 50.753 57.1295C50.9652 56.3636 51.4257 55.8512 51.4257 55.8512Z" fill="url(#paint14_linear_164_9041)"/>
<path d="M51.7873 10.8224C50.5246 8.91283 47.6938 6.35115 45.1529 6.18037C44.744 3.73772 42.1306 1.66768 39.6 0.865538C32.7533 -1.30283 28.2975 1.12947 25.9066 2.43359C25.4098 2.7027 22.1961 4.48811 19.9501 3.20986C18.5425 2.40772 18.5683 0.23935 18.5683 0.23935C18.5683 0.23935 14.1592 1.92126 15.6651 6.60473C14.1488 6.66683 12.1616 7.30854 11.111 9.43551C9.85864 11.9713 10.3037 14.0879 10.666 15.1023C9.36183 16.2097 7.72132 18.5644 8.84432 21.6229C9.69304 23.9258 13.0724 24.9867 13.0724 24.9867C12.8343 29.132 13.6054 31.6833 14.0143 32.7131C14.0867 32.8943 14.3403 32.8787 14.3869 32.6924C14.8992 30.6379 16.6484 23.4807 16.4724 22.2335C16.4724 22.2335 22.3462 21.0691 27.9456 16.9446C29.0842 16.1062 30.321 15.3921 31.6355 14.8694C38.6685 12.0696 40.1382 16.8463 40.1382 16.8463C40.1382 16.8463 45.0131 15.9096 46.4829 22.6786C47.0366 25.2144 47.4092 29.2769 47.7249 32.118C47.7456 32.3198 48.0199 32.3612 48.0975 32.1749C48.5891 31.0467 49.5724 28.8111 49.8053 26.5289C49.8881 25.7267 52.0513 24.6658 52.9828 21.2192C54.23 16.6237 52.7033 12.2042 51.7873 10.8224Z" fill="#312D2D"/>
<path d="M49.7945 26.5499C49.8773 25.7478 52.0405 24.6869 52.9721 21.2403C53.0704 20.8728 53.1532 20.5002 53.2308 20.1276C53.9864 15.941 52.6305 12.0959 51.787 10.8228C50.6174 9.05807 48.1126 6.73963 45.7373 6.26352C45.5302 6.23764 45.3284 6.21177 45.1369 6.20142C45.1369 6.20142 45.3077 7.31406 44.8575 8.19901C44.2779 9.34788 43.0928 9.62216 43.0928 9.62216C49.2874 15.8219 48.8475 21.0074 49.7945 26.5499Z" fill="url(#paint15_radial_164_9041)"/>
<path d="M27.4026 1.6527C26.8333 1.92698 26.3365 2.20126 25.9018 2.43414C25.405 2.70324 22.1913 4.48866 19.9453 3.2104C18.5635 2.42379 18.5635 0.322696 18.5635 0.250244C17.927 1.06274 16.0018 6.86403 21.6324 7.25216C24.0595 7.41776 25.5551 5.30115 26.4452 3.51056C26.7661 2.8585 27.268 1.90628 27.4026 1.6527Z" fill="url(#paint16_radial_164_9041)"/>
<path d="M38.8952 0.65726C42.6834 1.68193 44.5309 3.61224 45.1467 6.18427C45.3279 6.93984 45.5452 13.9883 32.09 5.97727C27.0856 2.99641 28.4519 1.13337 29.0366 0.92119C31.324 0.0931732 34.6516 -0.491614 38.8952 0.65726Z" fill="url(#paint17_radial_164_9041)"/>
<path d="M18.5468 0.247655C18.5416 0.25283 18.5313 0.25283 18.5157 0.26318C18.5157 0.26318 18.5157 0.26318 18.5106 0.26318C18.0293 0.465009 14.2463 2.21937 15.6591 6.60268L19.6853 7.24957C16.1197 3.63735 18.5623 0.237305 18.5623 0.237305C18.5623 0.237305 18.552 0.24248 18.5468 0.247655Z" fill="url(#paint18_radial_164_9041)"/>
<path d="M18.1496 7.00224L15.6604 6.60376C15.5621 6.60376 15.2309 6.63481 15.0498 6.66069C13.6473 6.85734 11.9964 7.58186 11.1011 9.43454C10.1386 11.4321 10.1645 13.1451 10.4284 14.2888C10.506 14.6717 10.6613 15.1065 10.6613 15.1065C10.6613 15.1065 11.8929 13.9369 14.8272 13.8593L18.1496 7.00224Z" fill="url(#paint19_radial_164_9041)"/>
<path d="M10.5407 15.2059C9.31423 16.2927 7.66337 18.7198 8.87952 21.7317C9.79551 24.0036 13.0662 24.9868 13.0662 24.9868C13.0662 24.9972 13.7182 25.1938 14.0546 25.1938L14.8205 13.8604C13.2525 13.8604 11.7465 14.3313 10.7736 15.0092C10.7891 15.0248 10.5356 15.1904 10.5407 15.2059Z" fill="url(#paint20_radial_164_9041)"/>
<defs>
<linearGradient id="paint0_linear_164_9041" x1="31.0505" y1="3.72605" x2="31.0505" y2="43.623" gradientUnits="userSpaceOnUse">
<stop stop-color="#26A69A"/>
<stop offset="1" stop-color="#00796B"/>
</linearGradient>
<linearGradient id="paint1_linear_164_9041" x1="31.0504" y1="2.24937" x2="31.0504" y2="44.8048" gradientUnits="userSpaceOnUse">
<stop stop-color="#8D6E63"/>
<stop offset="0.7789" stop-color="#795548"/>
</linearGradient>
<radialGradient id="paint2_radial_164_9041" cx="0" cy="0" r="1" gradientUnits="userSpaceOnUse" gradientTransform="translate(38.5979 40.3397) scale(12.1196 5.95314)">
<stop offset="0.7275" stop-color="#454140" stop-opacity="0"/>
<stop offset="1" stop-color="#454140"/>
</radialGradient>
<radialGradient id="paint3_radial_164_9041" cx="0" cy="0" r="1" gradientUnits="userSpaceOnUse" gradientTransform="translate(50.5356 38.5366) rotate(154.924) scale(3.58146 2.65693)">
<stop offset="0.6628" stop-color="#454140"/>
<stop offset="1" stop-color="#454140" stop-opacity="0"/>
</radialGradient>
<radialGradient id="paint4_radial_164_9041" cx="0" cy="0" r="1" gradientUnits="userSpaceOnUse" gradientTransform="translate(41.2526 28.4084) rotate(-94.2783) scale(15.7317 13.1114)">
<stop offset="0.7247" stop-color="#454140" stop-opacity="0"/>
<stop offset="1" stop-color="#454140"/>
</radialGradient>
<radialGradient id="paint5_radial_164_9041" cx="0" cy="0" r="1" gradientUnits="userSpaceOnUse" gradientTransform="translate(20.8603 28.4081) rotate(-85.7217) scale(15.7317 13.1114)">
<stop offset="0.7247" stop-color="#454140" stop-opacity="0"/>
<stop offset="1" stop-color="#454140"/>
</radialGradient>
<radialGradient id="paint6_radial_164_9041" cx="0" cy="0" r="1" gradientUnits="userSpaceOnUse" gradientTransform="translate(23.5147 40.3397) rotate(180) scale(12.1196 5.95314)">
<stop offset="0.7275" stop-color="#454140" stop-opacity="0"/>
<stop offset="1" stop-color="#454140"/>
</radialGradient>
<radialGradient id="paint7_radial_164_9041" cx="0" cy="0" r="1" gradientUnits="userSpaceOnUse" gradientTransform="translate(11.5784 38.537) rotate(25.0761) scale(3.58146 2.65693)">
<stop offset="0.6628" stop-color="#454140"/>
<stop offset="1" stop-color="#454140" stop-opacity="0"/>
</radialGradient>
<linearGradient id="paint8_linear_164_9041" x1="31.051" y1="50.6624" x2="31.051" y2="58.4094" gradientUnits="userSpaceOnUse">
<stop stop-color="#E1F5FE"/>
<stop offset="1" stop-color="#81D4FA"/>
</linearGradient>
<linearGradient id="paint9_linear_164_9041" x1="12.9964" y1="48.9793" x2="12.9964" y2="61.4958" gradientUnits="userSpaceOnUse">
<stop stop-color="#FFA000"/>
<stop offset="0.3413" stop-color="#FF9300"/>
<stop offset="0.9717" stop-color="#FF7100"/>
<stop offset="1" stop-color="#FF6F00"/>
</linearGradient>
<linearGradient id="paint10_linear_164_9041" x1="49.1047" y1="48.8349" x2="49.1047" y2="61.5804" gradientUnits="userSpaceOnUse">
<stop stop-color="#FFA000"/>
<stop offset="0.3413" stop-color="#FF9300"/>
<stop offset="0.9717" stop-color="#FF7100"/>
<stop offset="1" stop-color="#FF6F00"/>
</linearGradient>
<linearGradient id="paint11_linear_164_9041" x1="39.1074" y1="52.3168" x2="37.7499" y2="58.0329" gradientUnits="userSpaceOnUse">
<stop offset="0.0017" stop-color="#212121" stop-opacity="0.2"/>
<stop offset="1" stop-color="#212121" stop-opacity="0.6"/>
</linearGradient>
<linearGradient id="paint12_linear_164_9041" x1="40.2832" y1="55.2224" x2="39.2633" y2="58.6443" gradientUnits="userSpaceOnUse">
<stop stop-color="#EF5350"/>
<stop offset="1" stop-color="#E53935"/>
</linearGradient>
<linearGradient id="paint13_linear_164_9041" x1="28.1551" y1="54.1774" x2="29.1194" y2="51.1469" gradientUnits="userSpaceOnUse">
<stop stop-color="#212121"/>
<stop offset="1" stop-color="#424242"/>
</linearGradient>
<linearGradient id="paint14_linear_164_9041" x1="29.4591" y1="50.8823" x2="51.0698" y2="57.084" gradientUnits="userSpaceOnUse">
<stop offset="0.0102" stop-color="#BDBDBD"/>
<stop offset="0.9869" stop-color="#F8F8F7"/>
</linearGradient>
<radialGradient id="paint15_radial_164_9041" cx="0" cy="0" r="1" gradientUnits="userSpaceOnUse" gradientTransform="translate(40.3745 20.1078) rotate(72.0851) scale(18.4401 13.6821)">
<stop offset="0.6985" stop-color="#454140" stop-opacity="0"/>
<stop offset="1" stop-color="#454140"/>
</radialGradient>
<radialGradient id="paint16_radial_164_9041" cx="0" cy="0" r="1" gradientUnits="userSpaceOnUse" gradientTransform="translate(22.3986 0.00269078) rotate(28.2026) scale(4.83499 5.73289)">
<stop offset="0.58" stop-color="#454140"/>
<stop offset="1" stop-color="#454140" stop-opacity="0"/>
</radialGradient>
<radialGradient id="paint17_radial_164_9041" cx="0" cy="0" r="1" gradientUnits="userSpaceOnUse" gradientTransform="translate(33.2031 8.78165) rotate(-157.19) scale(15.1215 8.49834)">
<stop offset="0.6985" stop-color="#454140" stop-opacity="0"/>
<stop offset="1" stop-color="#454140"/>
</radialGradient>
<radialGradient id="paint18_radial_164_9041" cx="0" cy="0" r="1" gradientUnits="userSpaceOnUse" gradientTransform="translate(20.4558 4.41083) scale(4.43791 5.4289)">
<stop offset="0.7016" stop-color="#454140" stop-opacity="0"/>
<stop offset="1" stop-color="#454140"/>
</radialGradient>
<radialGradient id="paint19_radial_164_9041" cx="0" cy="0" r="1" gradientUnits="userSpaceOnUse" gradientTransform="translate(19.8461 12.2456) rotate(-164.942) scale(8.32363 7.78941)">
<stop offset="0.6605" stop-color="#454140" stop-opacity="0"/>
<stop offset="1" stop-color="#454140"/>
</radialGradient>
<radialGradient id="paint20_radial_164_9041" cx="0" cy="0" r="1" gradientUnits="userSpaceOnUse" gradientTransform="translate(17.8719 20.2829) rotate(7.83355) scale(8.73876 12.2794)">
<stop offset="0.5981" stop-color="#454140" stop-opacity="0"/>
<stop offset="1" stop-color="#454140"/>
</radialGradient>
</defs>
</svg>
