<svg width="42" height="42" viewBox="0 0 42 42" fill="none" xmlns="http://www.w3.org/2000/svg">
<g clip-path="url(#clip0_164_9651)">
<path d="M5.25 5.25C3.85761 5.25 2.52226 5.80312 1.53769 6.78769C0.553123 7.77226 0 9.10761 0 10.5L0 31.5C0 32.8924 0.553123 34.2277 1.53769 35.2123C2.52226 36.1969 3.85761 36.75 5.25 36.75H36.75C38.1424 36.75 39.4777 36.1969 40.4623 35.2123C41.4469 34.2277 42 32.8924 42 31.5V10.5C42 9.10761 41.4469 7.77226 40.4623 6.78769C39.4777 5.80312 38.1424 5.25 36.75 5.25H5.25ZM13.1959 15.7552C11.0171 15.7552 9.7335 17.4405 9.7335 20.3569V22.3073C9.7335 25.2131 10.9935 26.8406 13.1959 26.8406C15.0071 26.8406 16.1831 25.6988 16.3091 24.0844H19.32V24.3836C19.1704 27.3945 16.6215 29.4709 13.1723 29.4709C8.93813 29.4709 6.5625 26.7724 6.5625 22.3073V20.3464C6.5625 15.8839 8.96175 13.125 13.1723 13.125C16.632 13.125 19.1835 15.2591 19.32 18.375V18.6638H16.3091C16.1831 16.989 14.9835 15.7552 13.1959 15.7552ZM29.3134 15.7552C27.132 15.7552 25.851 17.4405 25.851 20.3569V22.3073C25.851 25.2131 27.111 26.8406 29.3108 26.8406C31.122 26.8406 32.3006 25.6988 32.4266 24.0844H35.4375V24.3836C35.2879 27.3945 32.739 29.4709 29.2897 29.4709C25.0556 29.4709 22.68 26.7724 22.68 22.3073V20.3464C22.68 15.8839 25.0793 13.125 29.2897 13.125C32.7495 13.125 35.301 15.2591 35.4375 18.375V18.6638H32.4266C32.3006 16.989 31.1036 15.7552 29.3134 15.7552Z" fill="#FBFBFB"/>
</g>
<defs>
<clipPath id="clip0_164_9651">
<rect width="42" height="42" fill="white"/>
</clipPath>
</defs>
</svg>
