<svg width="29" height="30" viewBox="0 0 29 30" fill="none" xmlns="http://www.w3.org/2000/svg">
<path d="M20.8911 14.2329C20.9631 14.1838 21.0613 14.2023 21.1105 14.2743C21.1109 14.275 21.1113 14.2755 21.1117 14.2762L28.4721 25.2061C28.5211 25.279 28.5018 25.3779 28.4289 25.4269C28.3908 25.4526 28.3435 25.4605 28.2992 25.4487L24.0307 24.3377C23.9462 24.3145 23.859 24.3643 23.8357 24.4489C23.8341 24.455 23.8328 24.4612 23.8318 24.4675L23.1442 28.9378C23.132 29.0234 23.0528 29.0829 22.9672 29.0706C22.923 29.0643 22.8835 29.0394 22.8589 29.0022L15.4897 18.0619C15.4411 17.9888 15.4604 17.8902 15.533 17.8409L20.8911 14.2329Z" fill="#B4B4B4"/>
<path d="M8.10825 14.2305C8.03552 14.1815 7.93686 14.2007 7.88785 14.2735L7.88757 14.2738L0.527154 25.2037C0.478329 25.2773 0.498433 25.3767 0.572087 25.4255C0.609794 25.4506 0.656303 25.4583 0.700126 25.4471L4.97281 24.3362C5.06008 24.3147 5.1481 24.3681 5.1695 24.4553C5.17042 24.4588 5.17126 24.4623 5.17191 24.4659L5.85518 28.9362C5.86833 29.0231 5.9494 29.083 6.0363 29.0698C6.08059 29.063 6.11996 29.038 6.14479 29.0008L13.5096 18.0596C13.5591 17.9887 13.5418 17.891 13.4709 17.8416C13.4694 17.8406 13.4679 17.8395 13.4663 17.8386L8.10825 14.2305Z" fill="#B4B4B4"/>
<path d="M14.3691 0.141235C20.1685 0.141235 24.8696 4.8425 24.8696 10.6417C24.8696 16.441 20.1685 21.1422 14.3691 21.1422C8.56983 21.1422 3.86865 16.441 3.86865 10.6417C3.86865 4.8425 8.56983 0.141235 14.3691 0.141235Z" fill="#D4D4D4"/>
<path d="M14.3705 2.0542C19.1155 2.0542 22.9622 5.90089 22.9622 10.6459C22.9622 15.391 19.1155 19.2376 14.3705 19.2376C9.6255 19.2376 5.77881 15.391 5.77881 10.6459C5.77881 5.90089 9.6255 2.0542 14.3705 2.0542Z" fill="white"/>
<path d="M19.5351 7.89039C19.7 7.86737 19.8522 7.98249 19.8752 8.14743C19.8885 8.24303 19.8554 8.33917 19.7859 8.40615L17.3006 10.8033C17.2065 10.894 17.1815 11.0348 17.2385 11.1523L18.7474 14.2557C18.821 14.4053 18.7596 14.5862 18.61 14.6599C18.5233 14.7026 18.4214 14.7012 18.3359 14.6562L15.2896 13.0309C15.1745 12.9684 15.0322 12.9878 14.938 13.0789L12.453 15.476C12.3315 15.5912 12.1395 15.5861 12.0244 15.4645C11.9583 15.3948 11.9291 15.2979 11.9459 15.2033L12.5507 11.8074C12.5734 11.6781 12.5106 11.5489 12.3949 11.4869L9.34862 9.86156C9.20204 9.78305 9.14695 9.60052 9.22551 9.45402C9.27087 9.36931 9.35406 9.3114 9.44915 9.29805L12.8674 8.82027C12.997 8.80428 13.1011 8.70567 13.1241 8.57711L13.7264 5.17593C13.755 5.01215 13.9109 4.9025 14.0747 4.93108C14.17 4.94768 14.2514 5.00906 14.2938 5.096L15.8038 8.2015C15.861 8.31898 15.9872 8.3862 16.1166 8.36829L19.5351 7.89039Z" fill="#EEEEEE"/>
</svg>
