<svg width="30" height="31" viewBox="0 0 30 31" fill="none" xmlns="http://www.w3.org/2000/svg">
<g clip-path="url(#clip0_164_8665)">
<mask id="mask0_164_8665" style="mask-type:luminance" maskUnits="userSpaceOnUse" x="0" y="0" width="30" height="31">
<path d="M29.9485 0.558594H0V30.507H29.9485V0.558594Z" fill="white"/>
</mask>
<g mask="url(#mask0_164_8665)">
<path d="M13.2736 27.789L2.72634 17.2417C1.81387 16.3292 1.81387 14.8498 2.72634 13.9373L13.2736 3.38992C14.1861 2.47745 15.6655 2.47745 16.578 3.38992L27.1252 13.9373C28.0377 14.8498 28.0377 16.3292 27.1252 17.2417L16.578 27.789C15.6655 28.7015 14.1861 28.7015 13.2736 27.789Z" fill="#3B3BE6"/>
<path d="M14.9258 3.9035C15.23 3.9035 15.5158 4.02198 15.7308 4.23701L26.2783 14.7844C26.7222 15.2282 26.7222 15.9506 26.2783 16.3945L15.7308 26.9419C15.5158 27.1569 15.23 27.2753 14.9258 27.2753C14.6217 27.2753 14.3358 27.1569 14.1208 26.9419L3.57332 16.3945C3.12948 15.9506 3.12948 15.2282 3.57332 14.7844L14.1208 4.23701C14.3358 4.02198 14.6217 3.9035 14.9258 3.9035ZM14.9258 2.70557C14.3278 2.70557 13.7299 2.93365 13.2737 3.38995L2.72625 13.9373C1.8139 14.8498 1.8139 16.3291 2.72625 17.2416L13.2737 27.789C13.7299 28.2451 14.3278 28.4732 14.9258 28.4732C15.5238 28.4732 16.1217 28.2451 16.5779 27.789L27.1254 17.2416C28.0377 16.3291 28.0377 14.8498 27.1254 13.9373L16.5779 3.38995C16.1217 2.93365 15.5238 2.70557 14.9258 2.70557Z" fill="#39359F"/>
<path d="M14.961 2.7497C15.559 2.7497 16.1569 2.97778 16.6131 3.43408L27.1605 13.9814C28.0729 14.8939 28.0729 16.3732 27.1605 17.2857L16.6131 27.8331C16.1569 28.2893 15.559 28.5173 14.961 28.5173C14.363 28.5173 13.7651 28.2893 13.3089 27.8331L2.76141 17.2857C1.84906 16.3732 1.84906 14.8939 2.76141 13.9814L13.3089 3.43408C13.7651 2.97778 14.363 2.7497 14.961 2.7497ZM14.961 1.55176C14.0169 1.55176 13.1293 1.91941 12.4617 2.58702L1.91435 13.1344C0.536362 14.5124 0.536362 16.7547 1.91435 18.1328L12.4617 28.6801C13.1293 29.3476 14.0169 29.7153 14.961 29.7153C15.9051 29.7153 16.7926 29.3476 17.4601 28.6801L28.0076 18.1328C29.3856 16.7547 29.3856 14.5124 28.0076 13.1344L17.4602 2.58702C16.7926 1.91941 15.9051 1.55176 14.961 1.55176Z" fill="#D9D9FF"/>
<path d="M10.9191 16.8538L8.69047 15.7544C7.76756 15.299 7.76727 13.9831 8.69008 13.5274L10.9184 12.4273C11.2848 12.2463 11.5388 11.8966 11.5974 11.4922L11.9544 9.03289C12.1022 8.01443 13.3536 7.60762 14.0721 8.34443L15.8072 10.1237C16.0926 10.4163 16.5035 10.5498 16.9063 10.4806L19.3555 10.06C20.3698 9.88592 21.1435 10.9504 20.6647 11.8614L19.5089 14.0612C19.3188 14.4231 19.3186 14.8551 19.5089 15.2168L20.6658 17.4163C21.145 18.3271 20.3715 19.3918 19.3571 19.2181L16.9077 18.7984C16.5049 18.7294 16.094 18.863 15.8088 19.1557L14.0744 20.9356C13.3561 21.6726 12.1046 21.2662 11.9564 20.2478L11.5985 17.7886C11.5397 17.3841 11.2857 17.0347 10.9191 16.8538Z" fill="#2E2EBC"/>
<path d="M11.6466 17.1335L8.58882 15.625C8.03874 15.3536 8.03859 14.5693 8.58861 14.2977L11.6458 12.7885C11.8642 12.6807 12.0156 12.4721 12.0505 12.2311L12.5402 8.85695C12.6283 8.24993 13.3743 8.00735 13.8025 8.44647L16.1829 10.8876C16.3529 11.062 16.5978 11.1415 16.8379 11.1002L20.1983 10.5234C20.8028 10.4196 21.2639 11.054 20.9787 11.5969L19.3925 14.6151C19.2792 14.8307 19.2792 15.0883 19.3927 15.304L20.9797 18.3215C21.2652 18.8644 20.8044 19.499 20.1998 19.3954L16.8393 18.8197C16.5992 18.7786 16.3543 18.8581 16.1842 19.0326L13.8048 21.4747C13.3766 21.914 12.6307 21.6716 12.5424 21.0647L12.0515 17.6906C12.0165 17.4496 11.865 17.2412 11.6466 17.1335Z" fill="#FFCF00"/>
<mask id="mask1_164_8665" style="mask-type:luminance" maskUnits="userSpaceOnUse" x="0" y="0" width="30" height="31">
<path d="M0 0.555664H29.9485V30.5041H0V0.555664Z" fill="white"/>
</mask>
<g mask="url(#mask1_164_8665)">
<mask id="mask2_164_8665" style="mask-type:alpha" maskUnits="userSpaceOnUse" x="0" y="1" width="30" height="29">
<path d="M14.96 1.54346C14.0159 1.54346 13.1284 1.9111 12.4607 2.57872L1.91337 13.1261C0.535386 14.5041 0.535386 16.7464 1.91337 18.1245L12.4607 28.6718C13.1284 29.3393 14.0159 29.707 14.96 29.707C15.9041 29.707 16.7916 29.3393 17.4591 28.6718L28.0066 18.1245C29.3846 16.7464 29.3846 14.5041 28.0066 13.1261L17.4593 2.57872C16.7916 1.9111 15.9041 1.54346 14.96 1.54346Z" fill="#D9D9FF"/>
</mask>
<g mask="url(#mask2_164_8665)">
<g opacity="0.2">
<path d="M14.9271 -4.60154L19.8077 30.1262L15.2913 30.7609L10.4106 -3.9668L14.9271 -4.60154Z" fill="white"/>
<path d="M18.0031 -5.03252L22.8838 29.6952L20.679 30.0051L15.7983 -4.72266L18.0031 -5.03252Z" fill="white"/>
</g>
</g>
</g>
</g>
</g>
<defs>
<clipPath id="clip0_164_8665">
<rect width="29.9485" height="29.9485" fill="white" transform="translate(0 0.5625)"/>
</clipPath>
</defs>
</svg>
