<svg width="18" height="18" viewBox="0 0 18 18" fill="none" xmlns="http://www.w3.org/2000/svg">
<mask id="mask0_119_2046" style="mask-type:alpha" maskUnits="userSpaceOnUse" x="0" y="0" width="18" height="18">
<rect x="0.111328" y="0.111328" width="17.7778" height="17.7778" fill="#D9D9D9"/>
</mask>
<g mask="url(#mask0_119_2046)">
<path d="M9.00013 13.4446L5.88902 14.7779C5.39519 14.9878 4.92605 14.9477 4.48161 14.6576C4.03716 14.3674 3.81494 13.957 3.81494 13.4261V3.81498C3.81494 3.40757 3.96 3.0588 4.25013 2.76868C4.54025 2.47856 4.88902 2.3335 5.29642 2.3335H12.7038C13.1112 2.3335 13.46 2.47856 13.7501 2.76868C14.0403 3.0588 14.1853 3.40757 14.1853 3.81498V13.4261C14.1853 13.957 13.9631 14.3674 13.5186 14.6576C13.0742 14.9477 12.6051 14.9878 12.1112 14.7779L9.00013 13.4446ZM9.00013 11.815L12.7038 13.4076V3.81498H5.29642V13.4076L9.00013 11.815Z" fill="#3066BE"/>
</g>
</svg>
