<svg width="14" height="14" viewBox="0 0 14 14" fill="none" xmlns="http://www.w3.org/2000/svg">
<path d="M1.16071 9.85551C1.02987 9.85551 0.920535 9.8101 0.832697 9.71928C0.744859 9.62846 0.700633 9.51729 0.700019 9.38576C0.699404 9.25423 0.74363 9.14274 0.832697 9.05129C0.921764 8.95985 1.0311 8.91475 1.16071 8.916H6.70741C6.83763 8.916 6.94696 8.9611 7.03542 9.05129C7.12325 9.14148 7.16717 9.25328 7.16717 9.3867C7.16717 9.52011 7.12295 9.63159 7.03449 9.72116C6.94604 9.81073 6.83671 9.85551 6.70648 9.85551H1.16071ZM1.16071 6.09747C1.02987 6.09747 0.920535 6.05206 0.832697 5.96125C0.744859 5.87043 0.700633 5.75925 0.700019 5.62772C0.699404 5.49619 0.74363 5.3847 0.832697 5.29325C0.921764 5.20181 1.0311 5.15671 1.16071 5.15797H10.3395C10.4697 5.15797 10.579 5.20306 10.6675 5.29325C10.7559 5.38345 10.8002 5.49525 10.8002 5.62866C10.8002 5.76207 10.7559 5.87356 10.6675 5.96312C10.579 6.05269 10.4697 6.09747 10.3395 6.09747H1.16071ZM1.16071 2.33944C1.02987 2.33944 0.920535 2.29403 0.832697 2.20321C0.744859 2.11239 0.700633 2.00121 0.700019 1.86968C0.699404 1.73815 0.74363 1.62666 0.832697 1.53522C0.921764 1.44377 1.0311 1.39868 1.16071 1.39993H10.3395C10.4697 1.39993 10.579 1.44502 10.6675 1.53522C10.7559 1.62541 10.8002 1.73721 10.8002 1.87062C10.8002 2.00403 10.7559 2.11552 10.6675 2.20509C10.579 2.29465 10.4697 2.33944 10.3395 2.33944H1.16071ZM9.97105 12.5363C9.90594 12.5714 9.8439 12.5921 9.78493 12.5983C9.72596 12.6046 9.66392 12.5921 9.59881 12.5608C9.5337 12.5294 9.48395 12.4875 9.44955 12.4349C9.41515 12.3822 9.39795 12.3149 9.39795 12.2329V8.04547C9.39795 7.96593 9.41515 7.89609 9.44955 7.83596C9.48395 7.77584 9.5334 7.73043 9.59789 7.69974C9.66239 7.66904 9.72443 7.65652 9.78401 7.66216C9.84359 7.66779 9.90563 7.68815 9.97013 7.72322L13.1286 9.81175C13.1919 9.85058 13.2364 9.89913 13.2622 9.95737C13.288 10.0156 13.3006 10.077 13.3 10.1415C13.2994 10.206 13.2868 10.2668 13.2622 10.3238C13.2364 10.3808 13.1919 10.4284 13.1286 10.4666L9.97105 12.5363Z" fill="black"/>
</svg>
