<svg width="215" height="174" viewBox="0 0 215 174" fill="none" xmlns="http://www.w3.org/2000/svg">
<g clip-path="url(#clip0_164_9091)">
<path d="M186.279 56.418L192.315 80.8374L114.08 153.54L107.283 126.039L186.279 56.418Z" fill="#E56422"/>
<path d="M17.7903 115.583L23.5762 138.993L114.08 153.54L107.283 126.039L17.7903 115.583Z" fill="#E77422"/>
<path d="M185.419 52.9299L191.455 77.3493L113.222 150.053L106.424 122.549L185.419 52.9299Z" fill="#F3EFCF"/>
<path d="M16.9277 112.093L22.7147 135.507L113.218 150.054L106.421 122.55L16.9277 112.093Z" fill="#FEFAD8"/>
<path d="M20.4052 112.498L16.9277 112.093L22.7147 135.507L26.2313 136.07L20.4052 112.498Z" fill="#E24E22"/>
<path d="M16.9278 112.093L98.9659 45.0934L185.417 52.9304L107.039 125.05L16.9278 112.093Z" fill="#E77422"/>
<path opacity="0.3" d="M98.9659 45.0934L93.8926 49.2365C101.147 49.7847 108.39 50.6669 115.62 51.6225C126.486 53.054 137.365 54.6184 148.278 55.2436C150.754 55.3837 153.234 55.3805 155.706 55.5554C157.378 55.6711 159.291 55.8102 160.81 56.7137C164.06 58.6444 163.585 61.2069 161.542 63.9127C155.358 72.0883 149.14 80.436 141.461 87.0882C134.025 93.5316 126.988 100.454 119.836 107.24C115.142 111.693 109.886 116.066 103.667 117.849C97.0444 119.752 90.4131 117.775 83.7012 117.014C77.8288 116.35 71.931 116.645 66.0614 115.816C52.8339 113.947 40.0063 109.435 27.1963 105.387C26.7034 105.231 26.2067 105.075 25.7119 104.919L16.9278 112.093L107.039 125.052L185.417 52.9304L98.9659 45.0934Z" fill="#E77422"/>
<path d="M108.445 130.06C108.435 130.139 108.382 130.199 108.317 130.215C108.295 130.221 108.274 130.217 108.252 130.214L21.4942 116.919L21.3997 116.537C21.422 116.531 21.4426 116.535 21.465 116.538L108.288 129.849C108.388 129.864 108.457 129.956 108.445 130.06Z" fill="#FBE4CD"/>
<path d="M109.664 134.992C109.654 135.071 109.601 135.13 109.536 135.146C109.514 135.152 109.495 135.157 109.473 135.154L22.7134 121.852L22.6184 121.468C22.6407 121.462 22.6608 121.464 22.6833 121.467L109.507 134.78C109.607 134.793 109.675 134.885 109.664 134.992Z" fill="#FBE4CD"/>
<path d="M110.883 139.927C110.872 140 110.821 140.067 110.756 140.084C110.734 140.089 110.713 140.086 110.691 140.083L23.9312 126.779L23.8386 126.405C23.861 126.4 23.8811 126.401 23.9035 126.404L110.724 139.707C110.825 139.724 110.895 139.822 110.883 139.927Z" fill="#FBE4CD"/>
<path d="M112.101 144.854C112.092 144.937 112.039 144.995 111.974 145.011C111.952 145.016 111.931 145.013 111.909 145.012L25.1509 131.715L25.0564 131.332C25.0787 131.327 25.0993 131.33 25.1218 131.333L111.945 144.644C112.043 144.652 112.113 144.751 112.101 144.854Z" fill="#FBE4CD"/>
<path d="M186.572 57.5948L186.668 57.9832L108.559 130.202C108.543 130.225 108.518 130.238 108.49 130.245C108.429 130.26 108.359 130.239 108.312 130.18C108.306 130.171 108.303 130.157 108.301 130.149L108.275 130.045C108.268 130.002 108.287 129.949 108.33 129.915L186.491 57.6359C186.516 57.617 186.542 57.6021 186.572 57.5948Z" fill="#F0DEC6"/>
<path d="M187.82 62.642L187.916 63.0325L109.808 135.258C109.79 135.271 109.766 135.285 109.738 135.292C109.676 135.307 109.606 135.284 109.561 135.234C109.556 135.226 109.552 135.212 109.55 135.202C109.526 135.17 109.51 135.138 109.525 135.1C109.515 135.047 109.534 134.996 109.578 134.964L187.741 62.6848C187.764 62.6643 187.79 62.6494 187.82 62.642Z" fill="#F0DEC6"/>
<path d="M189.038 67.5711L189.136 67.9675L111.027 140.189C111.01 140.208 110.986 140.22 110.958 140.227C110.896 140.242 110.826 140.221 110.78 140.163C110.774 140.155 110.771 140.141 110.769 140.133L110.743 140.029C110.736 139.986 110.755 139.933 110.796 139.893L188.958 67.6163C188.982 67.5913 189.008 67.5784 189.038 67.5711Z" fill="#F0DEC6"/>
<path d="M190.257 72.5022L190.355 72.8986L112.245 145.118C112.229 145.139 112.204 145.151 112.176 145.158C112.115 145.173 112.045 145.152 111.999 145.094C111.993 145.087 111.989 145.071 111.987 145.065L111.962 144.961C111.954 144.916 111.973 144.864 112.016 144.828L190.176 72.5434C190.201 72.5225 190.227 72.5096 190.257 72.5022Z" fill="#F0DEC6"/>
<path opacity="0.6" d="M96.2772 140.662C90.5951 139.753 84.9146 138.882 79.2172 138.111C68.6735 136.686 58.1285 135.441 47.5426 134.542C41.5706 134.034 34.1236 133.903 29.1952 129.506C26.2481 126.876 25.4001 123.285 24.6346 119.453C24.1985 117.272 23.947 115.104 23.8818 112.907L16.9277 112.093L22.7147 135.507L113.218 150.054L111.549 143.299C106.435 142.585 101.384 141.482 96.2772 140.662Z" fill="#E0E0E0"/>
<path opacity="0.4" d="M180.722 57.0692C181.765 59.6093 182.662 62.2022 183.216 64.9037C184.095 69.2114 183.997 73.4354 181.652 77.1082C178.976 81.3001 175.193 84.315 171.52 87.4383C167.541 90.8223 163.771 94.5158 159.926 98.0729C156.021 101.685 152.133 105.35 148.606 109.387C145.23 113.253 142.324 117.528 138.73 121.184C135.155 124.825 131.309 128.142 127.42 131.402C123.747 134.483 120.208 138.119 116.176 140.673C114.666 141.63 113.107 142.379 111.441 142.839L113.224 150.053L191.457 77.3508L185.421 52.9294L180.722 57.0692Z" fill="#E0E0E0"/>
<path opacity="0.2" d="M98.2295 51.7761C102.673 51.2366 107.119 54.1166 111.449 54.9732C119.329 56.5352 127.303 55.754 135.206 56.8174C137.413 57.1174 139.606 57.5908 141.731 58.3468C145.265 59.604 152.792 61.5527 150.986 67.0233C150.419 68.7353 149.306 70.4083 148.232 71.7868C145.84 74.8445 143.115 77.6381 140.584 80.5685C137.932 83.6289 135.271 86.6892 132.402 89.5226C128.191 93.6842 123.779 97.5469 119.18 101.22C116.087 103.69 113.22 106.387 109.723 108.244C101.912 112.386 92.9264 110.402 84.4634 110.149C79.4844 109.999 74.5017 110.017 69.521 109.708C66.6655 109.534 63.8103 109.25 60.9776 108.777C57.6268 108.214 54.2798 107.586 50.907 107.253C48.0312 106.966 41.8456 107.519 40.2378 104.059C38.5447 100.413 44.2258 96.3878 46.2447 94.5908C50.0546 91.2019 54.1475 88.1828 58.1965 85.1299C60.4891 83.4012 62.7691 81.646 64.9883 79.8122C71.1338 74.7329 76.9444 69.1457 82.9239 63.8504C84.8331 62.1612 86.6142 60.3211 88.4845 58.5863C89.9343 57.2359 91.5845 56.1928 93.215 55.1101C94.8649 54.0097 96.0238 52.1215 98.093 51.7992C98.1396 51.7877 98.1857 51.7826 98.2295 51.7761Z" fill="#FBFBFB"/>
<path d="M151.648 52.4902C152.688 52.5179 153.727 52.5649 154.764 52.6209C155.801 52.6789 156.841 52.7151 157.876 52.7865L164.097 53.2225C166.168 53.4011 168.241 53.5599 170.31 53.7709C172.381 53.9665 174.45 54.169 176.519 54.3989L176.523 54.4C176.909 54.4427 177.197 54.8092 177.172 55.217C177.16 55.409 177.077 55.5761 176.956 55.6952C175.788 56.8422 174.608 57.977 173.421 59.1032C172.245 60.2415 171.043 61.35 169.842 62.4584C168.638 63.5633 167.453 64.6931 166.231 65.7792C165.007 66.8613 163.8 67.9647 162.552 69.0209C162.492 69.0719 162.404 69.0597 162.354 68.9934C162.307 68.9327 162.312 68.8487 162.358 68.7948C163.444 67.5555 164.576 66.3645 165.688 65.1506C166.802 63.9428 167.955 62.776 169.087 61.587C170.223 60.4035 171.357 59.216 172.517 58.0584C173.666 56.8886 174.823 55.7294 175.992 54.5824L176.429 55.8806C174.359 55.6806 172.29 55.4547 170.222 55.2223C168.153 55.0028 166.088 54.7317 164.021 54.4819L157.826 53.6295C156.793 53.4875 155.761 53.3091 154.731 53.1516C153.699 52.9946 152.668 52.8267 151.638 52.6394C151.598 52.6321 151.573 52.5918 151.579 52.552C151.584 52.5168 151.615 52.49 151.648 52.4902Z" fill="#FBFBFB"/>
<path d="M25.7418 109.842C25.7418 109.842 26.9393 109.797 28.7208 109.901C30.5031 109.991 32.8683 110.227 35.2235 110.558C37.5781 110.902 39.9232 111.345 41.6731 111.76C43.4247 112.166 44.5816 112.547 44.5816 112.547C44.6571 112.573 44.7017 112.658 44.6804 112.739C44.6626 112.803 44.6095 112.844 44.5512 112.848C44.5512 112.848 43.353 112.883 41.5741 112.766C39.7921 112.66 37.4286 112.407 35.0763 112.056C32.7234 111.694 30.3812 111.232 28.6316 110.802C26.8831 110.385 25.7251 109.991 25.7251 109.991C25.6867 109.979 25.666 109.936 25.6757 109.895C25.6855 109.863 25.7123 109.843 25.7418 109.842Z" fill="#FBFBFB"/>
<path d="M17.3296 79.0277L24.5795 103.111L128.744 125.092L120.581 97.9698L17.3296 79.0277Z" fill="#6EA035"/>
<path d="M192.086 42.7422L199.035 65.8311L128.744 125.092L120.581 97.9697L192.086 42.7422Z" fill="#79B03A"/>
<path d="M16.2959 75.5889L23.5434 99.6704L127.706 121.652L119.544 94.5319L16.2959 75.5889Z" fill="#F3EFCF"/>
<path d="M191.05 39.304L197.997 62.3913L127.708 121.652L119.546 94.5314L191.05 39.304Z" fill="#FEFAD8"/>
<path d="M188.27 41.4504L191.05 39.3039L197.997 62.3912L195.266 64.6956L188.27 41.4504Z" fill="#6A9A33"/>
<path d="M191.05 39.3039L86.5213 24.1828L16.2955 75.5868L120.287 96.9951L191.05 39.3039Z" fill="#79B03A"/>
<path opacity="0.3" d="M86.5213 24.1828L92.9858 25.1174C87.0366 29.3367 81.2665 33.841 75.5461 38.3947C66.9475 45.2402 58.4056 52.2034 49.3518 58.3819C47.3035 59.7803 45.1729 61.0611 43.1376 62.4882C41.76 63.4511 40.1878 64.562 39.3423 66.12C37.5349 69.4601 39.2483 71.4138 42.3796 72.6792C51.8501 76.5056 61.4343 80.4569 71.4146 82.1986C81.0762 83.8895 90.6422 86.1925 100.234 88.3212C106.532 89.7174 113.27 90.7566 119.516 89.0747C126.171 87.2856 130.857 82.161 136.23 78.0375C140.934 74.4318 146.144 71.6421 150.763 67.8962C161.166 59.4574 169.885 48.9516 178.818 38.8559C179.164 38.4666 179.508 38.0757 179.854 37.6863L191.047 39.3048L120.287 96.9951L16.2955 75.5868L86.5213 24.1828Z" fill="#79B03A"/>
<path d="M121.628 102.023C121.678 102.088 121.753 102.112 121.821 102.093C121.84 102.088 121.858 102.075 121.876 102.06L189.586 45.8054L189.471 45.43C189.451 45.4351 189.435 45.4497 189.416 45.4628L121.653 101.762C121.577 101.824 121.566 101.939 121.628 102.023Z" fill="#FBE4CD"/>
<path d="M123.091 106.886C123.142 106.95 123.213 106.974 123.281 106.953C123.303 106.946 123.322 106.941 123.34 106.928L191.049 50.6697L190.934 50.2924C190.914 50.2995 190.897 50.3121 190.879 50.3271L123.116 106.622C123.04 106.688 123.03 106.801 123.091 106.886Z" fill="#FBE4CD"/>
<path d="M124.556 111.752C124.605 111.807 124.681 111.84 124.748 111.823C124.769 111.816 124.784 111.802 124.804 111.788L192.513 55.5296L192.4 55.1603C192.379 55.1654 192.363 55.18 192.347 55.1946L124.581 111.484C124.504 111.548 124.496 111.669 124.556 111.752Z" fill="#FBE4CD"/>
<path d="M126.018 116.614C126.07 116.68 126.143 116.704 126.209 116.684C126.23 116.679 126.248 116.664 126.264 116.649L193.976 60.3981L193.863 60.0203C193.841 60.0278 193.825 60.0424 193.807 60.0555L126.045 116.353C125.967 116.408 125.958 116.531 126.018 116.614Z" fill="#FBE4CD"/>
<path d="M17.6798 80.1882L17.7967 80.5735L121.602 102.204C121.63 102.212 121.655 102.212 121.685 102.203C121.745 102.186 121.795 102.131 121.802 102.055C121.808 102.045 121.802 102.031 121.801 102.025L121.769 101.923C121.749 101.879 121.71 101.844 121.655 101.836L17.7661 80.186C17.7352 80.1808 17.7053 80.1797 17.6798 80.1882Z" fill="#F0DEC6"/>
<path d="M19.1787 85.1669L19.2957 85.5522L123.105 107.19C123.127 107.191 123.154 107.191 123.184 107.184C123.244 107.162 123.294 107.108 123.302 107.04C123.308 107.032 123.303 107.016 123.301 107.008C123.304 106.967 123.301 106.929 123.27 106.907C123.248 106.86 123.209 106.822 123.154 106.815L19.2627 85.1631C19.2337 85.1575 19.2066 85.16 19.1787 85.1669Z" fill="#F0DEC6"/>
<path d="M20.6407 90.0272L20.7592 90.4186L124.567 112.051C124.591 112.06 124.62 112.059 124.646 112.05C124.708 112.031 124.758 111.976 124.765 111.902C124.769 111.892 124.765 111.876 124.763 111.87L124.731 111.766C124.71 111.726 124.671 111.691 124.616 111.675L20.7289 90.0245C20.6957 90.0179 20.6681 90.0183 20.6407 90.0272Z" fill="#F0DEC6"/>
<path d="M22.1031 94.8897L22.2221 95.283L126.031 116.913C126.055 116.922 126.083 116.923 126.11 116.912C126.173 116.895 126.222 116.838 126.227 116.764C126.233 116.754 126.229 116.738 126.227 116.732L126.194 116.63C126.176 116.59 126.136 116.553 126.082 116.545L22.1913 94.887C22.16 94.8799 22.1305 94.8808 22.1031 94.8897Z" fill="#F0DEC6"/>
<path opacity="0.6" d="M137.473 104.835C141.886 101.117 146.319 97.4336 150.816 93.8281C159.145 87.1533 167.566 80.6383 176.192 74.3979C181.062 70.8722 187.387 66.9106 189.378 60.5892C190.573 56.8078 189.472 53.29 188.177 49.6013C187.444 47.5032 186.553 45.514 185.491 43.5925L191.049 39.2999L197.998 62.3868L127.708 121.652L125.704 114.99C129.731 111.737 133.505 108.176 137.473 104.835Z" fill="#E0E0E0"/>
<path opacity="0.4" d="M22.4325 76.7149C22.8331 79.4307 23.3795 82.1211 24.2801 84.726C25.7187 88.8763 27.9539 92.4536 31.8347 94.3943C36.2634 96.6095 41.0473 97.2413 45.7899 98.0257C50.9299 98.8755 56.0433 100.097 61.1555 101.162C66.3473 102.245 71.5487 103.384 76.6316 105.025C81.4982 106.599 86.1699 108.767 91.1147 110.049C96.0402 111.326 101.029 112.186 106.023 112.976C110.745 113.721 115.637 115.014 120.392 115.124C122.18 115.164 123.897 115.006 125.564 114.536L127.704 121.651L23.5435 99.6704L16.2959 75.5889L22.4325 76.7149Z" fill="#E0E0E0"/>
<path opacity="0.2" d="M90.5552 29.5398C86.4654 31.3728 84.1124 36.1415 80.8337 39.1144C74.8638 44.5285 67.6239 47.977 61.3792 52.9747C59.6363 54.3699 57.9968 55.9117 56.5558 57.6572C54.1597 60.565 48.6881 66.1256 53.0245 69.8932C54.3815 71.0683 56.189 71.9323 57.811 72.5575C61.4236 73.9483 65.182 74.9377 68.8452 76.1418C72.6806 77.4033 76.5229 78.6524 80.4283 79.6054C86.1614 81.0011 91.9138 82.0352 97.7308 82.8111C101.645 83.3351 105.479 84.1697 109.427 83.9523C118.238 83.472 124.944 77.1263 132.078 72.5332C136.278 69.832 140.563 67.271 144.683 64.4342C147.044 62.8075 149.351 61.0901 151.545 59.218C154.137 57.0055 156.689 54.7388 159.414 52.7057C161.736 50.9742 167.328 48.2515 166.947 44.4475C166.546 40.4444 159.621 39.9233 156.969 39.4251C151.975 38.4861 146.926 38.0092 141.895 37.4809C139.046 37.1823 136.197 36.8539 133.358 36.4255C125.501 35.2425 117.664 33.4468 109.834 31.9915C107.337 31.5272 104.873 30.8724 102.386 30.3442C100.452 29.9383 98.5055 29.8926 96.5537 29.8035C94.5795 29.7115 92.6233 28.6931 90.6814 29.4832C90.6406 29.5017 90.5961 29.5213 90.5552 29.5398Z" fill="#FBFBFB"/>
<path d="M45.1459 57.8832C44.3575 58.5773 43.5586 59.2528 42.7526 59.9236C41.9462 60.5924 41.154 61.2789 40.3398 61.9326L35.4555 65.8654C33.8091 67.1475 32.1732 68.4483 30.5092 69.7072C28.8514 70.9752 27.1907 72.2397 25.5162 73.4799L25.2323 72.1395C26.8178 72.5209 28.4017 72.9197 29.9838 73.3274C31.5686 73.7218 33.145 74.1543 34.7227 74.5843C36.3001 75.0209 37.8813 75.4246 39.4535 75.8879C41.0243 76.3537 42.6003 76.7927 44.166 77.2937C44.241 77.3176 44.2856 77.4022 44.2657 77.4815C44.2467 77.5563 44.1819 77.5978 44.1103 77.5879C42.5031 77.3265 40.9063 77.0032 39.3042 76.7066C37.703 76.4055 36.1113 76.0469 34.5158 75.721C32.9207 75.3887 31.3238 75.0569 29.7357 74.6889C28.1436 74.3367 26.5541 73.9712 24.9667 73.5902C24.5886 73.4988 24.3398 73.0994 24.4126 72.699C24.4474 72.5119 24.5451 72.3561 24.6782 72.2552L24.6833 72.2518C26.3416 70.9858 28.0152 69.7416 29.6921 68.5028C31.3623 67.253 33.0611 66.0472 34.7494 64.8226L39.8668 61.2338C40.7182 60.6346 41.5933 60.0678 42.4537 59.4812C43.3169 58.8982 44.1835 58.3208 45.062 57.7595C45.0963 57.7383 45.1389 57.7511 45.1595 57.7864C45.1777 57.8201 45.1717 57.8599 45.1459 57.8832Z" fill="#FBFBFB"/>
<path d="M182.429 42.0465C182.429 42.0465 181.637 42.9796 180.347 44.2436C179.064 45.5167 177.289 47.1239 175.454 48.6503C173.611 50.17 171.711 51.6063 170.236 52.6186C168.768 53.6379 167.721 54.2281 167.721 54.2281C167.653 54.2661 167.565 54.2369 167.527 54.1614C167.496 54.101 167.504 54.031 167.544 53.985C167.544 53.985 168.343 53.059 169.641 51.8076C170.933 50.5471 172.72 48.9541 174.567 47.444C176.419 45.9409 178.332 44.5188 179.814 43.5171C181.291 42.5084 182.342 41.9257 182.342 41.9257C182.377 41.9065 182.42 41.9213 182.439 41.9591C182.452 41.9877 182.447 42.023 182.429 42.0465Z" fill="#FBFBFB"/>
</g>
<defs>
<clipPath id="clip0_164_9091">
<rect width="187.887" height="132.191" fill="white" transform="translate(0.45752 45.4539) rotate(-13.8827)"/>
</clipPath>
</defs>
</svg>
