<svg width="20" height="20" viewBox="0 0 20 20" fill="none" xmlns="http://www.w3.org/2000/svg">
<path d="M17.5462 9.99982H15.8796C15.6585 9.99982 15.4466 10.0876 15.2903 10.2439C15.134 10.4002 15.0462 10.6121 15.0462 10.8332C15.0462 11.0542 15.134 11.2661 15.2903 11.4224C15.4466 11.5787 15.6585 11.6665 15.8796 11.6665V13.3332H14.8912C14.9902 13.0663 15.0424 12.7844 15.0454 12.4998C15.0454 11.9495 14.8638 11.4146 14.5287 10.978C14.1937 10.5414 13.724 10.2276 13.1924 10.0851C12.6609 9.94268 12.0972 9.97962 11.5887 10.1902C11.0803 10.4008 10.6556 10.7732 10.3804 11.2498C10.3248 11.3446 10.2885 11.4495 10.2736 11.5584C10.2588 11.6673 10.2656 11.778 10.2936 11.8843C10.3217 11.9905 10.3706 12.0902 10.4373 12.1775C10.5041 12.2648 10.5874 12.338 10.6826 12.393C10.7778 12.4479 10.8829 12.4835 10.9919 12.4977C11.1009 12.5118 11.2116 12.5043 11.3176 12.4755C11.4237 12.4467 11.523 12.3972 11.6099 12.3299C11.6967 12.2625 11.7694 12.1787 11.8237 12.0832C11.8969 11.9565 12.0021 11.8513 12.1287 11.7781C12.2554 11.705 12.3991 11.6665 12.5454 11.6665C12.7664 11.6665 12.9784 11.7543 13.1346 11.9106C13.2909 12.0668 13.3787 12.2788 13.3787 12.4998C13.3787 12.7208 13.2909 12.9328 13.1346 13.0891C12.9784 13.2454 12.7664 13.3332 12.5454 13.3332C12.3244 13.3332 12.1124 13.421 11.9561 13.5772C11.7999 13.7335 11.7121 13.9455 11.7121 14.1665C11.7121 14.3875 11.7999 14.5995 11.9561 14.7557C12.1124 14.912 12.3244 14.9998 12.5454 14.9998C12.7664 14.9998 12.9784 15.0876 13.1346 15.2439C13.2909 15.4002 13.3787 15.6121 13.3787 15.8332C13.3787 16.0542 13.2909 16.2661 13.1346 16.4224C12.9784 16.5787 12.7664 16.6665 12.5454 16.6665C12.3991 16.6665 12.2554 16.628 12.1287 16.5548C12.0021 16.4817 11.8969 16.3765 11.8237 16.2498C11.7694 16.1543 11.6967 16.0704 11.6099 16.0031C11.523 15.9358 11.4237 15.8863 11.3176 15.8575C11.2116 15.8287 11.1009 15.8212 10.9919 15.8353C10.8829 15.8495 10.7778 15.8851 10.6826 15.94C10.5874 15.995 10.5041 16.0682 10.4373 16.1555C10.3706 16.2428 10.3217 16.3424 10.2936 16.4487C10.2656 16.5549 10.2588 16.6657 10.2736 16.7746C10.2885 16.8835 10.3248 16.9883 10.3804 17.0832C10.6556 17.5597 11.0803 17.9322 11.5887 18.1428C12.0972 18.3534 12.6609 18.3903 13.1924 18.2479C13.724 18.1054 14.1937 17.7916 14.5287 17.355C14.8638 16.9184 15.0454 16.3835 15.0454 15.8332C15.0424 15.5486 14.9902 15.2666 14.8912 14.9998H15.8787V17.4998C15.8787 17.7208 15.9665 17.9328 16.1228 18.0891C16.2791 18.2454 16.491 18.3332 16.7121 18.3332C16.9331 18.3332 17.145 18.2454 17.3013 18.0891C17.4576 17.9328 17.5454 17.7208 17.5454 17.4998V11.6665C17.7664 11.6665 17.9784 11.5787 18.1346 11.4224C18.2909 11.2661 18.3787 11.0542 18.3787 10.8332C18.3787 10.6121 18.2909 10.4002 18.1346 10.2439C17.9784 10.0876 17.7672 9.99982 17.5462 9.99982ZM7.57039 9.36899C7.59634 9.47582 7.64318 9.57645 7.7082 9.6651C7.77321 9.75375 7.85513 9.82866 7.94922 9.88551C8.04332 9.94236 8.14773 9.98004 8.25645 9.99636C8.36516 10.0127 8.47604 10.0073 8.58268 9.98061C8.68932 9.9539 8.78962 9.90635 8.8778 9.8407C8.96598 9.77505 9.0403 9.6926 9.09648 9.59811C9.15266 9.50361 9.18959 9.39893 9.20513 9.2901C9.22068 9.18127 9.21453 9.07043 9.18706 8.96399L7.72289 3.10565C7.62047 2.69414 7.38332 2.32872 7.0492 2.06757C6.71509 1.80642 6.30321 1.66455 5.87914 1.66455C5.45507 1.66455 5.04319 1.80642 4.70908 2.06757C4.37496 2.32872 4.13781 2.69414 4.03539 3.10565L2.57039 8.96399C2.54292 9.07043 2.53677 9.18127 2.55232 9.2901C2.56786 9.39893 2.60479 9.50361 2.66097 9.59811C2.71715 9.6926 2.79147 9.77505 2.87965 9.8407C2.96783 9.90635 3.06813 9.9539 3.17477 9.98061C3.28141 10.0073 3.39229 10.0127 3.501 9.99636C3.60972 9.98004 3.71413 9.94236 3.80823 9.88551C3.90232 9.82866 3.98424 9.75375 4.04925 9.6651C4.11427 9.57645 4.16111 9.47582 4.18706 9.36899L4.65372 7.49982H7.10372L7.57039 9.36899ZM5.07122 5.83315L5.65206 3.51065C5.66958 3.4645 5.70072 3.42476 5.74135 3.39672C5.78199 3.36868 5.83019 3.35366 5.87956 3.35366C5.92893 3.35366 5.97713 3.36868 6.01776 3.39672C6.0584 3.42476 6.08954 3.4645 6.10706 3.51065L6.68789 5.83315H5.07122ZM11.7129 5.83315H12.5462C12.7672 5.83337 12.979 5.92124 13.1352 6.07748C13.2915 6.23371 13.3793 6.44554 13.3796 6.66649V7.49982C13.3796 7.72083 13.4674 7.9328 13.6236 8.08908C13.7799 8.24536 13.9919 8.33315 14.2129 8.33315C14.4339 8.33315 14.6459 8.24536 14.8021 8.08908C14.9584 7.9328 15.0462 7.72083 15.0462 7.49982V6.66649C15.0456 6.00365 14.782 5.36815 14.3133 4.89945C13.8446 4.43075 13.2091 4.16715 12.5462 4.16649H11.7129C11.4919 4.16649 11.2799 4.25429 11.1236 4.41057C10.9674 4.56685 10.8796 4.77881 10.8796 4.99982C10.8796 5.22083 10.9674 5.4328 11.1236 5.58908C11.2799 5.74536 11.4919 5.83315 11.7129 5.83315ZM8.37956 13.3332H7.54622C7.32528 13.3329 7.11345 13.2451 6.95721 13.0888C6.80098 12.9326 6.71311 12.7208 6.71289 12.4998V11.6665C6.71289 11.4455 6.62509 11.2335 6.46881 11.0772C6.31253 10.921 6.10057 10.8332 5.87956 10.8332C5.65854 10.8332 5.44658 10.921 5.2903 11.0772C5.13402 11.2335 5.04623 11.4455 5.04623 11.6665V12.4998C5.04689 13.1627 5.31049 13.7982 5.77919 14.2669C6.24789 14.7356 6.88339 14.9992 7.54622 14.9998H8.37956C8.60057 14.9998 8.81253 14.912 8.96881 14.7557C9.12509 14.5995 9.21289 14.3875 9.21289 14.1665C9.21289 13.9455 9.12509 13.7335 8.96881 13.5772C8.81253 13.421 8.60057 13.3332 8.37956 13.3332Z" fill="#3066BE"/>
</svg>
