<svg width="16" height="16" viewBox="0 0 16 16" fill="none" xmlns="http://www.w3.org/2000/svg">
<path d="M14.75 4.75H1.25C1.1837 4.75 1.12011 4.72366 1.07322 4.67678C1.02634 4.62989 1 4.5663 1 4.5C1 4.4337 1.02634 4.37011 1.07322 4.32322C1.12011 4.27634 1.1837 4.25 1.25 4.25H14.75C14.8163 4.25 14.8799 4.27634 14.9268 4.32322C14.9737 4.37011 15 4.4337 15 4.5C15 4.5663 14.9737 4.62989 14.9268 4.67678C14.8799 4.72366 14.8163 4.75 14.75 4.75ZM12.25 8.25H3.75C3.6837 8.25 3.62011 8.22366 3.57322 8.17678C3.52634 8.12989 3.5 8.0663 3.5 8C3.5 7.9337 3.52634 7.87011 3.57322 7.82322C3.62011 7.77634 3.6837 7.75 3.75 7.75H12.25C12.3163 7.75 12.3799 7.77634 12.4268 7.82322C12.4737 7.87011 12.5 7.9337 12.5 8C12.5 8.0663 12.4737 8.12989 12.4268 8.17678C12.3799 8.22366 12.3163 8.25 12.25 8.25ZM9.25 11.75H6.75C6.6837 11.75 6.62011 11.7237 6.57322 11.6768C6.52634 11.6299 6.5 11.5663 6.5 11.5C6.5 11.4337 6.52634 11.3701 6.57322 11.3232C6.62011 11.2763 6.6837 11.25 6.75 11.25H9.25C9.3163 11.25 9.37989 11.2763 9.42678 11.3232C9.47366 11.3701 9.5 11.4337 9.5 11.5C9.5 11.5663 9.47366 11.6299 9.42678 11.6768C9.37989 11.7237 9.3163 11.75 9.25 11.75Z" fill="#3066BE" stroke="#3066BE"/>
</svg>
