<svg width="20" height="20" viewBox="0 0 20 20" fill="none" xmlns="http://www.w3.org/2000/svg">
<g clip-path="url(#clip0_119_2634)">
<path d="M3.61114 1.11133C2.9481 1.11133 2.31221 1.37472 1.84337 1.84356C1.37453 2.3124 1.11114 2.94829 1.11114 3.61133V11.9447C1.11114 12.6077 1.37453 13.2436 1.84337 13.7124C2.31221 14.1813 2.9481 14.4447 3.61114 14.4447H16.3889C16.7172 14.4447 17.0423 14.38 17.3456 14.2544C17.6489 14.1287 17.9245 13.9446 18.1567 13.7124C18.3888 13.4803 18.573 13.2047 18.6986 12.9014C18.8243 12.5981 18.8889 12.273 18.8889 11.9447V3.61133C18.8889 3.28302 18.8243 2.95793 18.6986 2.65462C18.573 2.35131 18.3888 2.07571 18.1567 1.84356C17.9245 1.61141 17.6489 1.42727 17.3456 1.30163C17.0423 1.17599 16.7172 1.11133 16.3889 1.11133H3.61114ZM2.7778 3.61133C2.7778 3.39031 2.8656 3.17835 3.02188 3.02207C3.17816 2.86579 3.39012 2.77799 3.61114 2.77799H16.3889C16.6099 2.77799 16.8219 2.86579 16.9782 3.02207C17.1345 3.17835 17.2222 3.39031 17.2222 3.61133V11.9447C17.2222 12.1657 17.1345 12.3776 16.9782 12.5339C16.8219 12.6902 16.6099 12.778 16.3889 12.778H3.61114C3.39012 12.778 3.17816 12.6902 3.02188 12.5339C2.8656 12.3776 2.7778 12.1657 2.7778 11.9447V3.61133ZM-0.277751 16.1113C-0.498764 16.1113 -0.710726 16.1991 -0.867006 16.3554C-1.02329 16.5117 -1.11108 16.7236 -1.11108 16.9447C-1.11108 17.1657 -1.02329 17.3776 -0.867006 17.5339C-0.710726 17.6902 -0.498764 17.778 -0.277751 17.778H20.2778C20.4988 17.778 20.7108 17.6902 20.8671 17.5339C21.0233 17.3776 21.1111 17.1657 21.1111 16.9447C21.1111 16.7236 21.0233 16.5117 20.8671 16.3554C20.7108 16.1991 20.4988 16.1113 20.2778 16.1113H-0.277751Z" fill="#3066BE"/>
</g>
<defs>
<clipPath id="clip0_119_2634">
<rect width="20" height="20" fill="white"/>
</clipPath>
</defs>
</svg>
