<svg width="147" height="238" viewBox="0 0 147 238" fill="none" xmlns="http://www.w3.org/2000/svg">
<g clip-path="url(#clip0_164_8929)">
<path d="M135.937 4.87467C142.285 2.89026 146.961 2.46084 147.008 2.45434L146.687 0.00146484C146.484 0.0209837 141.582 0.469918 134.889 2.56494L135.937 4.87467Z" fill="#65CEFE"/>
<path d="M31.4235 224.703C38.2805 221.814 44.7466 218.691 50.6263 215.431L52.2682 217.481C46.2947 220.799 39.727 223.967 32.7605 226.902L31.4235 224.703ZM68.1011 204.117C73.6681 199.881 78.6877 195.32 83.0036 190.558L85.3649 192.041C80.9395 196.927 75.8026 201.599 70.0949 205.938L68.1011 204.117ZM94.4503 174.877C95.9046 172.34 97.2416 169.698 98.4222 167.018C99.7592 163.986 100.948 160.817 101.948 157.603L104.818 158.221C103.794 161.52 102.582 164.767 101.206 167.877C99.9938 170.622 98.6177 173.335 97.1321 175.944L94.4503 174.877ZM106.413 120.979L109.376 120.921C109.556 127.616 109.322 133.751 108.649 139.678L105.701 139.444C106.358 133.615 106.593 127.577 106.413 120.979ZM102.199 84.0367L105.131 83.6853C106.374 90.8943 107.257 96.789 107.914 102.228L104.966 102.475C104.31 97.0753 103.434 91.2196 102.199 84.0367ZM98.8835 65.4872C97.7107 58.8443 97.3354 52.5527 97.7654 46.7817L100.721 46.9378C100.299 52.5397 100.674 58.6621 101.816 65.1229L101.839 65.266L98.907 65.6043L98.8835 65.4872ZM102.605 28.2583C105.584 22.1944 109.916 16.9048 115.459 12.5391L117.492 14.3283C112.254 18.4468 108.164 23.4501 105.342 29.1887L102.605 28.2583Z" fill="#65CEFE"/>
<path d="M0.969523 238.001C4.78507 236.902 8.53806 235.744 12.1347 234.566L11.0479 232.276C7.49035 233.441 3.76863 234.586 0 235.679L0.969523 238.001Z" fill="#65CEFE"/>
</g>
<defs>
<clipPath id="clip0_164_8929">
<rect width="147" height="238" fill="white" transform="translate(0 0.00146484)"/>
</clipPath>
</defs>
</svg>
