<svg width="31" height="31" viewBox="0 0 31 31" fill="none" xmlns="http://www.w3.org/2000/svg">
<g clip-path="url(#clip0_164_8809)">
<mask id="mask0_164_8809" style="mask-type:luminance" maskUnits="userSpaceOnUse" x="0" y="0" width="31" height="31">
<path d="M30.0202 0.557617H0.0717773V30.5061H30.0202V0.557617Z" fill="white"/>
</mask>
<g mask="url(#mask0_164_8809)">
<path d="M13.3449 27.7881L2.79763 17.2407C1.88516 16.3282 1.88516 14.8488 2.79763 13.9363L13.3449 3.38894C14.2573 2.47647 15.7368 2.47647 16.6493 3.38894L27.1965 13.9363C28.109 14.8488 28.109 16.3282 27.1965 17.2407L16.6493 27.7881C15.7368 28.7005 14.2573 28.7005 13.3449 27.7881Z" fill="#B4B4B4"/>
<path d="M14.9971 3.90253C15.3013 3.90253 15.5871 4.021 15.8021 4.23603L26.3496 14.7834C26.7934 15.2272 26.7934 15.9496 26.3496 16.3935L15.8021 26.9409C15.5871 27.1559 15.3013 27.2743 14.9971 27.2743C14.6929 27.2743 14.4071 27.1559 14.1921 26.9409L3.64461 16.3935C3.20077 15.9496 3.20077 15.2272 3.64461 14.7834L14.1921 4.23603C14.4071 4.021 14.6929 3.90253 14.9971 3.90253ZM14.9971 2.70459C14.3991 2.70459 13.8012 2.93268 13.345 3.38897L2.79754 13.9363C1.88519 14.8488 1.88519 16.3281 2.79754 17.2406L13.345 27.788C13.8012 28.2442 14.3991 28.4722 14.9971 28.4722C15.5951 28.4722 16.193 28.2442 16.6492 27.788L27.1967 17.2406C28.109 16.3281 28.109 14.8488 27.1967 13.9363L16.6492 3.38897C16.193 2.93268 15.5951 2.70459 14.9971 2.70459Z" fill="#909090"/>
<path d="M15.0323 2.74872C15.6303 2.74872 16.2282 2.97681 16.6843 3.4331L27.2318 13.9805C28.1442 14.8929 28.1442 16.3723 27.2318 17.2847L16.6843 27.8321C16.2282 28.2883 15.6303 28.5164 15.0323 28.5164C14.4343 28.5164 13.8364 28.2883 13.3802 27.8321L2.8327 17.2847C1.92035 16.3723 1.92035 14.8929 2.8327 13.9805L13.3802 3.4331C13.8364 2.97681 14.4343 2.74872 15.0323 2.74872ZM15.0323 1.55078C14.0882 1.55078 13.2006 1.91843 12.533 2.58604L1.98564 13.1334C0.607651 14.5114 0.607651 16.7537 1.98564 18.1318L12.533 28.6792C13.2006 29.3467 14.0882 29.7143 15.0323 29.7143C15.9764 29.7143 16.8639 29.3467 17.5314 28.6792L28.0789 18.1318C29.4569 16.7537 29.4569 14.5114 28.0789 13.1334L17.5315 2.58604C16.8639 1.91843 15.9764 1.55078 15.0323 1.55078Z" fill="#EEEEEE"/>
<path d="M10.9909 16.8528L8.76224 15.7535C7.83933 15.298 7.83905 13.9821 8.76186 13.5264L10.9902 12.4263C11.3566 12.2454 11.6106 11.8957 11.6692 11.4913L12.0262 9.03191C12.1739 8.01346 13.4254 7.60664 14.1439 8.34345L15.879 10.1227C16.1643 10.4153 16.5753 10.5488 16.9781 10.4796L19.4272 10.0591C20.4415 9.88494 21.2152 10.9494 20.7365 11.8605L19.5807 14.0603C19.3905 14.4221 19.3904 14.8541 19.5807 15.2158L20.7376 17.4153C21.2168 18.3261 20.4433 19.3909 19.4289 19.2171L16.9794 18.7975C16.5767 18.7284 16.1658 18.8621 15.8805 19.1548L14.1462 20.9346C13.4279 21.6716 12.1764 21.2653 12.0282 20.2468L11.6703 17.7876C11.6115 17.3831 11.3574 17.0337 10.9909 16.8528Z" fill="#B4B4B4"/>
<path d="M11.7179 17.1325L8.66011 15.624C8.11003 15.3527 8.10988 14.5683 8.6599 14.2968L11.7171 12.7875C11.9355 12.6797 12.0868 12.4711 12.1218 12.2301L12.6115 8.85597C12.6996 8.24896 13.4455 8.00637 13.8738 8.44549L16.2542 10.8866C16.4241 11.061 16.6691 11.1406 16.9092 11.0993L20.2696 10.5224C20.8741 10.4186 21.3352 11.053 21.05 11.5959L19.4638 14.6141C19.3505 14.8297 19.3505 15.0873 19.464 15.303L21.051 18.3205C21.3365 18.8635 20.8757 19.498 20.2711 19.3945L16.9106 18.8187C16.6704 18.7776 16.4256 18.8571 16.2555 19.0316L13.876 21.4737C13.4479 21.9131 12.702 21.6706 12.6137 21.0637L12.1227 17.6896C12.0878 17.4486 11.9363 17.2402 11.7179 17.1325Z" fill="#D4D4D4"/>
<mask id="mask1_164_8809" style="mask-type:luminance" maskUnits="userSpaceOnUse" x="0" y="0" width="31" height="31">
<path d="M0.0712891 0.554688H30.0197V30.5031H0.0712891V0.554688Z" fill="white"/>
</mask>
<g mask="url(#mask1_164_8809)">
<mask id="mask2_164_8809" style="mask-type:alpha" maskUnits="userSpaceOnUse" x="0" y="1" width="30" height="29">
<path d="M15.0303 1.54248C14.0862 1.54248 13.1987 1.91013 12.5311 2.57774L1.98369 13.1251C0.605698 14.5031 0.605698 16.7454 1.98369 18.1235L12.5311 28.6709C13.1987 29.3384 14.0862 29.706 15.0303 29.706C15.9744 29.706 16.862 29.3384 17.5294 28.6709L28.0769 18.1235C29.4549 16.7454 29.4549 14.5031 28.0769 13.1251L17.5296 2.57774C16.862 1.91013 15.9744 1.54248 15.0303 1.54248Z" fill="#D9D9FF"/>
</mask>
<g mask="url(#mask2_164_8809)">
<g opacity="0.2">
<path d="M15.0003 -4.60203L19.881 30.1257L15.3646 30.7605L10.4839 -3.96729L15.0003 -4.60203Z" fill="white"/>
<path d="M18.0754 -5.03301L22.9561 29.6947L20.7513 30.0046L15.8706 -4.72314L18.0754 -5.03301Z" fill="white"/>
</g>
</g>
</g>
</g>
</g>
<defs>
<clipPath id="clip0_164_8809">
<rect width="29.9485" height="29.9485" fill="white" transform="translate(0.0722656 0.5625)"/>
</clipPath>
</defs>
</svg>
