<svg width="36" height="36" viewBox="0 0 36 36" fill="none" xmlns="http://www.w3.org/2000/svg">
<g clip-path="url(#clip0_164_9648)">
<g filter="url(#filter0_d_164_9648)">
<path d="M16.6583 1.47178C16.2138 1.47317 15.7223 1.67255 15.2737 2.11978L7.35508 11.0769H1.38462C0.621692 11.0769 0 11.6986 0 12.4615V23.5384C0 24.3013 0.621692 24.923 1.38462 24.923H7.35646L15.2308 33.8372C16.6154 35.2218 18 34.5129 18 32.6256V3.15686C18 2.06163 17.4005 1.46486 16.6583 1.46902V1.47178ZM26.6968 4.24102C26.4023 4.29239 26.1323 4.43768 25.9273 4.65518C25.7222 4.87268 25.593 5.1507 25.5591 5.44769C25.5251 5.74468 25.5882 6.04469 25.7388 6.30288C25.8895 6.56106 26.1196 6.76356 26.3949 6.88009C28.4548 7.91569 30.1855 9.50461 31.3929 11.4687C32.6003 13.4328 33.2367 15.6944 33.2308 17.9999C33.2308 22.8793 30.4615 27.0692 26.3935 29.1198C26.2084 29.1842 26.0391 29.2872 25.8967 29.4219C25.7544 29.5567 25.6423 29.7201 25.5678 29.9014C25.4933 30.0827 25.4582 30.2778 25.4647 30.4737C25.4712 30.6696 25.5193 30.8618 25.6057 31.0378C25.6921 31.2137 25.8148 31.3693 25.9658 31.4943C26.1169 31.6192 26.2927 31.7107 26.4817 31.7626C26.6707 31.8146 26.8686 31.8258 27.0622 31.7955C27.2559 31.7653 27.4409 31.6943 27.6051 31.5872C32.58 29.0769 36 23.9372 36 17.9999C36 12.0627 32.5786 6.92302 27.6051 4.41271C27.3681 4.28046 27.0975 4.22076 26.8269 4.24102C26.7836 4.23898 26.7401 4.23898 26.6968 4.24102ZM23.4083 9.60502C23.1102 9.62691 22.8271 9.7447 22.6015 9.94079C22.3758 10.1369 22.2197 10.4007 22.1565 10.6929C22.0932 10.9851 22.1262 11.2899 22.2505 11.5617C22.3748 11.8336 22.5838 12.0579 22.8462 12.2012C24.9826 13.529 26.3077 15.6322 26.3077 17.9999C26.3077 20.3842 24.9618 22.5152 22.8032 23.8416C22.6336 23.9301 22.4842 24.0527 22.3644 24.2018C22.2446 24.3509 22.1569 24.5232 22.107 24.7079C22.0571 24.8925 22.046 25.0855 22.0744 25.2746C22.1027 25.4638 22.17 25.645 22.2719 25.8069C22.3738 25.9688 22.5081 26.1078 22.6664 26.2151C22.8247 26.3225 23.0035 26.3959 23.1916 26.4307C23.3797 26.4655 23.5729 26.461 23.7592 26.4174C23.9454 26.3738 24.1206 26.2921 24.2737 26.1775C27.1398 24.419 29.0769 21.4282 29.0769 17.9999C29.0769 14.5924 27.1565 11.585 24.3166 9.8224C24.0846 9.67419 23.8137 9.59851 23.5385 9.60502C23.4951 9.60297 23.4517 9.60297 23.4083 9.60502Z" fill="#FBFBFB"/>
</g>
</g>
<defs>
<filter id="filter0_d_164_9648" x="-10" y="-4.53101" width="56" height="53.0923" filterUnits="userSpaceOnUse" color-interpolation-filters="sRGB">
<feFlood flood-opacity="0" result="BackgroundImageFix"/>
<feColorMatrix in="SourceAlpha" type="matrix" values="0 0 0 0 0 0 0 0 0 0 0 0 0 0 0 0 0 0 127 0" result="hardAlpha"/>
<feOffset dy="4"/>
<feGaussianBlur stdDeviation="5"/>
<feComposite in2="hardAlpha" operator="out"/>
<feColorMatrix type="matrix" values="0 0 0 0 0 0 0 0 0 0 0 0 0 0 0 0 0 0 0.1 0"/>
<feBlend mode="normal" in2="BackgroundImageFix" result="effect1_dropShadow_164_9648"/>
<feBlend mode="normal" in="SourceGraphic" in2="effect1_dropShadow_164_9648" result="shape"/>
</filter>
<clipPath id="clip0_164_9648">
<rect width="36" height="36" fill="white"/>
</clipPath>
</defs>
</svg>
