<svg width="30" height="31" viewBox="0 0 30 31" fill="none" xmlns="http://www.w3.org/2000/svg">
<g clip-path="url(#clip0_164_10004)">
<mask id="mask0_164_10004" style="mask-type:luminance" maskUnits="userSpaceOnUse" x="0" y="0" width="30" height="31">
<path d="M29.9743 0.119751H0.0258789V30.0682H29.9743V0.119751Z" fill="white"/>
</mask>
<g mask="url(#mask0_164_10004)">
<path d="M13.2995 27.3501L2.75222 16.8027C1.83975 15.8902 1.83975 14.4108 2.75222 13.4983L13.2995 2.95095C14.2119 2.03848 15.6914 2.03848 16.6039 2.95095L27.1511 13.4983C28.0636 14.4108 28.0636 15.8902 27.1511 16.8027L16.6039 27.3501C15.6914 28.2625 14.2119 28.2625 13.2995 27.3501Z" fill="#3B3BE6"/>
<path d="M14.9517 3.46454C15.2559 3.46454 15.5417 3.58302 15.7567 3.79805L26.3042 14.3454C26.748 14.7892 26.748 15.5116 26.3042 15.9556L15.7567 26.5029C15.5417 26.718 15.2559 26.8363 14.9517 26.8363C14.6475 26.8363 14.3617 26.718 14.1467 26.5029L3.5992 15.9556C3.15536 15.5116 3.15536 14.7892 3.5992 14.3454L14.1467 3.79805C14.3617 3.58302 14.6475 3.46454 14.9517 3.46454ZM14.9517 2.2666C14.3537 2.2666 13.7558 2.49469 13.2996 2.95098L2.75213 13.4984C1.83978 14.4108 1.83978 15.8902 2.75213 16.8026L13.2996 27.35C13.7558 27.8062 14.3537 28.0343 14.9517 28.0343C15.5497 28.0343 16.1476 27.8062 16.6038 27.35L27.1513 16.8026C28.0636 15.8902 28.0636 14.4108 27.1513 13.4984L16.6038 2.95098C16.1476 2.49469 15.5497 2.2666 14.9517 2.2666Z" fill="#39359F"/>
<path d="M14.9869 2.31061C15.5849 2.31061 16.1828 2.5387 16.6389 2.99499L27.1864 13.5424C28.0988 14.4548 28.0988 15.9342 27.1864 16.8466L16.6389 27.394C16.1828 27.8502 15.5849 28.0783 14.9869 28.0783C14.3888 28.0783 13.791 27.8502 13.3348 27.394L2.78729 16.8466C1.87494 15.9342 1.87494 14.4548 2.78729 13.5424L13.3348 2.99499C13.791 2.5387 14.3888 2.31061 14.9869 2.31061ZM14.9869 1.11267C14.0428 1.11267 13.1552 1.48032 12.4876 2.14793L1.94023 12.6953C0.562241 14.0733 0.562241 16.3156 1.94023 17.6937L12.4876 28.2411C13.1552 28.9086 14.0428 29.2762 14.9869 29.2762C15.9309 29.2762 16.8185 28.9086 17.486 28.2411L28.0335 17.6937C29.4115 16.3156 29.4115 14.0733 28.0335 12.6953L17.4861 2.14793C16.8185 1.48032 15.9309 1.11267 14.9869 1.11267Z" fill="#D9D9FF"/>
<path d="M10.945 16.4147L8.71635 15.3154C7.79343 14.8599 7.79315 13.544 8.71596 13.0883L10.9443 11.9882C11.3107 11.8073 11.5647 11.4575 11.6233 11.0532L11.9803 8.5938C12.128 7.57534 13.3795 7.16853 14.098 7.90534L15.8331 9.68457C16.1184 9.97722 16.5294 10.1107 16.9322 10.0415L19.3814 9.62094C20.3956 9.44683 21.1693 10.5113 20.6906 11.4224L19.5348 13.6222C19.3446 13.984 19.3445 14.416 19.5348 14.7777L20.6917 16.9772C21.1709 17.888 20.3974 18.9527 19.383 18.779L16.9336 18.3594C16.5308 18.2903 16.1199 18.424 15.8346 18.7167L14.1003 20.4965C13.382 21.2335 12.1305 20.8272 11.9823 19.8087L11.6244 17.3495C11.5656 16.945 11.3115 16.5956 10.945 16.4147Z" fill="#2E2EBC"/>
<path d="M11.6725 16.6944L8.6147 15.1859C8.06462 14.9146 8.06447 14.1302 8.61449 13.8587L11.6717 12.3494C11.8901 12.2416 12.0414 12.033 12.0764 11.792L12.5661 8.41786C12.6542 7.81085 13.4001 7.56826 13.8284 8.00738L16.2088 10.4485C16.3787 10.6229 16.6237 10.7024 16.8638 10.6612L20.2242 10.0843C20.8287 9.9805 21.2898 10.6149 21.0045 11.1578L19.4184 14.176C19.3051 14.3916 19.3051 14.6492 19.4185 14.8649L21.0056 17.8824C21.2911 18.4254 20.8303 19.0599 20.2257 18.9563L16.8652 18.3806C16.625 18.3395 16.3802 18.419 16.2101 18.5935L13.8306 21.0356C13.4025 21.475 12.6566 21.2325 12.5683 20.6256L12.0773 17.2515C12.0424 17.0105 11.8909 16.8021 11.6725 16.6944Z" fill="#FFCF00"/>
<mask id="mask1_164_10004" style="mask-type:luminance" maskUnits="userSpaceOnUse" x="0" y="0" width="30" height="31">
<path d="M0.0258789 0.116699H29.9743V30.0652H0.0258789V0.116699Z" fill="white"/>
</mask>
<g mask="url(#mask1_164_10004)">
<mask id="mask2_164_10004" style="mask-type:alpha" maskUnits="userSpaceOnUse" x="0" y="1" width="30" height="29">
<path d="M14.9859 1.10461C14.0418 1.10461 13.1542 1.47226 12.4866 2.13987L1.93925 12.6872C0.561265 14.0652 0.561265 16.3075 1.93925 17.6856L12.4866 28.233C13.1542 28.9005 14.0418 29.2681 14.9859 29.2681C15.93 29.2681 16.8175 28.9005 17.485 28.233L28.0325 17.6856C29.4105 16.3075 29.4105 14.0652 28.0325 12.6872L17.4851 2.13987C16.8175 1.47226 15.93 1.10461 14.9859 1.10461Z" fill="#D9D9FF"/>
</mask>
<g mask="url(#mask2_164_10004)">
<g opacity="0.2">
<path d="M14.953 -5.04014L19.8336 29.6876L15.3172 30.3223L10.4365 -4.4054L14.953 -5.04014Z" fill="white"/>
<path d="M18.029 -5.471L22.9097 29.2567L20.7049 29.5666L15.8242 -5.16113L18.029 -5.471Z" fill="white"/>
</g>
</g>
</g>
</g>
</g>
<defs>
<clipPath id="clip0_164_10004">
<rect width="29.9485" height="29.9485" fill="white" transform="translate(0.0258789 0.123657)"/>
</clipPath>
</defs>
</svg>
