<svg width="28" height="28" viewBox="0 0 28 28" fill="none" xmlns="http://www.w3.org/2000/svg">
<g clip-path="url(#clip0_164_9704)">
<path d="M11.0835 18.1794V9.81674C11.0837 9.71211 11.112 9.60945 11.1655 9.51952C11.219 9.42959 11.2956 9.35571 11.3875 9.3056C11.4794 9.2555 11.583 9.23103 11.6876 9.23474C11.7921 9.23846 11.8938 9.27024 11.9818 9.32674L18.4872 13.5069C18.5695 13.5597 18.6373 13.6323 18.6843 13.7182C18.7312 13.804 18.7558 13.9002 18.7558 13.9981C18.7558 14.0959 18.7312 14.1922 18.6843 14.278C18.6373 14.3638 18.5695 14.4365 18.4872 14.4892L11.9818 18.6706C11.8938 18.7271 11.7921 18.7588 11.6876 18.7626C11.583 18.7663 11.4794 18.7418 11.3875 18.6917C11.2956 18.6416 11.219 18.5677 11.1655 18.4778C11.112 18.3879 11.0837 18.2852 11.0835 18.1806V18.1794Z" fill="#3066BE"/>
<path d="M0 14C0 6.26818 6.26818 0 14 0C21.7318 0 28 6.26818 28 14C28 21.7318 21.7318 28 14 28C6.26818 28 0 21.7318 0 14ZM14 1.90909C10.7933 1.90909 7.71792 3.18295 5.45044 5.45044C3.18295 7.71792 1.90909 10.7933 1.90909 14C1.90909 17.2067 3.18295 20.2821 5.45044 22.5496C7.71792 24.817 10.7933 26.0909 14 26.0909C17.2067 26.0909 20.2821 24.817 22.5496 22.5496C24.817 20.2821 26.0909 17.2067 26.0909 14C26.0909 10.7933 24.817 7.71792 22.5496 5.45044C20.2821 3.18295 17.2067 1.90909 14 1.90909Z" fill="#3066BE"/>
</g>
<defs>
<clipPath id="clip0_164_9704">
<rect width="28" height="28" fill="white"/>
</clipPath>
</defs>
</svg>
