<svg width="54" height="54" viewBox="0 0 54 54" fill="none" xmlns="http://www.w3.org/2000/svg">
<circle cx="27" cy="27" r="27" fill="white"/>
<path d="M38.9358 15.0639C38.0408 14.1699 36.8275 13.6677 35.5625 13.6677C34.2975 13.6677 33.0842 14.1699 32.1892 15.0639L16.2532 30.9999C15.7112 31.5413 15.3304 32.2226 15.1532 32.9679L13.6932 39.1039C13.6536 39.2701 13.6573 39.4436 13.7039 39.608C13.7505 39.7724 13.8384 39.922 13.9593 40.0428C14.0802 40.1635 14.2299 40.2513 14.3944 40.2977C14.5588 40.3441 14.7323 40.3476 14.8985 40.3079L21.0332 38.8465C21.7789 38.6696 22.4607 38.2887 23.0025 37.7465L38.9358 21.8132C39.8298 20.9182 40.332 19.7049 40.332 18.4399C40.332 17.1749 39.8298 15.9616 38.9358 15.0665M33.6025 16.4799C33.8599 16.2225 34.1654 16.0183 34.5017 15.879C34.838 15.7397 35.1985 15.668 35.5625 15.668C35.9265 15.668 36.2869 15.7397 36.6232 15.879C36.9595 16.0183 37.2651 16.2225 37.5225 16.4799C37.7799 16.7373 37.9841 17.0428 38.1234 17.3791C38.2627 17.7154 38.3343 18.0759 38.3343 18.4399C38.3343 18.8039 38.2627 19.1643 38.1234 19.5006C37.9841 19.8369 37.7799 20.1425 37.5225 20.3999L36.3332 21.5852L32.4132 17.6665L33.6025 16.4799ZM30.9998 19.0825L34.9198 22.9999L21.5865 36.3332C21.3065 36.6132 20.9545 36.8092 20.5692 36.9012L16.0145 37.9865L17.0985 33.4319C17.1905 33.0452 17.3878 32.6932 17.6678 32.4132L30.9998 19.0825Z" fill="#707B8E"/>
</svg>
