<svg width="85" height="85" viewBox="0 0 85 85" fill="none" xmlns="http://www.w3.org/2000/svg">
<path d="M33.5278 54.9882V29.7656C33.5284 29.45 33.6139 29.1404 33.7756 28.8692C33.9373 28.5979 34.1691 28.3751 34.4467 28.224C34.7244 28.0729 35.0376 27.9991 35.3537 28.0103C35.6698 28.0215 35.977 28.1173 36.2432 28.2877L55.9063 40.8955C56.1553 41.0547 56.3602 41.2738 56.5021 41.5326C56.644 41.7915 56.7183 42.0818 56.7183 42.3769C56.7183 42.672 56.644 42.9623 56.5021 43.2211C56.3602 43.48 56.1553 43.6991 55.9063 43.8583L36.2432 56.4696C35.977 56.64 35.6698 56.7358 35.3537 56.7471C35.0376 56.7583 34.7244 56.6844 34.4467 56.5333C34.1691 56.3822 33.9373 56.1594 33.7756 55.8881C33.6139 55.6169 33.5284 55.3073 33.5278 54.9917V54.9882Z" fill="white"/>
<path d="M3.55347 42.3769C3.55347 21.0004 20.921 3.67041 42.3438 3.67041C63.7667 3.67041 81.1342 21.0004 81.1342 42.3769C81.1342 63.7535 63.7667 81.0834 42.3438 81.0834C20.921 81.0834 3.55347 63.7535 3.55347 42.3769ZM42.3438 8.94857C33.4589 8.94857 24.9378 12.4705 18.6552 18.7395C12.3726 25.0085 8.84306 33.5112 8.84306 42.3769C8.84306 51.2427 12.3726 59.7453 18.6552 66.0143C24.9378 72.2834 33.4589 75.8053 42.3438 75.8053C51.2288 75.8053 59.7498 72.2834 66.0324 66.0143C72.315 59.7453 75.8446 51.2427 75.8446 42.3769C75.8446 33.5112 72.315 25.0085 66.0324 18.7395C59.7498 12.4705 51.2288 8.94857 42.3438 8.94857Z" fill="white"/>
</svg>
