<svg width="24" height="32" viewBox="0 0 24 32" fill="none" xmlns="http://www.w3.org/2000/svg">
<path d="M17.5838 15.6978L10.509 18.7833L15.7038 30.6414L18.0235 26.3585L22.7779 27.5663L17.5838 15.6978Z" fill="#FBDE0C"/>
<path d="M6.41624 15.6978L13.491 18.7833L8.29621 30.6414L5.97649 26.3585L1.22207 27.5663L6.41624 15.6978Z" fill="#FBDE0C"/>
<path d="M12.8915 1.57872C13.2436 0.595608 14.6996 0.852324 14.6942 1.89662C14.6898 2.76829 15.7803 3.16522 16.3372 2.49461C17.0044 1.69121 18.2847 2.43039 17.9225 3.40991C17.6202 4.22744 18.5092 4.97346 19.2619 4.53374C20.1636 4.00697 21.114 5.1395 20.4385 5.9361C19.8748 6.60093 20.4551 7.60598 21.3128 7.45024C22.3403 7.26365 22.8459 8.65285 21.9389 9.17037C21.1817 9.60237 21.3833 10.7453 22.2425 10.8923C23.2718 11.0683 23.2718 12.5468 22.2425 12.7228C21.3833 12.8698 21.1817 14.0127 21.9389 14.4447V14.4447C22.8459 14.9622 22.3403 16.3515 21.3128 16.1649C20.4551 16.0091 19.8748 17.0142 20.4385 17.679C21.114 18.4756 20.1636 19.6081 19.2619 19.0813C18.5092 18.6416 17.6202 19.3876 17.9225 20.2052C18.2847 21.1847 17.0044 21.9239 16.3372 21.1205C15.7803 20.4499 14.6898 20.8468 14.6942 21.7185C14.6996 22.7628 13.2436 23.0195 12.8915 22.0364C12.5975 21.2157 11.437 21.2157 11.1431 22.0364C10.7909 23.0195 9.33492 22.7628 9.34028 21.7185C9.34476 20.8468 8.25417 20.4499 7.69732 21.1205C7.03017 21.9239 5.74976 21.1847 6.112 20.2052C6.41433 19.3876 5.52528 18.6416 4.7726 19.0813C3.87088 19.6081 2.92056 18.4756 3.59594 17.679C4.15967 17.0142 3.5794 16.0091 2.72174 16.1649C1.69424 16.3515 1.18857 14.9622 2.09564 14.4447V14.4447C2.85275 14.0127 2.65123 12.8698 1.79205 12.7228C0.762733 12.5468 0.762691 11.0683 1.792 10.8923C2.65119 10.7453 2.85275 9.60237 2.09564 9.17037C1.18857 8.65285 1.69424 7.26365 2.72174 7.45024C3.5794 7.60598 4.15967 6.60093 3.59594 5.9361C2.92056 5.1395 3.87088 4.00697 4.7726 4.53374C5.52528 4.97346 6.41433 4.22744 6.112 3.40991C5.74976 2.43039 7.03017 1.69121 7.69732 2.49461C8.25417 3.16522 9.34476 2.76829 9.34028 1.89662C9.33492 0.852324 10.7909 0.595608 11.1431 1.57872C11.437 2.39937 12.5975 2.39937 12.8915 1.57872Z" fill="#FE8107"/>
<path d="M18.8342 11.8171C18.8342 15.5835 15.781 18.6368 12.0145 18.6368C8.24807 18.6368 5.19482 15.5835 5.19482 11.8171C5.19482 8.05068 8.24807 4.99744 12.0145 4.99744C15.781 4.99744 18.8342 8.05068 18.8342 11.8171Z" fill="#FADE0B"/>
</svg>
