<svg width="42" height="42" viewBox="0 0 42 42" fill="none" xmlns="http://www.w3.org/2000/svg">
<path fill-rule="evenodd" clip-rule="evenodd" d="M5.25 15.75C5.25 10.801 5.25 8.32475 6.78825 6.78825C8.32475 5.25 10.801 5.25 15.75 5.25H26.8503C28.2818 5.25 28.9958 5.25 29.6398 5.516C30.282 5.782 30.7878 6.2895 31.801 7.301L34.699 10.199C35.7122 11.2105 36.2162 11.718 36.484 12.3603C36.75 13.0043 36.75 13.7182 36.75 15.1497V26.25C36.75 31.199 36.75 33.6753 35.2118 35.2118C34.09 36.3353 32.4678 36.638 29.75 36.7202V31.3915C29.75 30.247 29.75 29.2198 29.638 28.3868C29.5155 27.4768 29.232 26.5458 28.469 25.781C27.7042 25.018 26.7715 24.7345 25.8633 24.612C25.0303 24.5 24.003 24.5 22.8585 24.5H17.3915C16.247 24.5 15.2197 24.5 14.3867 24.612C13.4767 24.7345 12.5457 25.018 11.781 25.781C11.018 26.5458 10.7345 27.4785 10.612 28.3868C10.5 29.2198 10.5 30.247 10.5 31.3915V36.617C8.79375 36.449 7.64575 36.0693 6.78825 35.2118C5.25 33.6753 5.25 31.199 5.25 26.25V15.75ZM26.25 31.5V36.75H15.75C15.1287 36.75 14.546 36.75 14 36.7465V31.5C14 30.2138 14.0035 29.4245 14.0805 28.8522C14.1487 28.3517 14.2432 28.2677 14.2555 28.2572C14.2677 28.245 14.35 28.1487 14.8523 28.0805C15.4245 28.0035 16.2137 28 17.5 28H22.75C24.0362 28 24.8255 28.0035 25.3977 28.0805C25.9 28.1487 25.9823 28.2432 25.9928 28.2555H25.9945C26.0068 28.2677 26.1013 28.3517 26.1695 28.8522C26.2465 29.4245 26.25 30.2138 26.25 31.5ZM12.25 12.25C11.7859 12.25 11.3408 12.4344 11.0126 12.7626C10.6844 13.0908 10.5 13.5359 10.5 14C10.5 14.4641 10.6844 14.9092 11.0126 15.2374C11.3408 15.5656 11.7859 15.75 12.25 15.75H21C21.4641 15.75 21.9092 15.5656 22.2374 15.2374C22.5656 14.9092 22.75 14.4641 22.75 14C22.75 13.5359 22.5656 13.0908 22.2374 12.7626C21.9092 12.4344 21.4641 12.25 21 12.25H12.25Z" fill="#FBFBFB"/>
</svg>
