<svg width="31" height="31" viewBox="0 0 31 31" fill="none" xmlns="http://www.w3.org/2000/svg">
<g clip-path="url(#clip0_164_8756)">
<mask id="mask0_164_8756" style="mask-type:luminance" maskUnits="userSpaceOnUse" x="0" y="0" width="31" height="31">
<path d="M30.0212 0.557617H0.0727539V30.5061H30.0212V0.557617Z" fill="white"/>
</mask>
<g mask="url(#mask0_164_8756)">
<path d="M13.3468 27.7881L2.79959 17.2407C1.88712 16.3282 1.88712 14.8488 2.79959 13.9363L13.3468 3.38894C14.2593 2.47647 15.7388 2.47647 16.6512 3.38894L27.1985 13.9363C28.1109 14.8488 28.1109 16.3282 27.1985 17.2407L16.6512 27.7881C15.7388 28.7005 14.2593 28.7005 13.3468 27.7881Z" fill="#B4B4B4"/>
<path d="M14.9991 3.90253C15.3032 3.90253 15.589 4.021 15.8041 4.23603L26.3516 14.7834C26.7954 15.2272 26.7954 15.9496 26.3516 16.3935L15.8041 26.9409C15.589 27.1559 15.3032 27.2743 14.9991 27.2743C14.6949 27.2743 14.4091 27.1559 14.194 26.9409L3.64656 16.3935C3.20272 15.9496 3.20272 15.2272 3.64656 14.7834L14.194 4.23603C14.4091 4.021 14.6949 3.90253 14.9991 3.90253ZM14.9991 2.70459C14.401 2.70459 13.8032 2.93268 13.347 3.38897L2.7995 13.9363C1.88715 14.8488 1.88715 16.3281 2.7995 17.2406L13.347 27.788C13.8032 28.2442 14.401 28.4722 14.9991 28.4722C15.5971 28.4722 16.195 28.2442 16.6511 27.788L27.1986 17.2406C28.111 16.3281 28.111 14.8488 27.1986 13.9363L16.6511 3.38897C16.195 2.93268 15.5971 2.70459 14.9991 2.70459Z" fill="#909090"/>
<path d="M15.0342 2.74872C15.6322 2.74872 16.2301 2.97681 16.6863 3.4331L27.2338 13.9805C28.1461 14.8929 28.1461 16.3723 27.2338 17.2847L16.6863 27.8321C16.2301 28.2883 15.6322 28.5164 15.0342 28.5164C14.4362 28.5164 13.8383 28.2883 13.3821 27.8321L2.83466 17.2847C1.9223 16.3723 1.9223 14.8929 2.83466 13.9805L13.3821 3.4331C13.8383 2.97681 14.4362 2.74872 15.0342 2.74872ZM15.0342 1.55078C14.0901 1.55078 13.2026 1.91843 12.535 2.58604L1.98759 13.1334C0.609604 14.5114 0.609604 16.7537 1.98759 18.1318L12.535 28.6792C13.2026 29.3467 14.0901 29.7143 15.0342 29.7143C15.9783 29.7143 16.8659 29.3467 17.5334 28.6792L28.0808 18.1318C29.4588 16.7537 29.4588 14.5114 28.0808 13.1334L17.5335 2.58604C16.8659 1.91843 15.9783 1.55078 15.0342 1.55078Z" fill="#EEEEEE"/>
<path d="M10.9924 16.8528L8.76371 15.7535C7.8408 15.298 7.84051 13.9821 8.76332 13.5264L10.9917 12.4263C11.358 12.2454 11.612 11.8957 11.6706 11.4913L12.0277 9.03191C12.1754 8.01346 13.4269 7.60664 14.1454 8.34345L15.8804 10.1227C16.1658 10.4153 16.5768 10.5488 16.9796 10.4796L19.4287 10.0591C20.443 9.88494 21.2167 10.9494 20.7379 11.8605L19.5822 14.0603C19.392 14.4221 19.3919 14.8541 19.5822 15.2158L20.739 17.4153C21.2182 18.3261 20.4447 19.3909 19.4303 19.2171L16.9809 18.7975C16.5781 18.7284 16.1672 18.8621 15.882 19.1548L14.1476 20.9346C13.4294 21.6716 12.1778 21.2653 12.0296 20.2468L11.6718 17.7876C11.613 17.3831 11.3589 17.0337 10.9924 16.8528Z" fill="#B4B4B4"/>
<path d="M11.7198 17.1325L8.66206 15.624C8.11198 15.3527 8.11183 14.5683 8.66185 14.2968L11.7191 12.7875C11.9375 12.6797 12.0888 12.4711 12.1238 12.2301L12.6134 8.85597C12.7016 8.24896 13.4475 8.00637 13.8757 8.44549L16.2561 10.8866C16.4261 11.061 16.671 11.1406 16.9112 11.0993L20.2715 10.5224C20.8761 10.4186 21.3371 11.053 21.0519 11.5959L19.4658 14.6141C19.3524 14.8297 19.3525 15.0873 19.4659 15.303L21.053 18.3205C21.3385 18.8635 20.8776 19.498 20.273 19.3945L16.9125 18.8187C16.6724 18.7776 16.4275 18.8571 16.2575 19.0316L13.878 21.4737C13.4498 21.9131 12.704 21.6706 12.6157 21.0637L12.1247 17.6896C12.0898 17.4486 11.9382 17.2402 11.7198 17.1325Z" fill="#D4D4D4"/>
<mask id="mask1_164_8756" style="mask-type:luminance" maskUnits="userSpaceOnUse" x="0" y="0" width="31" height="31">
<path d="M0.0732422 0.554688H30.0217V30.5031H0.0732422V0.554688Z" fill="white"/>
</mask>
<g mask="url(#mask1_164_8756)">
<mask id="mask2_164_8756" style="mask-type:alpha" maskUnits="userSpaceOnUse" x="0" y="1" width="30" height="29">
<path d="M15.0342 1.54248C14.0901 1.54248 13.2026 1.91013 12.535 2.57774L1.98759 13.1251C0.609604 14.5031 0.609604 16.7454 1.98759 18.1235L12.535 28.6709C13.2026 29.3384 14.0901 29.706 15.0342 29.706C15.9783 29.706 16.8659 29.3384 17.5334 28.6709L28.0808 18.1235C29.4588 16.7454 29.4588 14.5031 28.0808 13.1251L17.5335 2.57774C16.8659 1.91013 15.9783 1.54248 15.0342 1.54248Z" fill="#D9D9FF"/>
</mask>
<g mask="url(#mask2_164_8756)">
<g opacity="0.2">
<path d="M15.0008 -4.60252L19.8815 30.1252L15.365 30.76L10.4844 -3.96777L15.0008 -4.60252Z" fill="white"/>
<path d="M18.0769 -5.0335L22.9575 29.6942L20.7527 30.0041L15.8721 -4.72363L18.0769 -5.0335Z" fill="white"/>
</g>
</g>
</g>
</g>
</g>
<defs>
<clipPath id="clip0_164_8756">
<rect width="29.9485" height="29.9485" fill="white" transform="translate(0.0722656 0.5625)"/>
</clipPath>
</defs>
</svg>
