<svg width="191" height="209" viewBox="0 0 191 209" fill="none" xmlns="http://www.w3.org/2000/svg">
<path d="M154.11 102.624C149.578 140.908 124.969 147.916 120.859 158.139C118.733 164.56 116.974 171.096 115.589 177.716H75.5926C74.2812 171.094 72.5743 164.557 70.4811 158.139C66.6343 147.864 41.8935 140.802 37.4933 102.492C34.5687 77.3299 53.5129 37.6234 95.8543 37.6761C138.196 37.7288 157.035 77.4617 154.11 102.624Z" fill="#FFCD5D"/>
<path d="M75.332 116.365L72.7673 116.84L84.5759 180.491L87.1405 180.016L75.332 116.365Z" fill="white"/>
<path d="M116.225 116.463L104.272 180.087L106.836 180.569L118.789 116.944L116.225 116.463Z" fill="white"/>
<path d="M95.7489 137.987C92.0075 137.987 88.7667 134.614 86.4744 130.425C86.0575 130.934 85.5411 131.354 84.9567 131.657C84.3724 131.961 83.7322 132.142 83.0755 132.19C76.9628 132.19 74.5651 119.727 74.4597 119.2L75.7507 118.963C76.3831 122.283 78.9125 130.899 83.1019 130.899C83.6598 130.821 84.195 130.626 84.6719 130.327C85.1489 130.027 85.5567 129.629 85.8684 129.16C84.1127 125.656 83.1076 121.824 82.9174 117.909C82.9174 114.352 84.2612 112.324 86.6325 112.324C87.3273 112.304 88.0142 112.475 88.6182 112.819C89.2222 113.163 89.7202 113.666 90.0578 114.273C91.9549 117.54 90.5584 124.022 88.1607 128.132C87.8973 128.554 87.6337 128.976 87.3703 129.344C89.5045 133.428 92.6399 136.669 95.7753 136.669C98.7263 136.669 101.308 134.034 103.179 130.425C100.734 127.382 99.4379 123.577 99.5168 119.675C99.5168 115.143 101.256 112.324 104.022 112.324C106.262 112.324 107.579 114.563 107.553 118.436C107.419 122.51 106.441 126.511 104.681 130.188C105.721 131.174 107.095 131.729 108.528 131.742C112.111 131.742 115.326 123.074 116.248 119.727L117.512 120.096C117.144 121.414 113.745 133.06 108.528 133.06C106.893 133.049 105.318 132.439 104.101 131.347C102.073 135.115 99.2269 137.987 95.7489 137.987ZM103.996 113.641C101.651 113.641 100.808 116.908 100.808 119.675C100.783 123.074 101.814 126.398 103.759 129.186C105.345 125.815 106.241 122.16 106.394 118.436C106.394 116.987 106.183 113.641 104.128 113.641H103.996ZM86.6061 113.641C84.6037 113.641 84.1822 115.96 84.1822 117.909C84.3229 121.408 85.1745 124.842 86.6852 128.001L87.0014 127.474C89.162 123.732 90.4794 117.672 88.8985 114.932C88.6787 114.521 88.3463 114.181 87.9403 113.953C87.5343 113.724 87.0714 113.616 86.6061 113.641Z" fill="white"/>
<path d="M120.398 176.045L71.0217 175.993L71.0116 185.637L120.388 185.689L120.398 176.045Z" fill="#D2D6DB"/>
<path d="M120.386 187.264L71.01 187.212L70.9999 196.856L120.376 196.907L120.386 187.264Z" fill="#D2D6DB"/>
<path d="M120.375 198.462L70.9983 198.41L70.9882 208.053L120.364 208.105L120.375 198.462Z" fill="#D2D6DB"/>
<path d="M95.6172 20.6569C95.0313 17.2461 94.7579 13.7889 94.8004 10.3285C94.759 6.86799 95.0324 3.41093 95.6172 0C96.1901 3.3944 96.4546 6.83367 96.4076 10.2758C96.4488 13.7526 96.1844 17.2264 95.6172 20.6569Z" fill="#D2D6DB"/>
<path d="M58.2555 30.458C56.0395 27.7984 54.0727 24.9408 52.3798 21.9212C50.6174 18.9436 49.127 15.813 47.927 12.5676C50.1365 15.2321 52.1029 18.0891 53.8027 21.1044C55.5551 24.0874 57.045 27.217 58.2555 30.458Z" fill="#D2D6DB"/>
<path d="M30.8271 57.7049C27.5862 56.4944 24.4565 55.0046 21.4735 53.2521C18.4539 51.5593 15.5963 49.5924 12.9368 47.3765C16.1822 48.5765 19.3127 50.0668 22.2904 51.8293C25.31 53.5221 28.1676 55.4889 30.8271 57.7049Z" fill="#D2D6DB"/>
<path d="M20.6569 94.8529C13.8143 95.9419 6.84257 95.9419 0 94.8529C6.84257 93.7639 13.8143 93.7639 20.6569 94.8529Z" fill="#D2D6DB"/>
<path d="M30.4583 132.195C27.7737 134.415 24.8895 136.382 21.8425 138.071C18.8649 139.833 15.7344 141.324 12.489 142.524C15.178 140.34 18.062 138.409 21.1048 136.754C24.0841 134.965 27.2138 133.44 30.4583 132.195Z" fill="#D2D6DB"/>
<path d="M159.617 132.817C166.089 135.291 172.128 138.777 177.507 143.145C174.257 141.957 171.125 140.466 168.153 138.692C165.134 136.999 162.276 135.033 159.617 132.817Z" fill="#D2D6DB"/>
<path d="M169.787 95.5909C176.629 94.5019 183.601 94.5019 190.444 95.5909C183.601 96.68 176.629 96.68 169.787 95.5909Z" fill="#D2D6DB"/>
<path d="M159.986 58.2574C162.66 56.0769 165.516 54.1289 168.523 52.4345C171.5 50.672 174.631 49.1817 177.876 47.9817C175.226 50.1703 172.387 52.119 169.392 53.8046C166.398 55.5705 163.25 57.0608 159.986 58.2574Z" fill="#D2D6DB"/>
<path d="M132.821 30.8239C134.031 27.5829 135.521 24.4533 137.273 21.4704C138.938 18.45 140.869 15.5843 143.044 12.9072C141.844 16.1526 140.353 19.2832 138.591 22.2608C136.933 25.2853 135.001 28.1517 132.821 30.8239Z" fill="#D2D6DB"/>
</svg>
