<svg width="25" height="24" viewBox="0 0 25 24" fill="none" xmlns="http://www.w3.org/2000/svg">
<mask id="path-1-outside-1_164_9851" maskUnits="userSpaceOnUse" x="3.5" y="1" width="18" height="20" fill="black">
<rect fill="white" x="3.5" y="1" width="18" height="20"/>
<path d="M6.116 20C5.668 20 5.28667 19.8427 4.972 19.528C4.65733 19.2133 4.5 18.8323 4.5 18.385V5.615C4.5 5.16833 4.65733 4.78733 4.972 4.472C5.28667 4.15733 5.668 4 6.116 4H10.816C10.7247 3.48933 10.8467 3.02833 11.182 2.617C11.5167 2.20567 11.956 2 12.5 2C13.0567 2 13.5027 2.20567 13.838 2.617C14.1733 3.02833 14.289 3.48933 14.185 4H18.885C19.3317 4 19.7127 4.15733 20.028 4.472C20.3427 4.78667 20.5 5.168 20.5 5.616V18.385C20.5 18.8317 20.3427 19.2127 20.028 19.528C19.7133 19.8427 19.3323 20 18.885 20H6.116ZM6.116 19H18.885C19.0383 19 19.1793 18.936 19.308 18.808C19.4367 18.68 19.5007 18.5387 19.5 18.384V5.616C19.5 5.462 19.436 5.32067 19.308 5.192C19.18 5.06333 19.0387 4.99933 18.884 5H6.116C5.962 5 5.82067 5.064 5.692 5.192C5.56333 5.32 5.49933 5.46133 5.5 5.616V18.385C5.5 18.5383 5.564 18.6793 5.692 18.808C5.82 18.9367 5.961 19.0007 6.115 19M8 16.27H14V15.27H8V16.27ZM8 12.5H17V11.5H8V12.5ZM8 8.73H17V7.73H8V8.73ZM12.5 4.443C12.7167 4.443 12.896 4.37233 13.038 4.231C13.18 4.08967 13.2507 3.91033 13.25 3.693C13.2493 3.47567 13.1783 3.29667 13.037 3.156C12.8957 3.01533 12.7167 2.944 12.5 2.942C12.2833 2.94 12.1043 3.011 11.963 3.155C11.8217 3.299 11.7507 3.478 11.75 3.692C11.7493 3.906 11.8203 4.08533 11.963 4.23C12.1057 4.37467 12.2847 4.44633 12.5 4.443Z"/>
</mask>
<path d="M6.116 20C5.668 20 5.28667 19.8427 4.972 19.528C4.65733 19.2133 4.5 18.8323 4.5 18.385V5.615C4.5 5.16833 4.65733 4.78733 4.972 4.472C5.28667 4.15733 5.668 4 6.116 4H10.816C10.7247 3.48933 10.8467 3.02833 11.182 2.617C11.5167 2.20567 11.956 2 12.5 2C13.0567 2 13.5027 2.20567 13.838 2.617C14.1733 3.02833 14.289 3.48933 14.185 4H18.885C19.3317 4 19.7127 4.15733 20.028 4.472C20.3427 4.78667 20.5 5.168 20.5 5.616V18.385C20.5 18.8317 20.3427 19.2127 20.028 19.528C19.7133 19.8427 19.3323 20 18.885 20H6.116ZM6.116 19H18.885C19.0383 19 19.1793 18.936 19.308 18.808C19.4367 18.68 19.5007 18.5387 19.5 18.384V5.616C19.5 5.462 19.436 5.32067 19.308 5.192C19.18 5.06333 19.0387 4.99933 18.884 5H6.116C5.962 5 5.82067 5.064 5.692 5.192C5.56333 5.32 5.49933 5.46133 5.5 5.616V18.385C5.5 18.5383 5.564 18.6793 5.692 18.808C5.82 18.9367 5.961 19.0007 6.115 19M8 16.27H14V15.27H8V16.27ZM8 12.5H17V11.5H8V12.5ZM8 8.73H17V7.73H8V8.73ZM12.5 4.443C12.7167 4.443 12.896 4.37233 13.038 4.231C13.18 4.08967 13.2507 3.91033 13.25 3.693C13.2493 3.47567 13.1783 3.29667 13.037 3.156C12.8957 3.01533 12.7167 2.944 12.5 2.942C12.2833 2.94 12.1043 3.011 11.963 3.155C11.8217 3.299 11.7507 3.478 11.75 3.692C11.7493 3.906 11.8203 4.08533 11.963 4.23C12.1057 4.37467 12.2847 4.44633 12.5 4.443Z" fill="#1E1E1E"/>
<path d="M5.625 19V5H5.375V19H5.625ZM4.5 18.385H4.75H4.5ZM4.972 4.472L4.79522 4.29522L4.79504 4.29541L4.972 4.472ZM10.816 4V4.25H11.1147L11.0621 3.95599L10.816 4ZM11.182 2.617L11.3758 2.77497L11.3759 2.77478L11.182 2.617ZM14.185 4L13.94 3.95011L13.879 4.25H14.185V4ZM20.028 4.472L20.2048 4.29522L20.2046 4.29504L20.028 4.472ZM20.028 19.528L20.2048 19.7048L20.205 19.7046L20.028 19.528ZM19.5 18.384H19.25L19.25 18.3851L19.5 18.384ZM18.884 5V5.25L18.8851 5.25L18.884 5ZM5.5 5.616H5.75L5.75 5.61492L5.5 5.616ZM8 16.27H7.75V16.52H8V16.27ZM14 16.27V16.52H14.25V16.27H14ZM14 15.27H14.25V15.02H14V15.27ZM8 15.27V15.02H7.75V15.27H8ZM8 12.5H7.75V12.75H8V12.5ZM17 12.5V12.75H17.25V12.5H17ZM17 11.5H17.25V11.25H17V11.5ZM8 11.5V11.25H7.75V11.5H8ZM8 8.73H7.75V8.98H8V8.73ZM17 8.73V8.98H17.25V8.73H17ZM17 7.73H17.25V7.48H17V7.73ZM8 7.73V7.48H7.75V7.73H8ZM12.5 4.443V4.19297L12.4961 4.19303L12.5 4.443ZM6.116 19.75C5.7338 19.75 5.41621 19.6187 5.14878 19.3512L4.79522 19.7048C5.15713 20.0667 5.6022 20.25 6.116 20.25V19.75ZM5.14878 19.3512C4.88127 19.0837 4.75 18.7664 4.75 18.385H4.25C4.25 18.8982 4.4334 19.343 4.79522 19.7048L5.14878 19.3512ZM4.75 18.385V5.615H4.25V18.385H4.75ZM4.75 5.615C4.75 5.23435 4.88121 4.91691 5.14896 4.64859L4.79504 4.29541C4.43346 4.65775 4.25 5.10232 4.25 5.615H4.75ZM5.14878 4.64878C5.41621 4.38135 5.7338 4.25 6.116 4.25V3.75C5.6022 3.75 5.15713 3.93332 4.79522 4.29522L5.14878 4.64878ZM6.116 4.25H10.816V3.75H6.116V4.25ZM11.0621 3.95599C10.9839 3.51893 11.0853 3.13131 11.3758 2.77497L10.9882 2.45903C10.6081 2.92536 10.4654 3.45974 10.5699 4.04401L11.0621 3.95599ZM11.3759 2.77478C11.6617 2.42352 12.029 2.25 12.5 2.25V1.75C11.883 1.75 11.3716 1.98781 10.9881 2.45922L11.3759 2.77478ZM12.5 2.25C12.9858 2.25 13.359 2.42508 13.6442 2.77497L14.0318 2.45903C13.6463 1.98626 13.1276 1.75 12.5 1.75V2.25ZM13.6442 2.77497C13.9332 3.12943 14.0288 3.51445 13.94 3.95011L14.43 4.04989C14.5492 3.46422 14.4135 2.92724 14.0318 2.45903L13.6442 2.77497ZM14.185 4.25H18.885V3.75H14.185V4.25ZM18.885 4.25C19.2657 4.25 19.5831 4.38121 19.8514 4.64896L20.2046 4.29504C19.8422 3.93346 19.3977 3.75 18.885 3.75V4.25ZM19.8512 4.64878C20.1187 4.91621 20.25 5.2338 20.25 5.616H20.75C20.75 5.1022 20.5667 4.65713 20.2048 4.29522L19.8512 4.64878ZM20.25 5.616V18.385H20.75V5.616H20.25ZM20.25 18.385C20.25 18.7657 20.1188 19.0831 19.851 19.3514L20.205 19.7046C20.5665 19.3422 20.75 18.8977 20.75 18.385H20.25ZM19.8512 19.3512C19.5837 19.6187 19.2664 19.75 18.885 19.75V20.25C19.3982 20.25 19.843 20.0666 20.2048 19.7048L19.8512 19.3512ZM18.885 19.75H6.116V20.25H18.885V19.75ZM6.116 19.25H18.885V18.75H6.116V19.25ZM18.885 19.25C19.1164 19.25 19.318 19.1506 19.4843 18.9852L19.1317 18.6308C19.0406 18.7214 18.9603 18.75 18.885 18.75V19.25ZM19.4843 18.9852C19.6515 18.8189 19.751 18.6161 19.75 18.3829L19.25 18.3851C19.2503 18.4613 19.2218 18.5411 19.1317 18.6308L19.4843 18.9852ZM19.75 18.384V5.616H19.25V18.384H19.75ZM19.75 5.616C19.75 5.38423 19.6509 5.1822 19.4852 5.01568L19.1308 5.36832C19.2211 5.45913 19.25 5.53977 19.25 5.616H19.75ZM19.4852 5.01568C19.3189 4.84847 19.1161 4.749 18.8829 4.75L18.8851 5.25C18.9613 5.24967 19.0411 5.2782 19.1308 5.36832L19.4852 5.01568ZM18.884 4.75H6.116V5.25H18.884V4.75ZM6.116 4.75C5.88423 4.75 5.6822 4.84911 5.51568 5.01476L5.86832 5.36924C5.95913 5.27889 6.03977 5.25 6.116 5.25V4.75ZM5.51568 5.01476C5.34847 5.18111 5.249 5.38394 5.25 5.61708L5.75 5.61492C5.74967 5.53873 5.7782 5.45889 5.86832 5.36924L5.51568 5.01476ZM5.25 5.616V18.385H5.75V5.616H5.25ZM5.25 18.385C5.25 18.6164 5.34935 18.818 5.51476 18.9843L5.86924 18.6317C5.77865 18.5406 5.75 18.4603 5.75 18.385H5.25ZM5.51476 18.9843C5.68086 19.1513 5.88331 19.251 6.11608 19.25L6.11392 18.75C6.03869 18.7503 5.95914 18.7221 5.86924 18.6317L5.51476 18.9843ZM8 16.52H14V16.02H8V16.52ZM14.25 16.27V15.27H13.75V16.27H14.25ZM14 15.02H8V15.52H14V15.02ZM7.75 15.27V16.27H8.25V15.27H7.75ZM8 12.75H17V12.25H8V12.75ZM17.25 12.5V11.5H16.75V12.5H17.25ZM17 11.25H8V11.75H17V11.25ZM7.75 11.5V12.5H8.25V11.5H7.75ZM8 8.98H17V8.48H8V8.98ZM17.25 8.73V7.73H16.75V8.73H17.25ZM17 7.48H8V7.98H17V7.48ZM7.75 7.73V8.73H8.25V7.73H7.75ZM12.5 4.693C12.7768 4.693 13.0215 4.60018 13.2144 4.40819L12.8616 4.05381C12.7705 4.14448 12.6565 4.193 12.5 4.193V4.693ZM13.2144 4.40819C13.4079 4.21552 13.5009 3.97008 13.5 3.69223L13 3.69377C13.0005 3.85058 12.9521 3.96382 12.8616 4.05381L13.2144 4.40819ZM13.5 3.69223C13.4991 3.41522 13.4061 3.17063 13.2134 2.97881L12.8606 3.33319C12.9506 3.4227 12.9995 3.53612 13 3.69377L13.5 3.69223ZM13.2134 2.97881C13.0215 2.78787 12.7781 2.69456 12.5023 2.69201L12.4977 3.19199C12.6553 3.19344 12.7698 3.2428 12.8606 3.33319L13.2134 2.97881ZM12.5023 2.69201C12.2233 2.68944 11.9773 2.78357 11.7846 2.97988L12.1414 3.33012C12.2314 3.23843 12.3434 3.19056 12.4977 3.19199L12.5023 2.69201ZM11.7846 2.97988C11.5946 3.17346 11.5009 3.41637 11.5 3.69122L12 3.69278C12.0005 3.53963 12.0487 3.42454 12.1414 3.33012L11.7846 2.97988ZM11.5 3.69122C11.4991 3.96729 11.5933 4.2112 11.785 4.40554L12.141 4.05446C12.0473 3.95947 11.9995 3.84471 12 3.69278L11.5 3.69122ZM11.785 4.40554C11.9781 4.60136 12.224 4.6973 12.5039 4.69297L12.4961 4.19303C12.3454 4.19536 12.2332 4.14797 12.141 4.05446L11.785 4.40554Z" fill="#1E1E1E" mask="url(#path-1-outside-1_164_9851)"/>
</svg>
