<svg width="22" height="22" viewBox="0 0 22 22" fill="none" xmlns="http://www.w3.org/2000/svg">
<circle cx="10.7843" cy="10.7843" r="10.4575" fill="#3066BE" stroke="#FBFBFB" stroke-width="0.653595"/>
<mask id="mask0_164_8560" style="mask-type:alpha" maskUnits="userSpaceOnUse" x="1" y="1" width="20" height="20">
<rect x="1.30762" y="1.30908" width="18.9543" height="18.9543" fill="#D9D9D9"/>
</mask>
<g mask="url(#mask0_164_8560)">
<path d="M9.20572 12.0496L13.8653 7.39004C14.0101 7.24525 14.1944 7.17285 14.4181 7.17285C14.6419 7.17285 14.8262 7.24525 14.971 7.39004C15.1158 7.53483 15.1882 7.7191 15.1882 7.94287C15.1882 8.16663 15.1158 8.35091 14.971 8.4957L9.75855 13.7081C9.6006 13.8661 9.41632 13.9451 9.20572 13.9451C8.99512 13.9451 8.81084 13.8661 8.65289 13.7081L6.59951 11.6547C6.45472 11.51 6.38232 11.3257 6.38232 11.1019C6.38232 10.8781 6.45472 10.6939 6.59951 10.5491C6.7443 10.4043 6.92858 10.3319 7.15234 10.3319C7.37611 10.3319 7.56038 10.4043 7.70517 10.5491L9.20572 12.0496Z" fill="#FBFBFB"/>
</g>
</svg>
