<svg width="16" height="16" viewBox="0 0 16 16" fill="none" xmlns="http://www.w3.org/2000/svg">
<g clip-path="url(#clip0_119_2212)">
<mask id="mask0_119_2212" style="mask-type:luminance" maskUnits="userSpaceOnUse" x="0" y="-1" width="16" height="17">
<path d="M0.427835 0.42576H15.5722V15.5701H0.427835V0.42576Z" fill="white" stroke="white" stroke-width="0.85567"/>
</mask>
<g mask="url(#mask0_119_2212)">
<path d="M7.0918 14.5458L1.45692 8.91083C0.969437 8.42335 0.969437 7.63295 1.45692 7.14546L7.0918 1.51051C7.57929 1.02303 8.36969 1.02303 8.85718 1.51051L14.4921 7.14546C14.9795 7.63295 14.9795 8.42335 14.4921 8.91083L8.85718 14.5458C8.36969 15.0333 7.57929 15.0333 7.0918 14.5458Z" fill="#3B3BE6"/>
<path d="M7.97451 1.7849C8.137 1.7849 8.28971 1.84819 8.40459 1.96307L14.0396 7.59802C14.2767 7.83514 14.2767 8.22106 14.0396 8.45824L8.40459 14.0932C8.28971 14.2081 8.137 14.2713 7.97451 14.2713C7.81201 14.2713 7.65931 14.2081 7.54443 14.0932L1.90942 8.45824C1.6723 8.22106 1.6723 7.83514 1.90942 7.59802L7.54443 1.96307C7.65931 1.84819 7.81201 1.7849 7.97451 1.7849ZM7.97451 1.1449C7.65502 1.1449 7.3356 1.26675 7.09188 1.51053L1.45688 7.14547C0.969453 7.63296 0.969453 8.4233 1.45688 8.91079L7.09188 14.5457C7.3356 14.7894 7.65502 14.9113 7.97451 14.9113C8.294 14.9113 8.61342 14.7894 8.85713 14.5457L14.4921 8.91079C14.9796 8.4233 14.9796 7.63296 14.4921 7.14547L8.85713 1.51053C8.61342 1.26675 8.294 1.1449 7.97451 1.1449Z" fill="#39359F"/>
<path d="M7.99302 1.16844C8.31251 1.16844 8.63194 1.2903 8.87565 1.53407L14.5107 7.16902C14.9981 7.65651 14.9981 8.44684 14.5107 8.93433L8.87565 14.5693C8.63194 14.813 8.31251 14.9348 7.99302 14.9348C7.67354 14.9348 7.35411 14.813 7.1104 14.5693L1.47539 8.93433C0.987967 8.44684 0.987967 7.65651 1.47539 7.16902L7.1104 1.53407C7.35411 1.2903 7.67354 1.16844 7.99302 1.16844ZM7.99302 0.528442C7.48864 0.528442 7.01446 0.724858 6.65779 1.08153L1.02285 6.71647C0.286655 7.45267 0.286655 8.65062 1.02285 9.38687L6.65779 15.0218C7.01446 15.3784 7.48864 15.5748 7.99302 15.5748C8.49741 15.5748 8.97158 15.3784 9.32819 15.0218L14.9632 9.38687C15.6994 8.65062 15.6994 7.45267 14.9632 6.71647L9.32826 1.08153C8.97158 0.724858 8.49741 0.528442 7.99302 0.528442Z" fill="#D9D9FF"/>
<path d="M5.83377 8.70349L4.6431 8.11616C4.15003 7.87284 4.14988 7.16979 4.64289 6.92637L5.83338 6.33861C6.02911 6.24195 6.16482 6.05512 6.19613 5.83907L6.38687 4.52516C6.4658 3.98105 7.13439 3.7637 7.51826 4.15735L8.44522 5.1079C8.59767 5.26425 8.81722 5.33555 9.03243 5.29861L10.3409 5.07391C10.8828 4.98089 11.2961 5.54959 11.0403 6.03632L10.4229 7.21157C10.3213 7.40488 10.3212 7.63566 10.4229 7.82891L11.0409 9.004C11.2969 9.49061 10.8837 10.0594 10.3418 9.9666L9.03315 9.74242C8.81796 9.70552 8.59844 9.77693 8.44606 9.93331L7.51947 10.8842C7.13573 11.2779 6.46709 11.0608 6.38792 10.5167L6.19672 9.20292C6.16532 8.98681 6.02958 8.80012 5.83377 8.70349Z" fill="#2E2EBC"/>
<path d="M6.22213 8.85297L4.58851 8.04706C4.29463 7.9021 4.29455 7.48307 4.5884 7.33799L6.22171 6.53166C6.33839 6.47406 6.41925 6.36262 6.43794 6.23388L6.69953 4.43124C6.74662 4.10694 7.14514 3.97733 7.37393 4.21193L8.64566 5.51609C8.73645 5.6093 8.86732 5.65178 8.9956 5.62972L10.7909 5.32152C11.1139 5.26608 11.3602 5.605 11.2078 5.89506L10.3604 7.50755C10.2998 7.62272 10.2999 7.76035 10.3605 7.87557L11.2084 9.48769C11.3609 9.77775 11.1147 10.1168 10.7917 10.0614L8.99633 9.75384C8.86804 9.73188 8.73722 9.77437 8.64637 9.8676L7.37513 11.1723C7.14638 11.407 6.74791 11.2775 6.70074 10.9532L6.43842 9.15061C6.41976 9.02186 6.33881 8.91052 6.22213 8.85297Z" fill="#FFCF00"/>
<mask id="mask1_119_2212" style="mask-type:luminance" maskUnits="userSpaceOnUse" x="0" y="-1" width="16" height="17">
<path d="M0 -0.00378418H16V15.9962H0V-0.00378418Z" fill="white"/>
</mask>
<g mask="url(#mask1_119_2212)">
<mask id="mask2_119_2212" style="mask-type:alpha" maskUnits="userSpaceOnUse" x="0" y="0" width="16" height="16">
<path d="M7.99253 0.524048C7.48815 0.524048 7.01397 0.720464 6.6573 1.07714L1.02236 6.71208C0.286167 7.44827 0.286167 8.64622 1.02236 9.38248L6.6573 15.0174C7.01397 15.374 7.48815 15.5704 7.99253 15.5704C8.49692 15.5704 8.97109 15.374 9.3277 15.0174L14.9627 9.38248C15.6989 8.64622 15.6989 7.44827 14.9627 6.71208L9.32777 1.07714C8.97109 0.720464 8.49692 0.524048 7.99253 0.524048Z" fill="#D9D9FF"/>
</mask>
<g mask="url(#mask2_119_2212)">
<g opacity="0.2">
<path d="M7.97492 -2.75879L10.5824 15.7945L8.16951 16.1337L5.56201 -2.41968L7.97492 -2.75879Z" fill="white"/>
<path d="M9.61834 -2.98903L12.2258 15.5643L11.0479 15.7299L8.44043 -2.82349L9.61834 -2.98903Z" fill="white"/>
</g>
</g>
</g>
</g>
</g>
<defs>
<clipPath id="clip0_119_2212">
<rect width="16" height="16" fill="white"/>
</clipPath>
</defs>
</svg>
