<svg width="39" height="39" viewBox="0 0 39 39" fill="none" xmlns="http://www.w3.org/2000/svg">
<mask id="mask0_164_9979" style="mask-type:alpha" maskUnits="userSpaceOnUse" x="0" y="0" width="39" height="39">
<path d="M19.3673 0.133911C8.67165 0.133911 0.000976562 8.80439 0.000976562 19.5002C0.000976562 30.1958 8.67165 38.8665 19.3673 38.8665C30.0629 38.8665 38.7336 30.1958 38.7336 19.5002C38.7336 8.80439 30.0629 0.133911 19.3673 0.133911ZM19.3673 34.9932C10.8107 34.9932 3.87423 28.0568 3.87423 19.5002C3.87423 10.9436 10.8107 4.00717 19.3673 4.00717C27.9239 4.00717 34.8603 10.9436 34.8603 19.5002C34.8603 28.0568 27.9239 34.9932 19.3673 34.9932Z" fill="#BD6130"/>
<path d="M19.3672 5.45923C11.6128 5.45923 5.32666 11.7453 5.32666 19.4998C5.32666 27.2542 11.6128 33.5403 19.3672 33.5403C27.1217 33.5403 33.4078 27.2542 33.4078 19.4998C33.4078 11.7453 27.1217 5.45923 19.3672 5.45923Z" fill="#BD6130"/>
</mask>
<g mask="url(#mask0_164_9979)">
<g opacity="0.5">
<path d="M64.3398 7.94483L54.3811 19.8132L16.999 -11.5541L26.9578 -23.4224L64.3398 7.94483Z" fill="white"/>
</g>
</g>
</svg>
