<svg width="36" height="36" viewBox="0 0 36 36" fill="none" xmlns="http://www.w3.org/2000/svg">
<path d="M8.424 29.9994C7.752 29.9994 7.18 29.7634 6.708 29.2914C6.236 28.8194 6 28.2479 6 27.5769V8.42187C6 7.75187 6.236 7.18038 6.708 6.70738C7.18 6.23538 7.752 5.99937 8.424 5.99937H15.378C15.518 5.41338 15.8295 4.92088 16.3125 4.52188C16.7955 4.12188 17.358 3.92188 18 3.92188C18.654 3.92188 19.221 4.12188 19.701 4.52188C20.181 4.91988 20.491 5.41237 20.631 5.99937H27.576C28.248 5.99937 28.82 6.23538 29.292 6.70738C29.764 7.17938 30 7.75138 30 8.42338V27.5769C30 28.2469 29.764 28.8184 29.292 29.2914C28.82 29.7634 28.2485 29.9994 27.5775 29.9994H8.424ZM8.424 28.4994H27.5775C27.8075 28.4994 28.019 28.4034 28.212 28.2114C28.405 28.0194 28.501 27.8074 28.5 27.5754V8.42338C28.5 8.19238 28.404 7.98037 28.212 7.78737C28.02 7.59437 27.808 7.49837 27.576 7.49937H24V10.8444H12V7.49937H8.424C8.193 7.49937 7.981 7.59537 7.788 7.78737C7.595 7.97937 7.499 8.19138 7.5 8.42338V27.5769C7.5 27.8069 7.596 28.0184 7.788 28.2114C7.98 28.4044 8.1915 28.5004 8.4225 28.4994M18 7.84438C18.348 7.84438 18.637 7.72987 18.867 7.50087C19.097 7.27087 19.212 6.98187 19.212 6.63387C19.212 6.28587 19.097 5.99688 18.867 5.76688C18.637 5.53688 18.348 5.42188 18 5.42188C17.652 5.42188 17.363 5.53688 17.133 5.76688C16.903 5.99688 16.788 6.28587 16.788 6.63387C16.788 6.98187 16.903 7.27087 17.133 7.50087C17.363 7.73087 17.652 7.84438 18 7.84438Z" fill="#1E1E1E"/>
</svg>
