<svg width="25" height="24" viewBox="0 0 25 24" fill="none" xmlns="http://www.w3.org/2000/svg">
<path d="M9.50001 14.9998L15.5 8.99982M11.5 5.99982L11.963 5.46382C12.9008 4.52614 14.1727 3.99942 15.4989 3.99951C16.825 3.99961 18.0968 4.52651 19.0345 5.46432C19.9722 6.40212 20.4989 7.67401 20.4988 9.00017C20.4987 10.3263 19.9718 11.5981 19.034 12.5358L18.5 12.9998M13.5 17.9998L13.103 18.5338C12.154 19.4715 10.8736 19.9974 9.53951 19.9974C8.20538 19.9974 6.92502 19.4715 5.97601 18.5338C5.50813 18.0716 5.13665 17.521 4.88311 16.9141C4.62958 16.3072 4.49902 15.656 4.49902 14.9983C4.49902 14.3406 4.62958 13.6894 4.88311 13.0825C5.13665 12.4756 5.50813 11.9251 5.97601 11.4628L6.50001 10.9998" stroke="white" stroke-width="2" stroke-linecap="round" stroke-linejoin="round"/>
</svg>
