<svg width="25" height="24" viewBox="0 0 25 24" fill="none" xmlns="http://www.w3.org/2000/svg">
<path fill-rule="evenodd" clip-rule="evenodd" d="M12.485 3.0326C14.0383 2.90003 15.5994 3.17324 17.0154 3.82546C18.4313 4.47767 19.6536 5.48653 20.5625 6.75321V4.96884C20.5625 4.74505 20.6514 4.53043 20.8096 4.37219C20.9679 4.21394 21.1825 4.12504 21.4062 4.12504C21.63 4.12504 21.8446 4.21394 22.0029 4.37219C22.1611 4.53043 22.25 4.74505 22.25 4.96884V9.75039H17.4688C17.245 9.75039 17.0304 9.66149 16.8721 9.50325C16.7139 9.345 16.625 9.13038 16.625 8.90659C16.625 8.6828 16.7139 8.46817 16.8721 8.30993C17.0304 8.15169 17.245 8.06279 17.4688 8.06279H19.4116C18.6423 6.85886 17.5371 5.90669 16.2326 5.3239C14.9282 4.74112 13.4816 4.55325 12.0715 4.7835C10.6615 5.01376 9.34981 5.65205 8.29847 6.61952C7.24714 7.587 6.50222 8.84128 6.15575 10.2274C6.13019 10.3363 6.08325 10.439 6.01764 10.5296C5.95203 10.6202 5.86907 10.6968 5.77358 10.755C5.67809 10.8133 5.57198 10.8519 5.46142 10.8688C5.35086 10.8856 5.23805 10.8803 5.12955 10.8532C5.02106 10.826 4.91904 10.7776 4.82944 10.7107C4.73983 10.6437 4.66442 10.5597 4.6076 10.4633C4.55077 10.367 4.51367 10.2603 4.49844 10.1495C4.4832 10.0387 4.49015 9.92599 4.51888 9.8179C4.97399 7.99801 5.98633 6.36582 7.41439 5.14947C8.84245 3.93312 10.6149 3.19341 12.4839 3.03372L12.485 3.0326ZM8.66 19.7421C9.86598 20.457 11.2223 20.8802 12.6208 20.9781C14.0193 21.0759 15.4213 20.8457 16.715 20.3057C18.0088 19.7658 19.1586 18.9311 20.0726 17.8681C20.9867 16.8051 21.6399 15.5433 21.98 14.1832C22.0306 13.9674 21.9944 13.7403 21.879 13.5511C21.7636 13.3618 21.5784 13.2256 21.3633 13.1718C21.1483 13.118 20.9208 13.151 20.7299 13.2636C20.539 13.3762 20.4 13.5594 20.3431 13.7736C19.9965 15.1595 19.2515 16.4135 18.2003 17.3807C17.149 18.3479 15.8375 18.986 14.4277 19.2163C13.018 19.4465 11.5716 19.2588 10.2673 18.6762C8.963 18.0937 7.85786 17.1418 7.08838 15.9383H9.03125C9.25503 15.9383 9.46964 15.8494 9.62787 15.6911C9.78611 15.5329 9.875 15.3183 9.875 15.0945C9.875 14.8707 9.78611 14.6561 9.62787 14.4978C9.46964 14.3396 9.25503 14.2507 9.03125 14.2507H4.25V19.0322C4.25 19.256 4.33889 19.4706 4.49713 19.6289C4.65536 19.7871 4.86997 19.876 5.09375 19.876C5.31753 19.876 5.53214 19.7871 5.69037 19.6289C5.84861 19.4706 5.9375 19.256 5.9375 19.0322V17.2479C6.66288 18.2585 7.58988 19.1078 8.66 19.7421Z" fill="#3066BE"/>
</svg>
