<svg width="36" height="36" viewBox="0 0 36 36" fill="none" xmlns="http://www.w3.org/2000/svg">
<path d="M24.078 2.67969L25.527 3.07119C27.2991 3.55071 28.9144 4.48643 30.212 5.78504C31.5095 7.08365 32.444 8.69976 32.922 10.4722L33.312 11.9197L30.417 12.7012L30.0255 11.2537C29.6839 9.98765 29.0163 8.8333 28.0893 7.90579C27.1623 6.97829 26.0084 6.31003 24.7425 5.96769L23.295 5.57469L24.078 2.67969ZM1.50004 2.99919H14.37L16.6005 13.0342L13.8105 15.8242C15.4502 18.3778 17.621 20.5481 20.175 22.1872L22.965 19.3987L33 21.6292V34.4992H31.5C25.7257 34.5082 20.0725 32.843 15.225 29.7052C11.6509 27.3921 8.60717 24.3483 6.29404 20.7742C3.15634 15.9267 1.49114 10.2736 1.50004 4.49919V2.99919ZM4.54054 5.99919C4.79288 10.6791 6.26624 15.2114 8.81404 19.1452C10.8966 22.3626 13.6367 25.1026 16.854 27.1852C20.7877 29.7331 25.3201 31.2065 30 31.4587V24.0352L23.9205 22.6852L20.6595 25.9477L19.665 25.3822C15.8891 23.2362 12.763 20.1101 10.617 16.3342L10.0515 15.3397L13.314 12.0787L11.964 5.99919H4.54054ZM22.707 7.74669L24.156 8.13819C25.0421 8.37795 25.8497 8.84581 26.4985 9.49512C27.1473 10.1444 27.6145 10.9525 27.8535 11.8387L28.2435 13.2862L25.3485 14.0677L24.957 12.6202C24.8545 12.2404 24.6541 11.8941 24.3759 11.6159C24.0977 11.3377 23.7514 11.1373 23.3715 11.0347L21.924 10.6432L22.707 7.74669Z" fill="#3066BE"/>
</svg>
