<svg width="20" height="20" viewBox="0 0 20 20" fill="none" xmlns="http://www.w3.org/2000/svg">
<g clip-path="url(#clip0_119_2656)">
<path d="M3.57164 12.6188H0.970215M19.0302 12.6188H16.4288M3.57164 7.38164H0.970215M19.0302 7.38164H16.4288M7.38164 3.57164V0.970215M7.38164 19.0302V16.4288M12.6188 3.57164V0.970215M12.6188 19.0302V16.4288M15.0002 3.57164H5.00022C4.62133 3.57164 4.25797 3.72215 3.99006 3.99006C3.72215 4.25797 3.57164 4.62133 3.57164 5.00022V15.0002C3.57164 15.3791 3.72215 15.7425 3.99006 16.0104C4.25797 16.2783 4.62133 16.4288 5.00022 16.4288H15.0002C15.3791 16.4288 15.7425 16.2783 16.0104 16.0104C16.2783 15.7425 16.4288 15.3791 16.4288 15.0002V5.00022C16.4288 4.62133 16.2783 4.25797 16.0104 3.99006C15.7425 3.72215 15.3791 3.57164 15.0002 3.57164Z" stroke="#3066BE" stroke-linecap="round" stroke-linejoin="round"/>
<path d="M6.66728 10.3574C6.26585 10.2889 6.26585 9.71173 6.66728 9.64173C7.37885 9.5177 8.03737 9.18463 8.55893 8.68495C9.08049 8.18527 9.44147 7.54161 9.59585 6.83601L9.62157 6.72458C9.70728 6.32744 10.2744 6.32458 10.3644 6.72173L10.393 6.8503C10.5533 7.55321 10.9177 8.19308 11.4406 8.68948C11.9634 9.18588 12.6213 9.51668 13.3316 9.6403C13.7359 9.7103 13.7359 10.2903 13.3316 10.3603C12.6215 10.4838 11.9637 10.8144 11.4409 11.3105C10.9181 11.8067 10.5535 12.4462 10.393 13.1489L10.3644 13.2774C10.2744 13.6746 9.70728 13.6717 9.62157 13.2746L9.59728 13.1646C9.44305 12.4585 9.08198 11.8144 8.56012 11.3144C8.03827 10.8145 7.3793 10.4813 6.66728 10.3574Z" fill="#3066BE" stroke="#3066BE" stroke-linecap="round" stroke-linejoin="round"/>
</g>
<defs>
<clipPath id="clip0_119_2656">
<rect width="20" height="20" fill="white"/>
</clipPath>
</defs>
</svg>
