<svg width="55" height="105" viewBox="0 0 55 105" fill="none" xmlns="http://www.w3.org/2000/svg">
<g filter="url(#filter0_d_164_8539)">
<path d="M43.3031 56.1545L44.1039 57.6704C46.5572 62.3151 49.3286 68.1095 48.9936 74.8827L48.9929 74.8975L48.9917 74.9123C48.9828 75.0255 48.9841 75.2127 48.9859 75.464C48.9944 76.6615 49.0131 79.313 47.9774 82.331C46.6996 86.0544 43.8401 90.4047 37.5626 94.0533C35.3984 95.3225 32.6142 95.7951 29.9444 95.8991C27.2532 96.0039 24.5627 95.7374 22.5073 95.4401C18.4911 94.8592 14.7508 92.5572 11.828 89.8721C8.90883 87.1903 6.68484 84.0155 5.76648 81.5216L43.3031 56.1545ZM43.3031 56.1545L42.3778 57.5977C42.2281 57.8313 42.1067 58.022 42.0051 58.1817C41.6609 58.7227 41.5444 58.9057 41.3242 59.1825C41.1495 59.402 40.9274 59.6581 40.5297 60.1166C40.5007 60.1501 40.4707 60.1847 40.4398 60.2203M43.3031 56.1545L40.4398 60.2203M16.6609 54.5364C16.3622 55.0039 15.5907 56.1966 13.7349 59.0587C13.2946 59.7377 12.6081 60.5857 11.743 61.6543C11.6161 61.811 11.4854 61.9725 11.3511 62.1389C10.3208 63.4148 9.12178 64.9274 7.95476 66.6546L8.78336 67.2145L16.6609 54.5364ZM16.6609 54.5364C16.6842 54.4755 16.7087 54.4286 16.7145 54.4176L16.7152 54.4162C16.7268 54.3941 16.7383 54.3734 16.7478 54.3568C16.748 54.3564 16.7694 54.3172 16.8086 54.2456C16.8508 54.1685 16.9136 54.0539 16.9925 53.9098L17.5329 52.9227C17.7292 52.5644 17.926 52.2055 18.0756 51.9335C18.1503 51.7976 18.2136 51.6827 18.2592 51.6002C18.282 51.5592 18.301 51.5249 18.3152 51.4996L18.3351 51.4644L18.3469 51.4442L18.3578 51.4261C18.3601 51.4224 18.3727 51.4019 18.3899 51.3772L18.3911 51.3756C19.1554 50.2867 19.4026 49.8705 19.5515 49.552C19.6238 49.3972 19.6772 49.2569 19.7617 49.0346L19.7754 48.9988C19.8667 48.7587 19.982 48.4596 20.1657 48.0408L16.6609 54.5364ZM40.4398 60.2203C39.9818 58.5555 39.5253 57.1833 38.9175 55.776C38.1018 53.8877 37.0266 51.9665 35.3509 49.206L35.3509 49.2059C33.3126 45.8483 30.448 42.9708 28.0446 40.999C26.841 40.0114 25.7323 39.234 24.8747 38.7279C24.4511 38.478 24.0586 38.2763 23.7302 38.1525C23.5713 38.0927 23.3789 38.0321 23.18 38.0096C23.0517 37.995 22.5701 37.9496 22.1917 38.3286C22.0398 38.4807 21.9609 38.6463 21.9205 38.7464C21.8766 38.8553 21.8489 38.9613 21.8302 39.0479C21.7931 39.2197 21.7715 39.4114 21.756 39.5916C21.7361 39.8226 21.7206 40.1129 21.7041 40.4213C21.6954 40.5843 21.6865 40.7523 21.6764 40.9194C21.6153 41.938 21.5036 43.1586 21.1654 44.3175C20.6659 46.0174 20.5541 46.6559 20.4877 47.0665C20.457 47.256 20.4476 47.3128 20.4192 47.406C20.3863 47.5142 20.3228 47.6826 20.1657 48.0407L40.4398 60.2203ZM17.6273 54.8578L17.6375 54.8636L17.6273 54.8578Z" fill="#F5A623" stroke="#FBFBFB" stroke-width="2"/>
</g>
<path d="M19.7823 93.3962C19.737 93.3838 17.745 92.1568 17.7144 92.124C15.9807 90.2756 16.5112 91.101 15.648 89.8446C14.6448 88.3843 14.4828 87.799 14.2257 87.0103C13.9377 86.1266 13.7944 85.8072 13.4782 83.5394C13.3715 82.7737 13.456 81.1835 13.8343 79.2591C14.1859 77.4698 17.8953 72.5805 18.3968 74.1258C19.5853 77.7892 22.9646 78.9139 22.908 78.7779C22.3661 77.5918 22.5769 64.9907 30.7417 59.5269C30.6908 59.5638 31.5325 62.7443 31.8468 63.7508C32.2695 65.1039 33.7803 67.8978 33.8209 67.9572C34.9756 69.6529 36.4351 72.1513 37.1547 73.1377C38.5506 75.0507 38.8618 75.5088 40.0271 77.3293C41.1392 79.0669 41.8241 81.73 41.6434 84.4397C41.4627 87.1525 41.0979 89.1629 38.481 92.4646C38.2323 92.7786 32.8674 94.6608 32.8761 94.4882C32.8848 94.3156 29.5794 94.8955 29.4982 94.8968C28.5001 94.9125 28.0362 94.9004 26.3516 94.9877C23.5348 95.1337 19.9565 93.444 19.7823 93.3962Z" fill="#FBFBFB"/>
<defs>
<filter id="filter0_d_164_8539" x="0" y="37" width="54.0215" height="67.9224" filterUnits="userSpaceOnUse" color-interpolation-filters="sRGB">
<feFlood flood-opacity="0" result="BackgroundImageFix"/>
<feColorMatrix in="SourceAlpha" type="matrix" values="0 0 0 0 0 0 0 0 0 0 0 0 0 0 0 0 0 0 127 0" result="hardAlpha"/>
<feOffset dy="4"/>
<feGaussianBlur stdDeviation="2"/>
<feComposite in2="hardAlpha" operator="out"/>
<feColorMatrix type="matrix" values="0 0 0 0 0 0 0 0 0 0 0 0 0 0 0 0 0 0 0.1 0"/>
<feBlend mode="normal" in2="BackgroundImageFix" result="effect1_dropShadow_164_8539"/>
<feBlend mode="normal" in="SourceGraphic" in2="effect1_dropShadow_164_8539" result="shape"/>
</filter>
</defs>
</svg>
