<svg width="31" height="31" viewBox="0 0 31 31" fill="none" xmlns="http://www.w3.org/2000/svg">
<g clip-path="url(#clip0_164_8720)">
<mask id="mask0_164_8720" style="mask-type:luminance" maskUnits="userSpaceOnUse" x="0" y="0" width="31" height="31">
<path d="M30.0197 0.557617H0.0712891V30.5061H30.0197V0.557617Z" fill="white"/>
</mask>
<g mask="url(#mask0_164_8720)">
<path d="M13.3454 27.7881L2.79812 17.2407C1.88565 16.3282 1.88565 14.8488 2.79812 13.9363L13.3454 3.38894C14.2578 2.47647 15.7373 2.47647 16.6498 3.38894L27.197 13.9363C28.1095 14.8488 28.1095 16.3282 27.197 17.2407L16.6498 27.7881C15.7373 28.7005 14.2578 28.7005 13.3454 27.7881Z" fill="#3B3BE6"/>
<path d="M14.9976 3.90253C15.3018 3.90253 15.5876 4.021 15.8026 4.23603L26.3501 14.7834C26.7939 15.2272 26.7939 15.9496 26.3501 16.3935L15.8026 26.9409C15.5876 27.1559 15.3018 27.2743 14.9976 27.2743C14.6934 27.2743 14.4076 27.1559 14.1926 26.9409L3.64509 16.3935C3.20126 15.9496 3.20126 15.2272 3.64509 14.7834L14.1926 4.23603C14.4076 4.021 14.6934 3.90253 14.9976 3.90253ZM14.9976 2.70459C14.3996 2.70459 13.8017 2.93268 13.3455 3.38897L2.79803 13.9363C1.88568 14.8488 1.88568 16.3281 2.79803 17.2406L13.3455 27.788C13.8017 28.2442 14.3996 28.4722 14.9976 28.4722C15.5956 28.4722 16.1935 28.2442 16.6497 27.788L27.1972 17.2406C28.1095 16.3281 28.1095 14.8488 27.1972 13.9363L16.6497 3.38897C16.1935 2.93268 15.5956 2.70459 14.9976 2.70459Z" fill="#39359F"/>
<path d="M15.0337 2.74872C15.6317 2.74872 16.2296 2.97681 16.6858 3.4331L27.2333 13.9805C28.1456 14.8929 28.1456 16.3723 27.2333 17.2847L16.6858 27.8321C16.2296 28.2883 15.6317 28.5164 15.0337 28.5164C14.4357 28.5164 13.8378 28.2883 13.3817 27.8321L2.83417 17.2847C1.92182 16.3723 1.92182 14.8929 2.83417 13.9805L13.3817 3.4331C13.8378 2.97681 14.4357 2.74872 15.0337 2.74872ZM15.0337 1.55078C14.0896 1.55078 13.2021 1.91843 12.5345 2.58604L1.9871 13.1334C0.609116 14.5114 0.609116 16.7537 1.9871 18.1318L12.5345 28.6792C13.2021 29.3467 14.0896 29.7143 15.0337 29.7143C15.9778 29.7143 16.8654 29.3467 17.5329 28.6792L28.0804 18.1318C29.4583 16.7537 29.4583 14.5114 28.0804 13.1334L17.533 2.58604C16.8654 1.91843 15.9778 1.55078 15.0337 1.55078Z" fill="#D9D9FF"/>
<path d="M10.9904 16.8528L8.76176 15.7535C7.83884 15.298 7.83856 13.9821 8.76137 13.5264L10.9897 12.4263C11.3561 12.2454 11.6101 11.8957 11.6687 11.4913L12.0257 9.03191C12.1735 8.01346 13.4249 7.60664 14.1434 8.34345L15.8785 10.1227C16.1638 10.4153 16.5748 10.5488 16.9776 10.4796L19.4268 10.0591C20.4411 9.88494 21.2147 10.9494 20.736 11.8605L19.5802 14.0603C19.39 14.4221 19.3899 14.8541 19.5802 15.2158L20.7371 17.4153C21.2163 18.3261 20.4428 19.3909 19.4284 19.2171L16.979 18.7975C16.5762 18.7284 16.1653 18.8621 15.8801 19.1548L14.1457 20.9346C13.4274 21.6716 12.1759 21.2653 12.0277 20.2468L11.6698 17.7876C11.611 17.3831 11.3569 17.0337 10.9904 16.8528Z" fill="#2E2EBC"/>
<path d="M11.7174 17.1325L8.65962 15.624C8.10954 15.3527 8.10939 14.5683 8.65941 14.2968L11.7166 12.7875C11.935 12.6797 12.0864 12.4711 12.1213 12.2301L12.611 8.85597C12.6991 8.24896 13.4451 8.00637 13.8733 8.44549L16.2537 10.8866C16.4237 11.061 16.6686 11.1406 16.9087 11.0993L20.2691 10.5224C20.8736 10.4186 21.3347 11.053 21.0495 11.5959L19.4633 14.6141C19.35 14.8297 19.35 15.0873 19.4635 15.303L21.0505 18.3205C21.336 18.8635 20.8752 19.498 20.2706 19.3945L16.9101 18.8187C16.67 18.7776 16.4251 18.8571 16.255 19.0316L13.8756 21.4737C13.4474 21.9131 12.7015 21.6706 12.6132 21.0637L12.1223 17.6896C12.0873 17.4486 11.9358 17.2402 11.7174 17.1325Z" fill="#FFCF00"/>
<mask id="mask1_164_8720" style="mask-type:luminance" maskUnits="userSpaceOnUse" x="0" y="0" width="31" height="31">
<path d="M0.0708008 0.554688H30.0193V30.5031H0.0708008V0.554688Z" fill="white"/>
</mask>
<g mask="url(#mask1_164_8720)">
<mask id="mask2_164_8720" style="mask-type:alpha" maskUnits="userSpaceOnUse" x="0" y="1" width="30" height="29">
<path d="M15.0352 1.54248C14.0911 1.54248 13.2035 1.91013 12.5359 2.57774L1.98857 13.1251C0.610581 14.5031 0.610581 16.7454 1.98857 18.1235L12.5359 28.6709C13.2035 29.3384 14.0911 29.706 15.0352 29.706C15.9793 29.706 16.8668 29.3384 17.5343 28.6709L28.0818 18.1235C29.4598 16.7454 29.4598 14.5031 28.0818 13.1251L17.5345 2.57774C16.8668 1.91013 15.9793 1.54248 15.0352 1.54248Z" fill="#D9D9FF"/>
</mask>
<g mask="url(#mask2_164_8720)">
<g opacity="0.2">
<path d="M15.0013 -4.60203L19.882 30.1257L15.3655 30.7605L10.4849 -3.96729L15.0013 -4.60203Z" fill="white"/>
<path d="M18.0764 -5.03301L22.957 29.6947L20.7522 30.0046L15.8716 -4.72314L18.0764 -5.03301Z" fill="white"/>
</g>
</g>
</g>
</g>
</g>
<defs>
<clipPath id="clip0_164_8720">
<rect width="29.9485" height="29.9485" fill="white" transform="translate(0.0722656 0.5625)"/>
</clipPath>
</defs>
</svg>
