<svg width="134" height="159" viewBox="0 0 134 159" fill="none" xmlns="http://www.w3.org/2000/svg">
<path d="M70.5053 31.3667C49.6498 49.6169 13.6798 37.0357 2.50256 51.6095L34.4406 76.8914L70.5053 31.3667Z" fill="#3335CF"/>
<path d="M2.50106 51.6113C0.903127 55.8641 1.76803 60.6479 4.75797 64.0691L27.3885 89.9808L34.4391 76.8932L2.50106 51.6113Z" fill="#D1D1FF"/>
<path d="M117.774 68.7839C104.784 93.2589 125.277 125.375 113.647 139.591L81.7091 114.309L117.774 68.7839Z" fill="#3335CF"/>
<path d="M113.646 139.591C109.874 142.119 105.014 142.374 100.999 140.25L70.5805 124.17L81.7083 114.31L113.646 139.591Z" fill="#D1D1FF"/>
<path d="M134 0L105.563 10.4363L130.355 30.0616L134 0Z" fill="#1B1B43"/>
<path d="M130.354 30.0627C126.38 75.0399 93.1362 117.012 52.7555 140.322L15.9578 111.223C31.3976 62.6645 60.1521 27.9137 105.557 10.4333L130.354 30.0627Z" fill="#C5C5FF"/>
<path d="M15.9629 111.226L0 122.276L45.6522 158.414L52.7565 140.324L15.9629 111.226Z" fill="#3335CF"/>
<path d="M96.9048 66.3104C106.271 65.1969 112.961 56.7039 111.847 47.3409C110.733 37.9778 102.237 31.2903 92.8707 32.4039C83.5043 33.5174 76.8144 42.0104 77.9284 51.3734C79.0424 60.7365 87.5384 67.424 96.9048 66.3104Z" fill="#FBFBFB"/>
<path d="M96.1788 61.473L96.0717 60.4479C97.0519 60.345 98.0115 60.1103 98.934 59.7521L99.3047 60.7114C98.2998 61.1066 97.2455 61.3619 96.1788 61.473ZM92.9623 61.3907C91.8957 61.2219 90.8579 60.9131 89.8818 60.4685L90.306 59.5298C91.2038 59.9333 92.151 60.2174 93.123 60.3738L92.9623 61.3907ZM102.118 59.1675L101.508 58.34C102.295 57.7554 103.007 57.0679 103.621 56.2939L104.428 56.9321C103.757 57.776 102.982 58.5294 102.118 59.1675ZM87.1513 58.7723C86.3153 58.0848 85.5781 57.2944 84.9562 56.4216L85.7964 55.8246C86.3647 56.6233 87.0401 57.3479 87.8061 57.9778L87.1513 58.7723ZM105.684 54.993L104.77 54.5196C105.223 53.6468 105.56 52.7164 105.771 51.753L106.775 51.9712C106.549 53.0251 106.182 54.0379 105.684 54.993ZM83.4613 53.5768C83.0906 52.5681 82.8558 51.5142 82.7611 50.4397L83.7866 50.3491C83.8731 51.3331 84.0872 52.3006 84.4291 53.2227L83.4613 53.5768ZM106.014 48.8177C105.964 47.8296 105.783 46.858 105.478 45.9235L106.458 45.6065C106.792 46.6275 106.985 47.6896 107.043 48.7641L106.014 48.8177ZM83.9143 47.4097L82.9012 47.2285C83.0906 46.1664 83.4201 45.1371 83.8813 44.1656L84.8121 44.6061C84.392 45.4953 84.0872 46.4381 83.9143 47.4097ZM104.21 43.2722C103.67 42.4529 103.024 41.7037 102.282 41.0449L102.966 40.2751C103.773 40.9914 104.481 41.8107 105.07 42.7082L104.21 43.2722ZM86.4141 42.14L85.6317 41.4731C86.3318 40.6538 87.1348 39.9293 88.0244 39.3241L88.6051 40.1763C87.7938 40.7238 87.0566 41.3866 86.4141 42.14ZM99.8441 39.3982C98.9628 38.9577 98.0239 38.6407 97.0602 38.4513L97.2578 37.4427C98.3121 37.6526 99.3376 38.0026 100.301 38.4801L99.8441 39.3982ZM91.2326 38.8506L90.8949 37.8791C91.908 37.5291 92.9706 37.3109 94.0455 37.2368L94.1196 38.266C93.1353 38.3319 92.1634 38.5295 91.2326 38.8506Z" fill="#9192FF"/>
<path d="M10.7374 156.443L9.92194 155.796C8.72761 154.85 8.52582 153.1 9.46892 151.906L41.4935 111.478C42.4407 110.284 44.191 110.082 45.3853 111.025L46.2008 111.672C47.3951 112.618 47.5969 114.368 46.6538 115.562L14.6293 155.99C13.682 157.188 11.9317 157.39 10.7374 156.443Z" fill="#1B1B43"/>
</svg>
