<svg width="60" height="75" viewBox="0 0 60 75" fill="none" xmlns="http://www.w3.org/2000/svg">
<g filter="url(#filter0_d_164_10243)">
<path d="M48.5981 21.3506L49.3942 22.8189C52.1954 27.985 55.3498 34.4134 54.9685 41.9249L54.9677 41.94L54.9665 41.9552C54.9559 42.0856 54.9574 42.2989 54.9593 42.5836C54.9686 43.924 54.9889 46.8494 53.8126 50.1883C52.3605 54.3101 49.1119 59.1269 41.9721 63.1695C39.5323 64.5637 36.3831 65.0875 33.3446 65.2028C30.2846 65.3189 27.2224 65.0237 24.8799 64.6936C20.3369 64.0535 16.0914 61.5132 12.763 58.5345C9.44002 55.5605 6.91174 52.0423 5.86976 49.2857C4.65923 46.0832 4.86727 42.5822 5.55529 39.63C6.24298 36.6792 7.43995 34.1495 8.35766 32.8262L9.17466 33.3929L8.35766 32.8262C9.68783 30.9083 11.0549 29.2283 12.2312 27.8091C12.3845 27.6242 12.5338 27.4445 12.6788 27.27C13.666 26.0821 14.4548 25.133 14.9613 24.372C17.0932 21.169 17.9728 19.8443 18.3102 19.3298C18.3487 19.2288 18.4035 19.139 18.4061 19.1347L18.4062 19.1346L18.4062 19.1346C18.4061 19.1348 18.4192 19.1115 18.4439 19.0675C18.4893 18.9868 18.5737 18.8366 18.6866 18.6356L18.7073 18.5989C18.8738 18.3026 19.0887 17.92 19.304 17.5372C19.5282 17.1385 19.753 16.7391 19.9237 16.4366C20.009 16.2854 20.0813 16.1577 20.1334 16.066C20.1593 16.0204 20.181 15.9824 20.197 15.9545L20.2193 15.9162L20.2319 15.8951L20.2433 15.8767L20.2436 15.8763C20.2465 15.8716 20.2593 15.8515 20.2765 15.8275L20.2777 15.8259C21.1509 14.6139 21.4384 14.144 21.6128 13.7805C21.697 13.6049 21.7592 13.4455 21.8553 13.1995L21.8714 13.1582C21.9755 12.8917 22.1065 12.5606 22.3154 12.0967L48.5981 21.3506ZM48.5981 21.3506L47.6798 22.7458C47.5102 23.0035 47.3723 23.2147 47.2565 23.3919C46.8619 23.9961 46.7251 24.2056 46.4694 24.5186C46.2685 24.7646 46.0123 25.0523 45.5554 25.5655C45.4681 25.6636 45.3735 25.7699 45.2705 25.8857M48.5981 21.3506L45.2705 25.8857M45.2705 25.8857C44.7243 23.9223 44.1891 22.3338 43.4664 20.7037C42.5377 18.6092 41.3127 16.4763 39.3991 13.4054L38.5504 13.9343L39.3991 13.4054C37.0795 9.68316 33.8181 6.49125 31.0809 4.30349C29.7101 3.20786 28.4497 2.34719 27.478 1.78865C26.9972 1.51232 26.5576 1.29276 26.1946 1.15949C26.0183 1.09476 25.8129 1.03254 25.6054 1.00961C25.4702 0.994662 24.9874 0.95063 24.6053 1.32332C24.3297 1.59226 24.2504 1.94665 24.2227 2.07175C24.1816 2.2573 24.1573 2.46613 24.1396 2.6657C24.117 2.92144 24.0995 3.24185 24.0807 3.58402C24.0708 3.76568 24.0605 3.95348 24.0489 4.14098C23.979 5.2756 23.8511 6.64186 23.4618 7.94143C22.892 9.83048 22.7653 10.5374 22.6901 10.9901C22.6552 11.2001 22.6436 11.2692 22.609 11.3797C22.5696 11.5058 22.4951 11.6975 22.3154 12.0967L45.2705 25.8857Z" fill="#F5A623" stroke="#FBFBFB" stroke-width="2"/>
</g>
<path d="M21.7444 62.5378C21.6927 62.524 19.4172 61.1586 19.3822 61.1221C17.4019 59.0653 18.0079 59.9838 17.0219 58.5857C15.8759 56.9608 15.6909 56.3095 15.3972 55.4319C15.0682 54.4484 14.9045 54.093 14.5434 51.5695C14.4214 50.7174 14.518 48.9479 14.9501 46.8065C15.3518 44.8155 19.5889 39.3748 20.1617 41.0943C21.5194 45.1709 25.3794 46.4223 25.3148 46.2711C24.6958 44.9512 24.9366 30.9291 34.2631 24.8491C34.2049 24.8902 35.1664 28.4294 35.5254 29.5494C36.0082 31.055 37.7339 34.164 37.7804 34.2302C39.0993 36.1171 40.7665 38.8972 41.5885 39.9948C43.1829 42.1236 43.5384 42.6333 44.8695 44.6591C46.1399 46.5926 46.9222 49.5561 46.7158 52.5713C46.5094 55.59 46.0927 57.8271 43.1035 61.5012C42.8194 61.8506 36.6912 63.9451 36.7011 63.753C36.711 63.5609 32.9354 64.2062 32.8426 64.2076C31.7025 64.2251 31.1726 64.2116 29.2483 64.3088C26.0307 64.4713 21.9433 62.591 21.7444 62.5378Z" fill="#FBFBFB"/>
<defs>
<filter id="filter0_d_164_10243" x="0" y="-0.000244141" width="60" height="74.2288" filterUnits="userSpaceOnUse" color-interpolation-filters="sRGB">
<feFlood flood-opacity="0" result="BackgroundImageFix"/>
<feColorMatrix in="SourceAlpha" type="matrix" values="0 0 0 0 0 0 0 0 0 0 0 0 0 0 0 0 0 0 127 0" result="hardAlpha"/>
<feOffset dy="4"/>
<feGaussianBlur stdDeviation="2"/>
<feComposite in2="hardAlpha" operator="out"/>
<feColorMatrix type="matrix" values="0 0 0 0 0 0 0 0 0 0 0 0 0 0 0 0 0 0 0.1 0"/>
<feBlend mode="normal" in2="BackgroundImageFix" result="effect1_dropShadow_164_10243"/>
<feBlend mode="normal" in="SourceGraphic" in2="effect1_dropShadow_164_10243" result="shape"/>
</filter>
</defs>
</svg>
