<svg width="25" height="24" viewBox="0 0 25 24" fill="none" xmlns="http://www.w3.org/2000/svg">
<path d="M7 11L12.5 2L18 11H7ZM18 22C16.75 22 15.6877 21.5627 14.813 20.688C13.9383 19.8133 13.5007 18.7507 13.5 17.5C13.4993 16.2493 13.937 15.187 14.813 14.313C15.689 13.439 16.7513 13.0013 18 13C19.2487 12.9987 20.3113 13.4363 21.188 14.313C22.0647 15.1897 22.502 16.252 22.5 17.5C22.498 18.748 22.0607 19.8107 21.188 20.688C20.3153 21.5653 19.2527 22.0027 18 22ZM3.5 21.5V13.5H11.5V21.5H3.5ZM18 20C18.7 20 19.2917 19.7583 19.775 19.275C20.2583 18.7917 20.5 18.2 20.5 17.5C20.5 16.8 20.2583 16.2083 19.775 15.725C19.2917 15.2417 18.7 15 18 15C17.3 15 16.7083 15.2417 16.225 15.725C15.7417 16.2083 15.5 16.8 15.5 17.5C15.5 18.2 15.7417 18.7917 16.225 19.275C16.7083 19.7583 17.3 20 18 20ZM5.5 19.5H9.5V15.5H5.5V19.5ZM10.55 9H14.45L12.5 5.85L10.55 9Z" fill="white"/>
</svg>
