<svg width="36" height="36" viewBox="0 0 36 36" fill="none" xmlns="http://www.w3.org/2000/svg">
<path d="M29.25 3.65625H10.125C9.00612 3.65625 7.93306 4.10072 7.14189 4.89189C6.35072 5.68306 5.90625 6.75612 5.90625 7.875V31.5C5.90625 31.7238 5.99514 31.9384 6.15338 32.0966C6.31161 32.2549 6.52622 32.3438 6.75 32.3438H27C27.2238 32.3438 27.4384 32.2549 27.5966 32.0966C27.7549 31.9384 27.8438 31.7238 27.8438 31.5C27.8438 31.2762 27.7549 31.0616 27.5966 30.9034C27.4384 30.7451 27.2238 30.6562 27 30.6562H7.59375V30.375C7.59375 29.7037 7.86043 29.0598 8.33514 28.5851C8.80984 28.1104 9.45367 27.8438 10.125 27.8438H29.25C29.4738 27.8438 29.6884 27.7549 29.8466 27.5966C30.0049 27.4384 30.0938 27.2238 30.0938 27V4.5C30.0938 4.27622 30.0049 4.06161 29.8466 3.90338C29.6884 3.74514 29.4738 3.65625 29.25 3.65625ZM28.4062 26.1562H10.125C9.21197 26.1549 8.32338 26.4511 7.59375 27V7.875C7.59375 7.20367 7.86043 6.55984 8.33514 6.08514C8.80984 5.61043 9.45367 5.34375 10.125 5.34375H28.4062V26.1562Z" fill="#1E1E1E"/>
</svg>
