<svg width="36" height="36" viewBox="0 0 36 36" fill="none" xmlns="http://www.w3.org/2000/svg">
<path d="M5.625 32.625V4.79109C5.62535 4.69269 5.6515 4.5961 5.70086 4.51097C5.75021 4.42584 5.82103 4.35514 5.90625 4.30594C6.45539 3.98391 7.93969 3.375 11.25 3.375C15.75 3.375 21.4453 6.75 24.75 6.75C26.6158 6.74521 28.4619 6.36825 30.1802 5.64117C30.2016 5.63225 30.2249 5.62875 30.248 5.63099C30.271 5.63323 30.2932 5.64114 30.3125 5.65402C30.3318 5.66689 30.3476 5.68433 30.3585 5.70478C30.3694 5.72524 30.375 5.74807 30.375 5.77125V21.195C30.3748 21.2495 30.3589 21.3027 30.329 21.3482C30.2992 21.3938 30.2568 21.4297 30.207 21.4516C29.6276 21.7055 27.5857 22.5 24.75 22.5C21.375 22.5 15.75 20.25 11.25 20.25C6.75 20.25 5.625 21.375 5.625 21.375" stroke="#1E1E1E" stroke-width="2.25" stroke-miterlimit="10" stroke-linecap="round"/>
</svg>
