<svg width="20" height="20" viewBox="0 0 20 20" fill="none" xmlns="http://www.w3.org/2000/svg">
<mask id="mask0_119_2508" style="mask-type:alpha" maskUnits="userSpaceOnUse" x="0" y="0" width="20" height="20">
<rect width="20" height="20" fill="#D9D9D9"/>
</mask>
<g mask="url(#mask0_119_2508)">
<path d="M9.99984 15L6.49984 16.5C5.94428 16.7361 5.4165 16.691 4.9165 16.3646C4.4165 16.0382 4.1665 15.5764 4.1665 14.9792V4.16667C4.1665 3.70833 4.3297 3.31597 4.65609 2.98958C4.98248 2.66319 5.37484 2.5 5.83317 2.5H14.1665C14.6248 2.5 15.0172 2.66319 15.3436 2.98958C15.67 3.31597 15.8332 3.70833 15.8332 4.16667V14.9792C15.8332 15.5764 15.5832 16.0382 15.0832 16.3646C14.5832 16.691 14.0554 16.7361 13.4998 16.5L9.99984 15ZM9.99984 13.1667L14.1665 14.9583V4.16667H5.83317V14.9583L9.99984 13.1667Z" fill="#FBFBFB"/>
</g>
</svg>
