<svg width="42" height="42" viewBox="0 0 42 42" fill="none" xmlns="http://www.w3.org/2000/svg">
<path d="M35 35V36.75H36.75V35H35ZM27.4872 25.0128C27.1572 24.694 26.7151 24.5176 26.2563 24.5216C25.7975 24.5256 25.3585 24.7096 25.0341 25.0341C24.7096 25.3585 24.5256 25.7975 24.5216 26.2563C24.5176 26.7151 24.694 27.1572 25.0128 27.4872L27.4872 25.0128ZM33.25 24.5V35H36.75V24.5H33.25ZM35 33.25H24.5V36.75H35V33.25ZM36.2373 33.7627L27.4872 25.0128L25.0128 27.4872L33.7627 36.2373L36.2373 33.7627ZM7 35H5.25V36.75H7V35ZM16.9872 27.4872C17.306 27.1572 17.4824 26.7151 17.4784 26.2563C17.4744 25.7975 17.2904 25.3585 16.9659 25.0341C16.6415 24.7096 16.2025 24.5256 15.7437 24.5216C15.2849 24.5176 14.8428 24.694 14.5128 25.0128L16.9872 27.4872ZM5.25 24.5V35H8.75V24.5H5.25ZM7 36.75H17.5V33.25H7V36.75ZM8.23725 36.2373L16.9872 27.4872L14.5128 25.0128L5.76275 33.7627L8.23725 36.2373ZM35 7H36.75V5.25H35V7ZM25.0128 14.5128C24.694 14.8428 24.5176 15.2849 24.5216 15.7437C24.5256 16.2025 24.7096 16.6415 25.0341 16.9659C25.3585 17.2904 25.7975 17.4744 26.2563 17.4784C26.7151 17.4824 27.1572 17.306 27.4872 16.9872L25.0128 14.5128ZM36.75 17.5V7H33.25V17.5H36.75ZM35 5.25H24.5V8.75H35V5.25ZM33.7627 5.76275L25.0128 14.5128L27.4872 16.9872L36.2373 8.23725L33.7627 5.76275ZM7 7V5.25H5.25V7H7ZM14.5128 16.9872C14.8428 17.306 15.2849 17.4824 15.7437 17.4784C16.2025 17.4744 16.6415 17.2904 16.9659 16.9659C17.2904 16.6415 17.4744 16.2025 17.4784 15.7437C17.4824 15.2849 17.306 14.8428 16.9872 14.5128L14.5128 16.9872ZM8.75 17.5V7H5.25V17.5H8.75ZM7 8.75H17.5V5.25H7V8.75ZM5.76275 8.23725L14.5128 16.9872L16.9872 14.5128L8.23725 5.76275L5.76275 8.23725Z" fill="#FBFBFB"/>
</svg>
