<svg width="66" height="67" viewBox="0 0 66 67" fill="none" xmlns="http://www.w3.org/2000/svg">
<path d="M7.78046 56.582L23.6098 66.4801L26.6022 61.5934C27.0381 60.902 27.6526 60.3431 28.3797 59.9768C29.1069 59.6104 29.9193 59.4505 30.7298 59.514C31.6559 59.6005 32.586 59.6353 33.5159 59.618C34.3351 59.5917 35.1455 59.7956 35.8562 60.2069C36.5669 60.6182 37.1501 61.2207 37.5403 61.9469L40.2232 67L56.6304 58.1207L53.9474 53.0677C53.5651 52.3398 53.3899 51.5196 53.4409 50.6977C53.4918 49.8757 53.7671 49.084 54.2364 48.4097C54.7755 47.6453 55.2649 46.8465 55.7016 46.0183C56.0946 45.2929 56.6777 44.6901 57.3874 44.2757C58.097 43.8614 58.906 43.6513 59.7261 43.6685L65.4221 43.8557L66 25.1406L60.4277 24.9327C59.6062 24.9012 58.8097 24.6392 58.1278 24.1763C57.446 23.7134 56.906 23.0679 56.5685 22.3125C56.3827 21.8967 56.1763 21.5016 55.9493 21.0857C55.7223 20.6698 55.5159 20.2747 55.2889 19.8796C54.8596 19.1798 54.6322 18.3733 54.6322 17.5506C54.6322 16.7279 54.8596 15.9214 55.2889 15.2216L58.302 10.3141L42.4934 0.4159L39.3358 5.30261C38.9033 5.99733 38.2894 6.55878 37.5614 6.92554C36.8334 7.2923 36.0193 7.45024 35.2082 7.38207C34.2871 7.33055 33.3639 7.33055 32.4428 7.38207C31.6231 7.41077 30.8118 7.20787 30.1007 6.7963C29.3895 6.38473 28.8067 5.78089 28.4184 5.05307L25.7355 0L9.22514 8.87928L11.9287 13.9323C12.3127 14.6608 12.4871 15.4828 12.4324 16.3058C12.3777 17.1287 12.0961 17.92 11.6191 18.5903C11.1032 19.3597 10.6079 20.1499 10.1745 20.9609C9.78701 21.691 9.20512 22.2977 8.49417 22.7129C7.78323 23.128 6.97145 23.335 6.15011 23.3107L0.577858 23.0403L0 41.7554L5.69608 41.9218C6.51407 41.9571 7.30623 42.2208 7.98408 42.6835C8.66194 43.1462 9.19877 43.7896 9.5347 44.5419C9.74107 44.9578 9.94745 45.3737 10.1745 45.7688C10.4015 46.1639 10.6079 46.5798 10.8349 46.9749C11.2638 47.6787 11.4908 48.4884 11.4908 49.3143C11.4908 50.1401 11.2638 50.9499 10.8349 51.6536L7.78046 56.582ZM19.5441 40.7157C18.1106 38.04 17.4972 34.9959 17.7815 31.9687C18.0657 28.9416 19.2349 26.0674 21.141 23.71C23.0471 21.3527 25.6044 19.618 28.4893 18.7257C31.3742 17.8334 34.457 17.8235 37.3475 18.6972C40.238 19.5709 42.8063 21.289 44.7273 23.6341C46.6483 25.9791 47.8357 28.8457 48.1392 31.871C48.4426 34.8962 47.8486 37.9442 46.4321 40.6291C45.0157 43.3141 42.8405 45.5152 40.182 46.9541C38.4168 47.9081 36.4822 48.502 34.4889 48.7016C32.4956 48.9012 30.4828 48.7027 28.5658 48.1174C26.6488 47.5322 24.8652 46.5716 23.3171 45.2908C21.769 44.01 20.4869 42.4341 19.5441 40.6533V40.7157Z" fill="#5083D5"/>
</svg>
