<svg width="42" height="42" viewBox="0 0 42 42" fill="none" xmlns="http://www.w3.org/2000/svg">
<path fill-rule="evenodd" clip-rule="evenodd" d="M24.472 4.4485C24.6243 4.74425 24.6628 5.124 24.738 5.8835C24.8815 7.3185 24.9532 8.036 25.2542 8.4315C25.4418 8.67706 25.691 8.8686 25.9765 8.98663C26.2621 9.10466 26.5738 9.14498 26.88 9.1035C27.37 9.03875 27.93 8.582 29.0465 7.6685C29.6362 7.18375 29.932 6.94225 30.2487 6.84075C30.6522 6.71184 31.0887 6.7336 31.4772 6.902C31.7835 7.035 32.0548 7.3045 32.592 7.8435L34.1565 9.408C34.6955 9.947 34.965 10.2165 35.098 10.5227C35.2664 10.9113 35.2882 11.3478 35.1592 11.7513C35.0577 12.068 34.8162 12.3637 34.3332 12.9535C33.418 14.0717 32.9613 14.63 32.8948 15.1217C32.8538 15.4278 32.8945 15.7393 33.0129 16.0245C33.1312 16.3097 33.3229 16.5586 33.5685 16.7458C33.9622 17.0468 34.6815 17.1185 36.1182 17.262C36.876 17.3373 37.2557 17.3757 37.5532 17.528C37.9285 17.7226 38.2207 18.0465 38.3758 18.4397C38.5 18.7495 38.5 19.131 38.5 19.894V22.106C38.5 22.869 38.5 23.2505 38.3775 23.5585C38.2219 23.953 37.9284 24.2776 37.5515 24.472C37.2557 24.6243 36.876 24.6628 36.1165 24.738C34.6815 24.8815 33.964 24.9532 33.5685 25.2542C33.3229 25.4418 33.1314 25.691 33.0134 25.9765C32.8953 26.2621 32.855 26.5738 32.8965 26.88C32.963 27.37 33.4197 27.93 34.3332 29.0465C34.8162 29.6362 35.0577 29.9303 35.1592 30.2487C35.2882 30.6522 35.2664 31.0887 35.098 31.4772C34.965 31.7835 34.6955 32.053 34.1565 32.592L32.592 34.1548C32.053 34.6955 31.7835 34.965 31.4772 35.0963C31.0887 35.2646 30.6522 35.2864 30.2487 35.1575C29.932 35.056 29.6362 34.8145 29.0465 34.3315C27.9282 33.418 27.37 32.9613 26.88 32.8965C26.5738 32.855 26.2621 32.8953 25.9765 33.0134C25.691 33.1314 25.4418 33.3229 25.2542 33.5685C24.9532 33.9622 24.8815 34.6798 24.738 36.1165C24.6628 36.876 24.6243 37.2557 24.472 37.5515C24.2781 37.9281 23.9541 38.2216 23.5603 38.3775C23.2505 38.5 22.869 38.5 22.106 38.5H19.894C19.131 38.5 18.7495 38.5 18.4415 38.3775C18.047 38.2219 17.7224 37.9284 17.528 37.5515C17.3757 37.2557 17.3373 36.876 17.262 36.1165C17.1185 34.6815 17.0468 33.964 16.7458 33.5685C16.5584 33.3232 16.3094 33.1319 16.0242 33.0138C15.739 32.8958 15.4277 32.8553 15.1217 32.8965C14.63 32.9613 14.0717 33.418 12.9535 34.3315C12.3637 34.8162 12.068 35.0577 11.7513 35.1592C11.3478 35.2882 10.9113 35.2664 10.5227 35.098C10.2165 34.965 9.94525 34.6955 9.408 34.1565L7.8435 32.592C7.3045 32.053 7.035 31.7835 6.902 31.4772C6.7336 31.0887 6.71184 30.6522 6.84075 30.2487C6.94225 29.932 7.18375 29.6362 7.66675 29.0465C8.582 27.9282 9.03875 27.37 9.1035 26.8783C9.14466 26.5723 9.10418 26.261 8.98616 25.9758C8.86814 25.6906 8.67678 25.4416 8.4315 25.2542C8.03775 24.9532 7.3185 24.8815 5.88175 24.738C5.124 24.6628 4.74425 24.6243 4.44675 24.472C4.07146 24.2774 3.77929 23.9535 3.62425 23.5603C3.5 23.2505 3.5 22.869 3.5 22.106V19.894C3.5 19.131 3.5 18.7495 3.6225 18.4415C3.77805 18.047 4.07158 17.7224 4.4485 17.528C4.74425 17.3757 5.124 17.3373 5.8835 17.262C7.3185 17.1185 8.03775 17.0468 8.4315 16.7458C8.6771 16.5586 8.8688 16.3097 8.98713 16.0245C9.10546 15.7393 9.14621 15.4278 9.10525 15.1217C9.03875 14.63 8.58025 14.0717 7.66675 12.9517C7.18375 12.362 6.94225 12.068 6.84075 11.7495C6.71184 11.3461 6.7336 10.9096 6.902 10.521C7.035 10.2165 7.3045 9.94525 7.8435 9.40625L9.408 7.8435C9.947 7.3045 10.2165 7.03325 10.5227 6.902C10.9113 6.7336 11.3478 6.71184 11.7513 6.84075C12.068 6.94225 12.3637 7.18375 12.9535 7.66675C14.0717 8.58025 14.63 9.037 15.12 9.1035C15.4266 9.14511 15.7388 9.10468 16.0247 8.98632C16.3106 8.86796 16.56 8.67591 16.7475 8.42975C17.045 8.036 17.1185 7.3185 17.262 5.88175C17.3373 5.124 17.3757 4.74425 17.528 4.44675C17.7223 4.0708 18.0462 3.77798 18.4397 3.6225C18.7495 3.5 19.131 3.5 19.894 3.5H22.106C22.869 3.5 23.2505 3.5 23.5585 3.6225C23.953 3.77805 24.2776 4.07158 24.472 4.4485ZM21 28C22.8565 28 24.637 27.2625 25.9497 25.9497C27.2625 24.637 28 22.8565 28 21C28 19.1435 27.2625 17.363 25.9497 16.0503C24.637 14.7375 22.8565 14 21 14C19.1435 14 17.363 14.7375 16.0503 16.0503C14.7375 17.363 14 19.1435 14 21C14 22.8565 14.7375 24.637 16.0503 25.9497C17.363 27.2625 19.1435 28 21 28Z" fill="#FBFBFB"/>
</svg>
