<svg width="55" height="63" viewBox="0 0 55 63" fill="none" xmlns="http://www.w3.org/2000/svg">
<g filter="url(#filter0_d_164_8101)">
<path d="M43.3005 17.5389L44.0797 18.8522C46.5295 22.9813 49.332 28.184 48.9933 34.2819L48.9924 34.2985L48.9909 34.315C48.9829 34.4048 48.9844 34.5594 48.9863 34.7699C48.9959 35.815 49.0181 38.2394 47.9646 40.9721C46.6696 44.3316 43.7875 48.2127 37.5196 51.456C35.3674 52.5797 32.5999 52.9984 29.9401 53.0906C27.2581 53.1836 24.5748 52.9472 22.5227 52.6829C18.5333 52.1692 14.8011 50.1297 11.8714 47.7335C8.95256 45.3463 6.71236 42.5076 5.78081 40.2554L43.3005 17.5389ZM43.3005 17.5389L42.4082 18.778C42.257 18.9879 42.1349 19.1587 42.0331 19.3011C41.6904 19.7807 41.5776 19.9384 41.3611 20.1807C41.1874 20.375 40.9669 20.6014 40.571 21.0078C40.5261 21.0538 40.4791 21.1021 40.4295 21.153M43.3005 17.5389L40.4295 21.153M40.4295 21.153C39.9703 19.667 39.511 18.4377 38.8991 17.1766C38.0784 15.485 36.9983 13.7675 35.3223 11.3095L35.3223 11.3095C33.2745 8.30642 30.4024 5.7398 28.0002 3.98508C26.7959 3.10545 25.6876 2.41366 24.8316 1.96397C24.4082 1.74157 24.0188 1.56366 23.6956 1.45523C23.5386 1.40256 23.3544 1.35147 23.1678 1.33262C23.0739 1.32314 22.9442 1.31794 22.7993 1.34223C22.6578 1.36595 22.4363 1.42907 22.2338 1.60958L40.4295 21.153ZM21.1752 6.99642C21.5056 5.98829 21.616 4.92211 21.6769 4.01955C21.6866 3.87516 21.6955 3.72782 21.7041 3.5837C21.7208 3.30621 21.7367 3.04071 21.7569 2.83146C21.7727 2.66818 21.7954 2.48628 21.8358 2.31959C21.8627 2.20885 21.9463 1.86601 22.2337 1.60968L21.1752 6.99642ZM21.1752 6.99642C20.6736 8.51607 20.5594 9.09325 20.491 9.46957C20.4601 9.63964 20.4529 9.67633 20.4297 9.74408C20.4006 9.82905 20.3413 9.97079 20.1845 10.2891L21.1752 6.99642ZM16.683 16.0641C16.3791 16.4872 15.6054 17.552 13.7656 20.0782C13.3289 20.6778 12.6463 21.4284 11.7802 22.381C11.6535 22.5204 11.5228 22.6641 11.3884 22.8123C10.358 23.9483 9.15665 25.2974 7.98678 26.8389L8.78336 27.4435L16.683 16.0641ZM16.683 16.0641C16.7082 16.008 16.7327 15.9665 16.7383 15.957L16.739 15.9557C16.7518 15.9338 16.7645 15.9137 16.7743 15.8983M16.683 16.0641L16.7743 15.8983L16.7743 15.8983M16.7743 15.8983C16.7735 15.8995 16.8037 15.8504 16.8591 15.7604M16.7743 15.8983L16.8591 15.7604M18.423 13.2364L18.4243 13.2348C19.1895 12.2643 19.4299 11.9019 19.572 11.6311C19.6413 11.499 19.6923 11.3797 19.7779 11.1793L19.7905 11.15C19.8824 10.935 19.9989 10.6657 20.1844 10.2892L18.423 13.2364ZM18.423 13.2364C18.4043 13.2603 18.3904 13.2803 18.3872 13.2849M18.423 13.2364L18.3872 13.2849M18.3872 13.2849L18.387 13.2853M18.3872 13.2849L18.387 13.2853M18.387 13.2853L18.3747 13.3033M18.387 13.2853L18.3747 13.3033M18.3747 13.3033L18.3619 13.3229M18.3747 13.3033L18.3619 13.3229M18.3619 13.3229L18.3413 13.3553M18.3619 13.3229L18.3413 13.3553M18.3413 13.3553C18.3269 13.3782 18.3077 13.409 18.2849 13.4456M18.3413 13.3553L18.2849 13.4456M18.2849 13.4456C18.2391 13.5192 18.1757 13.6216 18.101 13.7426M18.2849 13.4456L18.101 13.7426M18.101 13.7426C17.9514 13.9848 17.7546 14.3045 17.5583 14.6235M18.101 13.7426L17.5583 14.6235M17.5583 14.6235L17.0178 15.5024M17.5583 14.6235L17.0178 15.5024M17.0178 15.5024C16.9531 15.6076 16.8994 15.6948 16.8591 15.7604M17.0178 15.5024L16.8591 15.7604" fill="#F5A623" stroke="#FBFBFB" stroke-width="2"/>
</g>
<path d="M19.7833 50.7557C19.738 50.7447 17.746 49.6523 17.7153 49.6231C15.9817 47.9775 16.5122 48.7123 15.649 47.5938C14.6458 46.2938 14.4838 45.7727 14.2266 45.0705C13.9387 44.2837 13.7954 43.9994 13.4792 41.9804C13.3724 41.2987 13.457 39.883 13.8352 38.1697C14.1869 36.5768 17.8963 32.2239 18.3977 33.5997C19.5863 36.8612 22.9656 37.8624 22.9089 37.7414C22.3671 36.6854 22.5778 25.4669 30.7427 20.6025C30.6918 20.6354 31.5335 23.467 31.8478 24.3631C32.2704 25.5676 33.7812 28.055 33.8219 28.1079C34.9766 29.6176 36.4361 31.8419 37.1557 32.72C38.5515 34.4231 38.8628 34.831 40.028 36.4517C41.1402 37.9986 41.8251 40.3696 41.6444 42.7819C41.4636 45.1971 41.0989 46.9869 38.482 49.9264C38.2333 50.2059 32.8684 51.8816 32.8771 51.7279C32.8857 51.5743 29.5804 52.0905 29.4991 52.0917C28.501 52.1057 28.0372 52.0949 26.3526 52.1726C23.5357 52.3026 19.9575 50.7983 19.7833 50.7557Z" fill="#FBFBFB"/>
<defs>
<filter id="filter0_d_164_8101" x="0" y="0.324707" width="54.0212" height="61.7866" filterUnits="userSpaceOnUse" color-interpolation-filters="sRGB">
<feFlood flood-opacity="0" result="BackgroundImageFix"/>
<feColorMatrix in="SourceAlpha" type="matrix" values="0 0 0 0 0 0 0 0 0 0 0 0 0 0 0 0 0 0 127 0" result="hardAlpha"/>
<feOffset dy="4"/>
<feGaussianBlur stdDeviation="2"/>
<feComposite in2="hardAlpha" operator="out"/>
<feColorMatrix type="matrix" values="0 0 0 0 0 0 0 0 0 0 0 0 0 0 0 0 0 0 0.1 0"/>
<feBlend mode="normal" in2="BackgroundImageFix" result="effect1_dropShadow_164_8101"/>
<feBlend mode="normal" in="SourceGraphic" in2="effect1_dropShadow_164_8101" result="shape"/>
</filter>
</defs>
</svg>
