<svg width="46" height="46" viewBox="0 0 46 46" fill="none" xmlns="http://www.w3.org/2000/svg">
<path d="M0 28.8871L6.4662 40.2267L9.88348 38.1574C10.3785 37.8686 10.9434 37.7253 11.5146 37.7435C12.0858 37.7618 12.6406 37.941 13.1165 38.2609C13.6501 38.617 14.2035 38.9417 14.774 39.2335C15.286 39.4898 15.7177 39.8846 16.0211 40.3741C16.3246 40.8636 16.4879 41.4286 16.4929 42.0063V46H29.4253V42.0684C29.426 41.4923 29.5854 40.9279 29.8853 40.4382C30.1853 39.9485 30.614 39.5528 31.1237 39.2955C31.6966 39.0058 32.2491 38.6748 32.8016 38.323C33.2735 38.0026 33.8251 37.823 34.3932 37.8047C34.9614 37.7864 35.5231 37.9301 36.0142 38.2195L39.4519 40.2888L46 28.8871L42.5418 26.8178C42.0527 26.5265 41.6538 26.1029 41.3899 25.5948C41.126 25.0866 41.0076 24.514 41.048 23.9415C41.048 23.6104 41.048 23.3 41.048 22.969C41.048 22.6379 41.048 22.3275 41.048 22.0171C41.0076 21.4446 41.126 20.872 41.3899 20.3638C41.6538 19.8557 42.0527 19.4321 42.5418 19.1408L46 17.0715L39.5338 5.75259L36.0961 7.82187C35.5978 8.10309 35.0325 8.24026 34.4623 8.21836C33.8921 8.19646 33.3387 8.01634 32.863 7.69771C32.3294 7.34158 31.776 7.01686 31.2055 6.72514C30.6774 6.47803 30.2297 6.08422 29.9145 5.58963C29.5993 5.09503 29.4296 4.52002 29.4253 3.93163V0H16.4929V3.93163C16.486 4.50363 16.3241 5.06275 16.0246 5.54805C15.7251 6.03335 15.2996 6.4262 14.7945 6.68377C14.2173 6.97538 13.6571 7.30009 13.1165 7.65632C12.6439 7.97314 12.0941 8.15231 11.5275 8.17421C10.9608 8.19611 10.3991 8.05989 9.9039 7.78048L6.4662 5.7112L0 17.0301L3.43777 19.0994C3.92361 19.3943 4.3199 19.8185 4.58336 20.3258C4.84681 20.8331 4.96724 21.4039 4.9315 21.9757C4.9315 22.3068 4.9315 22.6172 4.9315 22.9483C4.9315 23.2794 4.9315 23.5898 4.9315 23.9208C4.97236 24.4958 4.85198 25.0707 4.58411 25.5795C4.31624 26.0883 3.91178 26.5104 3.41729 26.7971L0 28.8871ZM12.2776 23.031C12.2776 20.9102 12.8998 18.837 14.0654 17.0738C15.231 15.3107 16.8876 13.9368 18.8256 13.1262C20.7637 12.3155 22.896 12.1044 24.9527 12.5197C27.0094 12.935 28.898 13.9579 30.3796 15.459C31.8611 16.9601 32.869 18.872 33.2757 20.9526C33.6824 23.0332 33.4695 25.1891 32.6641 27.1473C31.8587 29.1056 30.497 30.7782 28.7512 31.9535C27.0054 33.1288 24.9541 33.754 22.8568 33.7499C20.0617 33.728 17.3887 32.5884 15.4218 30.58C13.4549 28.5716 12.354 25.8577 12.3594 23.031H12.2776Z" fill="#5083D5"/>
</svg>
