<svg width="39" height="39" viewBox="0 0 39 39" fill="none" xmlns="http://www.w3.org/2000/svg">
<path d="M19.3414 38.8659C19.3414 38.8659 19.3414 31.1194 19.3414 19.4897C19.3414 7.87982 19.3414 0.133301 19.3414 0.133301C30.4044 0.133301 38.6835 9.57437 38.6835 19.4512C38.6835 29.6669 30.3076 38.8659 19.3414 38.8659Z" fill="#FFC935"/>
<path d="M38.7326 19.4996C38.7326 30.1952 30.0619 38.8659 19.3663 38.8659C8.67068 38.8659 0 30.1952 0 19.4996C0 8.80398 8.67068 0.133301 19.3663 0.133301C30.0619 0.133301 38.7326 8.80398 38.7326 19.4996Z" fill="url(#paint0_linear_164_9876)"/>
<path d="M34.8596 19.505C34.8596 28.0616 27.9232 34.998 19.3666 34.998C10.81 34.998 3.87354 28.0616 3.87354 19.505C3.87354 10.9484 10.81 4.01196 19.3666 4.01196C27.9232 4.01196 34.8596 10.9484 34.8596 19.505Z" fill="#FCAD25"/>
<path d="M33.4063 19.507C33.4063 27.2614 27.1202 33.5475 19.3658 33.5475C11.6113 33.5475 5.3252 27.2614 5.3252 19.507C5.3252 11.7525 11.6113 5.46643 19.3658 5.46643C27.1202 5.46643 33.4063 11.7525 33.4063 19.507Z" fill="url(#paint1_linear_164_9876)"/>
<path d="M20.0692 10.5919L22.391 15.2965C22.5407 15.6 22.8302 15.8105 23.1652 15.8591L28.3573 16.6136C28.7791 16.6748 28.9474 17.1931 28.6422 17.4905L24.8854 21.1527C24.6431 21.389 24.5325 21.7292 24.5896 22.0629L25.4764 27.2339C25.5485 27.654 25.1077 27.9743 24.7304 27.776L20.0866 25.3345C19.787 25.177 19.4291 25.177 19.1295 25.3345L14.4857 27.776C14.1084 27.9743 13.6676 27.654 13.7397 27.2339L14.6265 22.0629C14.6836 21.7292 14.573 21.389 14.3307 21.1527L10.5739 17.4905C10.2686 17.1931 10.4369 16.6748 10.8587 16.6136L16.0508 15.8591C16.3859 15.8105 16.6754 15.6 16.8251 15.2965L19.1469 10.5919C19.3356 10.2098 19.8805 10.2098 20.0692 10.5919Z" fill="url(#paint2_linear_164_9876)"/>
<path d="M22.8751 15.7827C23.025 16.0862 23.3145 16.2967 23.6496 16.3453L28.796 17.0932C28.7809 16.8663 28.618 16.6536 28.3573 16.6157L23.1654 15.8611C23.0587 15.8457 22.9595 15.8087 22.8652 15.7626L22.8751 15.7827Z" fill="#FCAD25"/>
<path d="M14.2239 27.7161L15.1107 22.5451C15.1678 22.2114 15.0574 21.8712 14.815 21.6349L14.3759 21.2069C14.5831 21.4395 14.6796 21.7513 14.6265 22.061L13.7397 27.232C13.6844 27.5546 13.932 27.8158 14.2208 27.831C14.2189 27.7934 14.2171 27.7558 14.2239 27.7161Z" fill="#FCAD25"/>
<path d="M11.3429 17.0978L16.5348 16.3433C16.8698 16.2947 17.1594 16.0842 17.3093 15.7807L19.6311 11.076C19.7392 10.857 19.9638 10.7679 20.1718 10.7999L20.0692 10.5919C19.8805 10.2098 19.3356 10.2098 19.1469 10.5919L16.8251 15.2965C16.6752 15.6 16.3857 15.8105 16.0506 15.8591L10.8587 16.6136C10.4369 16.6748 10.2686 17.1931 10.5739 17.4905L11.0204 17.9261C10.7757 17.6242 10.9424 17.1559 11.3429 17.0978Z" fill="#FCAD25"/>
<mask id="mask0_164_9876" style="mask-type:alpha" maskUnits="userSpaceOnUse" x="0" y="0" width="39" height="39">
<path d="M19.3663 0.134033C8.67068 0.134033 0 8.80451 0 19.5003C0 30.1959 8.67068 38.8666 19.3663 38.8666C30.0619 38.8666 38.7326 30.1959 38.7326 19.5003C38.7326 8.80451 30.0619 0.134033 19.3663 0.134033ZM19.3663 34.9934C10.8097 34.9934 3.87326 28.0569 3.87326 19.5003C3.87326 10.9437 10.8097 4.00729 19.3663 4.00729C27.9229 4.00729 34.8593 10.9437 34.8593 19.5003C34.8593 28.0569 27.9229 34.9934 19.3663 34.9934Z" fill="#FFD040"/>
<path d="M19.3662 5.45935C11.6118 5.45935 5.32568 11.7455 5.32568 19.4999C5.32568 27.2544 11.6118 33.5405 19.3662 33.5405C27.1207 33.5405 33.4068 27.2544 33.4068 19.4999C33.4068 11.7455 27.1207 5.45935 19.3662 5.45935Z" fill="#FCB228"/>
</mask>
<g mask="url(#mask0_164_9876)">
<g opacity="0.5">
<path d="M64.3393 7.94935L54.3806 19.8177L16.9985 -11.5496L26.9573 -23.4179L64.3393 7.94935Z" fill="white"/>
</g>
</g>
<defs>
<linearGradient id="paint0_linear_164_9876" x1="9.0886" y1="3.22435" x2="32.3576" y2="33.9862" gradientUnits="userSpaceOnUse">
<stop stop-color="#FEC335"/>
<stop offset="0.5" stop-color="#FFF5D5"/>
<stop offset="1" stop-color="#FFC935"/>
</linearGradient>
<linearGradient id="paint1_linear_164_9876" x1="11.7788" y1="7.60854" x2="29.0024" y2="30.1501" gradientUnits="userSpaceOnUse">
<stop stop-color="#FFC935"/>
<stop offset="0.5" stop-color="#FFD040"/>
<stop offset="1" stop-color="#FFC935"/>
</linearGradient>
<linearGradient id="paint2_linear_164_9876" x1="19.5596" y1="10.2084" x2="19.5596" y2="27.7394" gradientUnits="userSpaceOnUse">
<stop stop-color="#FFCD3C"/>
<stop offset="0.5" stop-color="#FFF6D9"/>
<stop offset="1" stop-color="#FFD03F"/>
</linearGradient>
</defs>
</svg>
 