<svg width="179" height="433" viewBox="0 0 179 433" fill="none" xmlns="http://www.w3.org/2000/svg">
<g clip-path="url(#clip0_164_8937)">
<path d="M145.997 111.213C140.675 106.604 136.303 104.426 136.262 104.401L137.617 101.638C137.811 101.735 142.387 104.019 148.001 108.88L145.997 111.213Z" fill="#65CEFE"/>
<path d="M150.873 408.574C145.356 402.632 140.327 396.56 135.938 390.529L138.42 388.717C142.744 394.65 147.685 400.625 153.128 406.477L150.873 408.574ZM123.541 370.598C119.85 363.462 116.864 356.138 114.658 348.822L117.595 347.928C119.753 355.065 122.665 362.21 126.267 369.176L123.541 370.598ZM110.139 325.713C109.806 322.129 109.644 318.455 109.644 314.797C109.644 310.659 109.863 306.416 110.285 302.182L113.343 302.49C112.93 306.62 112.719 310.765 112.719 314.797C112.719 318.357 112.881 321.942 113.206 325.437L110.139 325.713ZM117.505 279.861L114.536 279.073C116.434 271.879 118.844 264.596 121.902 256.817L124.758 257.947C121.74 265.612 119.371 272.781 117.505 279.861ZM134.128 236.78L131.362 235.431C134.347 229.294 137.747 222.702 142.063 214.687L144.764 216.151C140.473 224.125 137.09 230.676 134.128 236.78ZM155.911 195.708L153.201 194.261L153.291 194.098C157.185 186.929 160.178 179.882 162.182 173.168L165.127 174.054C163.058 180.979 159.984 188.221 155.984 195.586L155.911 195.708ZM165.314 150.709C165.038 142.971 163.213 135.639 159.878 128.925L162.629 127.559C166.149 134.663 168.088 142.418 168.38 150.603L165.314 150.709Z" fill="#65CEFE"/>
<path d="M177.053 433C173.816 430.342 170.652 427.635 167.658 424.961L169.703 422.661C172.664 425.311 175.796 427.985 179 430.618L177.053 433Z" fill="#65CEFE"/>
<path d="M125.764 59.1341L121.7 108.709L92.956 76.2769L0 0L79.2698 25.0192C79.2698 25.0192 118.3 44.0153 120.085 46.527C121.878 49.0387 125.764 59.1341 125.764 59.1341Z" fill="#E6A748"/>
<path d="M167.894 37.8296L0 0L125.764 59.1341L167.894 37.8296Z" fill="#FFCB83"/>
<path d="M61.2027 95.8501L112.946 69.9774L0 0L61.2027 95.8501Z" fill="#FFCB83"/>
</g>
<defs>
<clipPath id="clip0_164_8937">
<rect width="179" height="433" fill="white"/>
</clipPath>
</defs>
</svg>
