<svg width="37" height="36" viewBox="0 0 37 36" fill="none" xmlns="http://www.w3.org/2000/svg">
<path d="M6.5 30C5.675 30 4.969 29.7065 4.382 29.1195C3.795 28.5325 3.501 27.826 3.5 27V9C3.5 8.175 3.794 7.469 4.382 6.882C4.97 6.295 5.676 6.001 6.5 6H30.5C31.325 6 32.0315 6.294 32.6195 6.882C33.2075 7.47 33.501 8.176 33.5 9V27C33.5 27.825 33.2065 28.5315 32.6195 29.1195C32.0325 29.7075 31.326 30.001 30.5 30H6.5ZM18.5 19.5L6.5 12V27H30.5V12L18.5 19.5ZM18.5 16.5L30.5 9H6.5L18.5 16.5ZM6.5 12V9V27V12Z" fill="#3066BE"/>
</svg>
