<svg width="30" height="31" viewBox="0 0 30 31" fill="none" xmlns="http://www.w3.org/2000/svg">
<g clip-path="url(#clip0_164_10092)">
<mask id="mask0_164_10092" style="mask-type:luminance" maskUnits="userSpaceOnUse" x="0" y="0" width="30" height="31">
<path d="M29.9748 0.118896H0.0263672V30.0674H29.9748V0.118896Z" fill="white"/>
</mask>
<g mask="url(#mask0_164_10092)">
<path d="M13.3004 27.3491L2.7532 16.8017C1.84073 15.8893 1.84073 14.4098 2.7532 13.4973L13.3004 2.94998C14.2129 2.03751 15.6924 2.03751 16.6048 2.94998L27.1521 13.4973C28.0646 14.4098 28.0646 15.8893 27.1521 16.8017L16.6048 27.3491C15.6924 28.2616 14.2129 28.2616 13.3004 27.3491Z" fill="#B4B4B4"/>
<path d="M14.9527 3.46356C15.2568 3.46356 15.5427 3.58204 15.7577 3.79707L26.3052 14.3444C26.749 14.7883 26.749 15.5106 26.3052 15.9546L15.7577 26.5019C15.5427 26.717 15.2568 26.8353 14.9527 26.8353C14.6485 26.8353 14.3627 26.717 14.1477 26.5019L3.60017 15.9546C3.15634 15.5106 3.15634 14.7883 3.60017 14.3444L14.1477 3.79707C14.3627 3.58204 14.6485 3.46356 14.9527 3.46356ZM14.9527 2.26562C14.3547 2.26562 13.7568 2.49371 13.3006 2.95001L2.75311 13.4974C1.84076 14.4098 1.84076 15.8892 2.75311 16.8016L13.3006 27.349C13.7568 27.8052 14.3547 28.0333 14.9527 28.0333C15.5507 28.0333 16.1486 27.8052 16.6047 27.349L27.1522 16.8016C28.0646 15.8892 28.0646 14.4098 27.1522 13.4974L16.6047 2.95001C16.1486 2.49371 15.5507 2.26562 14.9527 2.26562Z" fill="#909090"/>
<path d="M14.9878 2.30963C15.5858 2.30963 16.1837 2.53772 16.6399 2.99402L27.1874 13.5414C28.0997 14.4539 28.0997 15.9332 27.1874 16.8457L16.6399 27.393C16.1837 27.8492 15.5858 28.0773 14.9878 28.0773C14.3898 28.0773 13.7919 27.8492 13.3358 27.393L2.78827 16.8457C1.87592 15.9332 1.87592 14.4539 2.78827 13.5414L13.3358 2.99402C13.7919 2.53772 14.3898 2.30963 14.9878 2.30963ZM14.9878 1.11169C14.0437 1.11169 13.1562 1.47934 12.4886 2.14695L1.94121 12.6943C0.563218 14.0723 0.563218 16.3146 1.94121 17.6927L12.4886 28.2401C13.1562 28.9076 14.0437 29.2752 14.9878 29.2752C15.9319 29.2752 16.8195 28.9076 17.487 28.2401L28.0345 17.6927C29.4124 16.3146 29.4124 14.0723 28.0345 12.6943L17.4871 2.14695C16.8195 1.47934 15.9319 1.11169 14.9878 1.11169Z" fill="#EEEEEE"/>
<path d="M10.946 16.4137L8.71732 15.3144C7.79441 14.859 7.79413 13.543 8.71694 13.0874L10.9453 11.9872C11.3116 11.8063 11.5656 11.4566 11.6243 11.0522L11.9813 8.59282C12.129 7.57437 13.3805 7.16755 14.099 7.90436L15.834 9.68359C16.1194 9.97624 16.5304 10.1097 16.9332 10.0406L19.3823 9.61996C20.3966 9.44585 21.1703 10.5103 20.6916 11.4214L19.5358 13.6212C19.3456 13.983 19.3455 14.415 19.5358 14.7767L20.6927 16.9762C21.1719 17.8871 20.3983 18.9518 19.384 18.778L16.9345 18.3584C16.5317 18.2893 16.1208 18.423 15.8356 18.7157L14.1013 20.4955C13.383 21.2325 12.1314 20.8262 11.9832 19.8077L11.6254 17.3486C11.5666 16.9441 11.3125 16.5946 10.946 16.4137Z" fill="#B4B4B4"/>
<path d="M11.6734 16.6934L8.61567 15.1849C8.06559 14.9136 8.06545 14.1292 8.61546 13.8577L11.6727 12.3484C11.8911 12.2406 12.0424 12.032 12.0774 11.791L12.567 8.41688C12.6552 7.80987 13.4011 7.56728 13.8294 8.0064L16.2098 10.4475C16.3797 10.622 16.6247 10.7015 16.8648 10.6602L20.2251 10.0833C20.8297 9.97953 21.2907 10.6139 21.0055 11.1568L19.4194 14.1751C19.306 14.3906 19.3061 14.6483 19.4195 14.8639L21.0066 17.8815C21.2921 18.4244 20.8312 19.0589 20.2266 18.9554L16.8661 18.3796C16.626 18.3385 16.3811 18.418 16.2111 18.5925L13.8316 21.0346C13.4034 21.474 12.6576 21.2315 12.5693 20.6246L12.0783 17.2505C12.0434 17.0095 11.8919 16.8011 11.6734 16.6934Z" fill="#D4D4D4"/>
<mask id="mask1_164_10092" style="mask-type:luminance" maskUnits="userSpaceOnUse" x="0" y="0" width="30" height="31">
<path d="M0.0268555 0.115723H29.9753V30.0642H0.0268555V0.115723Z" fill="white"/>
</mask>
<g mask="url(#mask1_164_10092)">
<mask id="mask2_164_10092" style="mask-type:alpha" maskUnits="userSpaceOnUse" x="0" y="1" width="30" height="29">
<path d="M14.9878 1.10364C14.0437 1.10364 13.1562 1.47128 12.4886 2.1389L1.94121 12.6863C0.563218 14.0643 0.563218 16.3066 1.94121 17.6847L12.4886 28.232C13.1562 28.8995 14.0437 29.2672 14.9878 29.2672C15.9319 29.2672 16.8195 28.8995 17.487 28.232L28.0345 17.6847C29.4124 16.3066 29.4124 14.0643 28.0345 12.6863L17.4871 2.1389C16.8195 1.47128 15.9319 1.10364 14.9878 1.10364Z" fill="#D9D9FF"/>
</mask>
<g mask="url(#mask2_164_10092)">
<g opacity="0.2">
<path d="M14.9544 -5.04111L19.8351 29.6866L15.3187 30.3214L10.438 -4.40637L14.9544 -5.04111Z" fill="white"/>
<path d="M18.0305 -5.47197L22.9111 29.2558L20.7063 29.5656L15.8257 -5.16211L18.0305 -5.47197Z" fill="white"/>
</g>
</g>
</g>
</g>
</g>
<defs>
<clipPath id="clip0_164_10092">
<rect width="29.9485" height="29.9485" fill="white" transform="translate(0.0258789 0.123657)"/>
</clipPath>
</defs>
</svg>
