<svg width="39" height="39" viewBox="0 0 39 39" fill="none" xmlns="http://www.w3.org/2000/svg">
<path d="M19.3419 38.9328C19.3419 38.9328 19.3419 31.1863 19.3419 19.5566C19.3419 7.94671 19.3419 0.200195 19.3419 0.200195C30.4049 0.200195 38.684 9.64126 38.684 19.5181C38.684 29.7338 30.3081 38.9328 19.3419 38.9328Z" fill="#999999"/>
<path d="M38.7326 19.5665C38.7326 30.2621 30.0619 38.9328 19.3663 38.9328C8.67068 38.9328 0 30.2621 0 19.5665C0 8.87087 8.67068 0.200195 19.3663 0.200195C30.0619 0.200195 38.7326 8.87087 38.7326 19.5665Z" fill="url(#paint0_linear_164_9916)"/>
<path d="M34.8596 19.5704C34.8596 28.127 27.9232 35.0635 19.3666 35.0635C10.81 35.0635 3.87354 28.127 3.87354 19.5704C3.87354 11.0138 10.81 4.07739 19.3666 4.07739C27.9232 4.07739 34.8596 11.0138 34.8596 19.5704Z" fill="#B3B3B3"/>
<path d="M33.4063 19.574C33.4063 27.3285 27.1202 33.6146 19.3658 33.6146C11.6113 33.6146 5.3252 27.3285 5.3252 19.574C5.3252 11.8196 11.6113 5.53345 19.3658 5.53345C27.1202 5.53345 33.4063 11.8196 33.4063 19.574Z" fill="url(#paint1_linear_164_9916)"/>
<path d="M20.0701 10.6574L22.392 15.3621C22.5417 15.6655 22.8312 15.8761 23.1662 15.9247L28.3583 16.6792C28.7801 16.7404 28.9484 17.2586 28.6432 17.5561L24.8863 21.2182C24.6441 21.4545 24.5335 21.7948 24.5906 22.1285L25.4774 27.2995C25.5494 27.7195 25.1087 28.0398 24.7314 27.8415L20.0876 25.4C19.788 25.2426 19.4301 25.2426 19.1305 25.4L14.4866 27.8415C14.1094 28.0398 13.6686 27.7195 13.7406 27.2995L14.6274 22.1285C14.6846 21.7948 14.574 21.4545 14.3317 21.2182L10.5748 17.5561C10.2696 17.2586 10.4379 16.7404 10.8597 16.6792L16.0518 15.9247C16.3869 15.8761 16.6764 15.6655 16.8261 15.3621L19.1479 10.6574C19.3365 10.2753 19.8815 10.2753 20.0701 10.6574Z" fill="url(#paint2_linear_164_9916)"/>
<path d="M22.8756 15.8459C23.0255 16.1494 23.315 16.3599 23.6501 16.4085L28.7965 17.1565C28.7813 16.9295 28.6185 16.7168 28.3578 16.6789L23.1659 15.9244C23.0592 15.9089 22.96 15.8719 22.8657 15.8258L22.8756 15.8459Z" fill="#808080"/>
<path d="M14.2239 27.7814L15.1107 22.6104C15.1678 22.2767 15.0574 21.9365 14.815 21.7002L14.3759 21.2722C14.5831 21.5048 14.6796 21.8166 14.6265 22.1263L13.7397 27.2973C13.6844 27.6199 13.932 27.8812 14.2208 27.8963C14.2189 27.8587 14.2171 27.8211 14.2239 27.7814Z" fill="#808080"/>
<path d="M11.3439 17.1633L16.5358 16.4088C16.8708 16.3602 17.1603 16.1497 17.3102 15.8462L19.6321 11.1416C19.7401 10.9225 19.9648 10.8335 20.1728 10.8654L20.0701 10.6574C19.8815 10.2753 19.3365 10.2753 19.1479 10.6574L16.8261 15.3621C16.6762 15.6655 16.3867 15.8761 16.0516 15.9247L10.8597 16.6792C10.4379 16.7404 10.2696 17.2586 10.5748 17.5561L11.0214 17.9916C10.7766 17.6897 10.9434 17.2214 11.3439 17.1633Z" fill="#808080"/>
<mask id="mask0_164_9916" style="mask-type:alpha" maskUnits="userSpaceOnUse" x="0" y="0" width="39" height="39">
<path d="M19.6217 0.0672607C8.92605 0.0672607 0.255371 8.73774 0.255371 19.4335C0.255371 30.1292 8.92605 38.7998 19.6217 38.7998C30.3173 38.7998 38.9879 30.1292 38.9879 19.4335C38.9879 8.73774 30.3173 0.0672607 19.6217 0.0672607ZM19.6217 34.9266C11.0651 34.9266 4.12863 27.9902 4.12863 19.4335C4.12863 10.8769 11.0651 3.94052 19.6217 3.94052C28.1783 3.94052 35.1147 10.8769 35.1147 19.4335C35.1147 27.9902 28.1783 34.9266 19.6217 34.9266Z" fill="#231526"/>
<path d="M19.6226 5.39258C11.8681 5.39258 5.58203 11.6787 5.58203 19.4331C5.58203 27.1876 11.8681 33.4737 19.6226 33.4737C27.377 33.4737 33.6631 27.1876 33.6631 19.4331C33.6631 11.6787 27.377 5.39258 19.6226 5.39258Z" fill="#231526"/>
</mask>
<g mask="url(#mask0_164_9916)">
<g opacity="0.5">
<path d="M64.5976 7.88221L54.6389 19.7506L17.2568 -11.6167L27.2156 -23.485L64.5976 7.88221Z" fill="white"/>
</g>
</g>
<defs>
<linearGradient id="paint0_linear_164_9916" x1="9.0886" y1="3.29125" x2="32.3576" y2="34.053" gradientUnits="userSpaceOnUse">
<stop stop-color="#BFBFBF"/>
<stop offset="0.5" stop-color="#B3B3B3"/>
<stop offset="1" stop-color="#A6A6A6"/>
</linearGradient>
<linearGradient id="paint1_linear_164_9916" x1="11.7788" y1="7.67555" x2="29.0024" y2="30.2171" gradientUnits="userSpaceOnUse">
<stop stop-color="#BFBFBF"/>
<stop offset="0.5" stop-color="#BFBFBF"/>
<stop offset="1" stop-color="#BFBFBF"/>
</linearGradient>
<linearGradient id="paint2_linear_164_9916" x1="19.5606" y1="10.274" x2="19.5606" y2="27.8049" gradientUnits="userSpaceOnUse">
<stop stop-color="#A6A6A6"/>
<stop offset="0.5" stop-color="#A6A6A6"/>
<stop offset="1" stop-color="#A6A6A6"/>
</linearGradient>
</defs>
</svg>
