<svg width="16" height="16" viewBox="0 0 16 16" fill="none" xmlns="http://www.w3.org/2000/svg">
<path d="M1.3335 12.6666C1.3335 13.7999 2.20016 14.6666 3.3335 14.6666H12.6668C13.8002 14.6666 14.6668 13.7999 14.6668 12.6666V7.33325H1.3335V12.6666ZM12.6668 2.66659H11.3335V1.99992C11.3335 1.59992 11.0668 1.33325 10.6668 1.33325C10.2668 1.33325 10.0002 1.59992 10.0002 1.99992V2.66659H6.00016V1.99992C6.00016 1.59992 5.7335 1.33325 5.3335 1.33325C4.9335 1.33325 4.66683 1.59992 4.66683 1.99992V2.66659H3.3335C2.20016 2.66659 1.3335 3.53325 1.3335 4.66658V5.99992H14.6668V4.66658C14.6668 3.53325 13.8002 2.66659 12.6668 2.66659Z" fill="#3066BE"/>
</svg>
