<svg width="48" height="48" viewBox="0 0 48 48" fill="none" xmlns="http://www.w3.org/2000/svg">
<g clip-path="url(#clip0_164_9653)">
<path d="M6 14C6 12.9391 6.42143 11.9217 7.17157 11.1716C7.92172 10.4214 8.93913 10 10 10H38C39.0609 10 40.0783 10.4214 40.8284 11.1716C41.5786 11.9217 42 12.9391 42 14V32C42 32.5304 41.7893 33.0391 41.4142 33.4142C41.0391 33.7893 40.5304 34 40 34H36V32C36 31.4696 35.7893 30.9609 35.4142 30.5858C35.0391 30.2107 34.5304 30 34 30H24C23.4696 30 22.9609 30.2107 22.5858 30.5858C22.2107 30.9609 22 31.4696 22 32V34H8C7.46957 34 6.96086 33.7893 6.58579 33.4142C6.21071 33.0391 6 32.5304 6 32V14ZM6 36C5.46957 36 4.96086 36.2107 4.58579 36.5858C4.21071 36.9609 4 37.4696 4 38C4 38.5304 4.21071 39.0391 4.58579 39.4142C4.96086 39.7893 5.46957 40 6 40H42C42.5304 40 43.0391 39.7893 43.4142 39.4142C43.7893 39.0391 44 38.5304 44 38C44 37.4696 43.7893 36.9609 43.4142 36.5858C43.0391 36.2107 42.5304 36 42 36H6Z" fill="#FBFBFB"/>
</g>
<defs>
<clipPath id="clip0_164_9653">
<rect width="48" height="48" fill="white"/>
</clipPath>
</defs>
</svg>
