<svg width="56" height="56" viewBox="0 0 56 56" fill="none" xmlns="http://www.w3.org/2000/svg">
<rect width="56" height="56" rx="28" fill="#636363" fill-opacity="0.4"/>
<path d="M25.6632 23.0639L25.6636 23.0636C25.8616 22.8656 26.185 22.8721 26.3665 23.0536L30.9565 27.6436L30.9568 27.6439C31.003 27.69 31.0396 27.7447 31.0646 27.805C31.0896 27.8652 31.1025 27.9298 31.1025 27.995C31.1025 28.0602 31.0896 28.1248 31.0646 28.1851C31.0396 28.2453 31.003 28.3 30.9568 28.3461L30.9565 28.3465L26.3665 32.9365C26.2733 33.0297 26.1468 33.082 26.015 33.082C25.8832 33.082 25.7568 33.0297 25.6636 32.9365C25.5704 32.8433 25.518 32.7168 25.518 32.585C25.518 32.4532 25.5704 32.3268 25.6636 32.2336L29.5436 28.3536L29.8971 28L29.5436 27.6465L25.6636 23.7665L25.6632 23.7661C25.617 23.72 25.5804 23.6653 25.5554 23.6051C25.5304 23.5448 25.5176 23.4802 25.5176 23.415C25.5176 23.3498 25.5304 23.2852 25.5554 23.225C25.5804 23.1647 25.617 23.11 25.6632 23.0639Z" fill="#3066BE" stroke="#FBFBFB"/>
</svg>
