<svg width="20" height="20" viewBox="0 0 20 20" fill="none" xmlns="http://www.w3.org/2000/svg">
<path d="M16.6663 16.568V18.3346L15.1663 17.3596L11.1747 9.85964C11.7247 9.68464 12.2247 9.4013 12.658 9.0263L16.6663 16.568ZM12.4997 5.83464C12.4997 6.49768 12.2363 7.13356 11.7674 7.6024C11.2986 8.07124 10.6627 8.33464 9.99967 8.33464H9.63301L4.83301 17.3596L3.33301 18.3346V16.568L8.15801 7.5013C7.24134 6.4763 7.32467 4.89297 8.35801 3.96797C8.80801 3.56797 9.39134 3.33464 9.99967 3.33464V1.66797C10.2207 1.66797 10.4326 1.75577 10.5889 1.91205C10.7452 2.06833 10.833 2.28029 10.833 2.5013V3.48464C11.833 3.83464 12.4997 4.7763 12.4997 5.83464ZM10.833 5.83464C10.833 5.61362 10.7452 5.40166 10.5889 5.24538C10.4326 5.0891 10.2207 5.0013 9.99967 5.0013C9.77866 5.0013 9.5667 5.0891 9.41042 5.24538C9.25414 5.40166 9.16634 5.61362 9.16634 5.83464C9.16634 6.05565 9.25414 6.26761 9.41042 6.42389C9.5667 6.58017 9.77866 6.66797 9.99967 6.66797C10.2207 6.66797 10.4326 6.58017 10.5889 6.42389C10.7452 6.26761 10.833 6.05565 10.833 5.83464Z" fill="#3066BE"/>
</svg>
