<svg width="42" height="42" viewBox="0 0 42 42" fill="none" xmlns="http://www.w3.org/2000/svg">
<g clip-path="url(#clip0_164_9647)">
<g filter="url(#filter0_d_164_9647)">
<path d="M5.25 7.88025C5.25002 7.39883 5.38242 6.92669 5.63274 6.51547C5.88305 6.10425 6.24163 5.76978 6.66926 5.54865C7.09688 5.32752 7.57708 5.22825 8.05733 5.26169C8.53759 5.29513 8.9994 5.45999 9.39225 5.73825L27.7673 18.7661C28.1086 19.0075 28.3873 19.3269 28.5803 19.6977C28.7733 20.0685 28.8749 20.4801 28.8767 20.8981C28.8785 21.3162 28.7804 21.7286 28.5906 22.1011C28.4009 22.4736 28.1249 22.7953 27.7856 23.0396L9.41062 36.2618C9.01862 36.5445 8.55617 36.7135 8.07423 36.7502C7.59229 36.7869 7.10957 36.6898 6.67929 36.4697C6.24901 36.2495 5.88787 35.9148 5.63568 35.5025C5.38348 35.0902 5.25002 34.6162 5.25 34.1329V7.88025ZM36.75 6.5625C36.75 6.2144 36.6117 5.88056 36.3656 5.63442C36.1194 5.38828 35.7856 5.25 35.4375 5.25C35.0894 5.25 34.7556 5.38828 34.5094 5.63442C34.2633 5.88056 34.125 6.2144 34.125 6.5625V35.4375C34.125 35.7856 34.2633 36.1194 34.5094 36.3656C34.7556 36.6117 35.0894 36.75 35.4375 36.75C35.7856 36.75 36.1194 36.6117 36.3656 36.3656C36.6117 36.1194 36.75 35.7856 36.75 35.4375V6.5625Z" fill="#FBFBFB"/>
</g>
</g>
<defs>
<filter id="filter0_d_164_9647" x="1.25" y="5.25" width="39.5" height="39.5078" filterUnits="userSpaceOnUse" color-interpolation-filters="sRGB">
<feFlood flood-opacity="0" result="BackgroundImageFix"/>
<feColorMatrix in="SourceAlpha" type="matrix" values="0 0 0 0 0 0 0 0 0 0 0 0 0 0 0 0 0 0 127 0" result="hardAlpha"/>
<feOffset dy="4"/>
<feGaussianBlur stdDeviation="2"/>
<feComposite in2="hardAlpha" operator="out"/>
<feColorMatrix type="matrix" values="0 0 0 0 0 0 0 0 0 0 0 0 0 0 0 0 0 0 0.25 0"/>
<feBlend mode="normal" in2="BackgroundImageFix" result="effect1_dropShadow_164_9647"/>
<feBlend mode="normal" in="SourceGraphic" in2="effect1_dropShadow_164_9647" result="shape"/>
</filter>
<clipPath id="clip0_164_9647">
<rect width="42" height="42" fill="white"/>
</clipPath>
</defs>
</svg>
