<svg width="362" height="152" viewBox="0 0 362 152" fill="none" xmlns="http://www.w3.org/2000/svg">
<path fill-rule="evenodd" clip-rule="evenodd" d="M240.052 29.4271C237.127 11.6389 216.545 -1.09327 192.654 0.624996C175.521 1.85721 161.141 10.2006 154.251 21.469C146.86 18.3921 138.164 16.9171 128.98 17.5776C104.021 19.3728 84.9016 36.2605 86.2768 55.2975C86.2797 55.3375 86.2827 55.3774 86.2857 55.4172C86.2888 55.4581 86.2921 55.4989 86.2954 55.5397C84.5197 55.507 82.7185 55.5541 80.8981 55.685C55.9385 57.4801 36.8196 74.3679 38.1948 93.4049L38.201 93.4899C37.1306 93.5091 36.0519 93.5574 34.9664 93.6355C10.0069 95.4306 -9.11202 112.318 -7.73687 131.355C-7.5654 133.729 -7.08337 136.024 -6.32251 138.22V196.239H368.888V141.598C370.35 137.823 371.007 133.818 370.71 129.714C370.51 126.941 369.886 124.275 368.888 121.75V121.165H368.65C364.396 111.072 354.138 103.304 341.192 100.032C341.914 97.2248 342.195 94.3166 341.982 91.3564C340.606 72.3194 319.258 58.3421 294.298 60.1373C291.352 60.3492 288.487 60.7714 285.727 61.3827C285.717 61.1749 285.705 60.9669 285.69 60.7586C284.352 42.2437 264.122 28.5149 240.052 29.4271Z" fill="#E4EEFF"/>
</svg>
